<svg width="25" height="24" viewBox="0 0 25 24" fill="none" xmlns="http://www.w3.org/2000/svg">
<path d="M9.83814 15.9905C12.9946 15.8151 15.5 13.2003 15.5 10C15.5 6.68629 12.8137 4 9.5 4C6.18629 4 3.5 6.68629 3.5 10C3.5 11.1807 3.84094 12.2817 4.42989 13.21L4.00586 14.482L4.00518 14.4839C3.84278 14.9711 3.76154 15.2149 3.81938 15.3771C3.86979 15.5184 3.98169 15.6299 4.12305 15.6803C4.28472 15.7379 4.52675 15.6573 5.01069 15.4959L5.01758 15.4939L6.29004 15.0698C7.2183 15.6588 8.31935 15.9998 9.50006 15.9998C9.61352 15.9998 9.72624 15.9967 9.83814 15.9905ZM9.83814 15.9905C9.83822 15.9907 9.83806 15.9902 9.83814 15.9905ZM9.83814 15.9905C10.6591 18.3259 12.8841 20.0002 15.5001 20.0002C16.6808 20.0002 17.7817 19.6588 18.7099 19.0698L19.982 19.4939L19.9845 19.4944C20.4717 19.6567 20.7158 19.7381 20.878 19.6803C21.0194 19.6299 21.1299 19.5184 21.1803 19.3771C21.2382 19.2146 21.1572 18.9706 20.9943 18.4821L20.5703 17.21L20.7123 16.9746C21.2138 16.0979 21.4995 15.0823 21.4995 14C21.4995 10.6863 18.8137 8 15.5 8L15.2754 8.00414L15.1621 8.00967" stroke="#23F0A2" stroke-width="2" stroke-linecap="round" stroke-linejoin="round"/>
</svg>
