<svg width="25" height="24" viewBox="0 0 25 24" fill="none" xmlns="http://www.w3.org/2000/svg">
<path d="M13.5 14.9999V6.99994M13.5 14.9999L19.004 18.1449C19.1561 18.2318 19.3283 18.2772 19.5034 18.2766C19.6785 18.276 19.8504 18.2295 20.0019 18.1416C20.1533 18.0537 20.2791 17.9276 20.3665 17.7758C20.4539 17.6241 20.4999 17.4521 20.5 17.2769V4.72294C20.4999 4.54783 20.4539 4.37579 20.3665 4.22406C20.2791 4.07232 20.1533 3.9462 20.0019 3.85832C19.8504 3.77043 19.6785 3.72386 19.5034 3.72327C19.3283 3.72268 19.1561 3.76809 19.004 3.85494L13.5 6.99994M13.5 14.9999H10.5M13.5 6.99994H7.5C6.43913 6.99994 5.42172 7.42137 4.67157 8.17152C3.92143 8.92166 3.5 9.93908 3.5 10.9999C3.5 12.0608 3.92143 13.0782 4.67157 13.8284C5.42172 14.5785 6.43913 14.9999 7.5 14.9999M10.5 14.9999V19.4999C10.5 19.8978 10.342 20.2793 10.0607 20.5606C9.77936 20.8419 9.39782 20.9999 9 20.9999C8.60218 20.9999 8.22064 20.8419 7.93934 20.5606C7.65804 20.2793 7.5 19.8978 7.5 19.4999V14.9999M10.5 14.9999H7.5" stroke="#606866" stroke-width="2" stroke-linecap="round" stroke-linejoin="round"/>
</svg>
