<svg width="49" height="48" viewBox="0 0 49 48" fill="none" xmlns="http://www.w3.org/2000/svg">
<g clip-path="url(#clip0_1_329)">
<path fill-rule="evenodd" clip-rule="evenodd" d="M0.474365 -0.0257568C16.4744 -0.0257568 32.4743 -0.0257568 48.4744 -0.0257568C48.4744 15.9743 48.4744 31.9742 48.4744 47.9742C32.4743 47.9742 16.4744 47.9742 0.474365 47.9742C0.474365 31.9742 0.474365 15.9743 0.474365 -0.0257568Z" fill="white" fill-opacity="0.5"/>
<path fill-rule="evenodd" clip-rule="evenodd" d="M27.9763 7.64807C28.0278 7.64807 28.0793 7.64807 28.1308 7.64807C28.1308 7.69957 28.1308 7.75108 28.1308 7.80258C28.1823 7.80258 28.2338 7.80258 28.2853 7.80258C28.2853 7.85408 28.2853 7.90558 28.2853 7.95708C28.354 7.95708 28.4227 7.95708 28.4913 7.95708C28.4913 8.00859 28.4913 8.06009 28.4913 8.11159C28.5428 8.11159 28.5943 8.11159 28.6458 8.11159C28.6458 8.16309 28.6458 8.21459 28.6458 8.2661C28.6973 8.2661 28.7489 8.2661 28.8004 8.2661C28.8004 8.3176 28.8004 8.3691 28.8004 8.4206C28.6996 8.33573 28.5795 8.30138 28.4398 8.3176C28.354 8.09444 28.1995 7.93993 27.9763 7.85408C27.9763 7.78543 27.9763 7.71672 27.9763 7.64807Z" fill="#1D211F"/>
<path fill-rule="evenodd" clip-rule="evenodd" d="M24.3198 13.7253C24.2683 13.7253 24.2168 13.7253 24.1652 13.7253C24.1821 13.1324 24.165 12.5487 24.1137 11.9742C24.0794 11.9742 24.0451 11.9742 24.0107 11.9742C24.0107 11.9227 24.0107 11.8712 24.0107 11.8197C24.1137 11.8197 24.2168 11.8197 24.3198 11.8197C24.3198 12.4549 24.3198 13.0901 24.3198 13.7253Z" fill="#1D211F"/>
<path fill-rule="evenodd" clip-rule="evenodd" d="M27.3584 7.03004H27.2039V19.03V20.4721V24.4378V25.5708H27.3584V26.5494V27.3219H27.5129V27.7854V28.4549H27.6674V28.764V29.073H27.8219V29.4335C27.9031 29.6268 27.9546 29.8328 27.9764 30.0515C28.0463 30.1439 28.1064 30.2469 28.1567 30.3605C28.1704 30.5919 28.2133 30.8151 28.2854 31.03C28.332 31.0666 28.3491 31.1181 28.3369 31.1846H28.4914V31.4936V31.6481H28.6459V31.9571V32.1116H28.8004V32.4721H28.955V32.7811H29.1095V33.0901H29.264V33.2446H29.4185V33.3991C29.4063 33.4656 29.4234 33.5171 29.47 33.5536H29.6245C29.6349 33.6638 29.6864 33.7496 29.779 33.8112C29.8215 33.8568 29.873 33.8739 29.9335 33.8627V34.0687V34.2232H30.088V34.3777H30.2425V34.5322V34.6867H30.397V34.8412H30.5515V34.9957H30.706V35.1502C30.7741 35.1415 30.8342 35.1586 30.8863 35.2017C30.9722 35.2877 31.0151 35.3907 31.015 35.5107H31.1695H31.3241V35.6652H31.5301V35.8197H31.6846V35.9743H31.9936V36.1288H32.1481H32.3026V36.2833C32.5272 36.3621 32.7504 36.4307 32.9721 36.4893C33.1182 36.555 33.2727 36.5893 33.4356 36.5923H36.0107C36.2605 36.5126 36.518 36.461 36.7833 36.4378V36.2833H36.9378H37.2468V36.1288H37.6073V35.9743H37.9163V35.8197H38.2253V35.6652H38.3798V35.5107H38.5344V35.4592V35.3047C38.6496 35.2558 38.7698 35.2215 38.8949 35.2017C38.9621 35.1519 38.9965 35.0832 38.9979 34.9957H39.2039V34.8412H39.3584V34.6867H39.5129V34.5322H39.6674V34.3777H39.8219V34.2232V34.0687H39.9764V33.7082H40.1309C40.1225 33.5698 40.1311 33.4324 40.1567 33.2961C40.2618 33.2486 40.3734 33.2315 40.4914 33.2446V33.0901H40.6459V32.9356V32.7811H40.8004V32.6266V32.4721H40.955V32.2661H41.1095V31.9571V31.8026H41.264V31.4936H41.4185V31.03V30.8755H41.573C41.5592 30.7932 41.5764 30.7245 41.6245 30.6695C41.6877 30.4617 41.7392 30.2557 41.779 30.0515C41.8422 29.8436 41.8937 29.6376 41.9335 29.4335V29.2275C41.9246 29.0481 41.9761 28.8936 42.088 28.764V28.6094V28.3004H42.2425V27.6309V27.1674V26.8584H42.397V26.0343V25.5708V19.03V18.206V17.897H42.2425H42.088V17.7425H41.9335H41.7275V17.588H41.573H41.4185V17.4335H41.1095V17.279C40.9944 17.2942 40.8913 17.277 40.8004 17.2275C40.6677 17.2298 40.5647 17.1783 40.4914 17.073H40.3369V16.9185H40.1309V16.764H39.8219V16.6094H39.5129V16.4549H39.3584H39.2039V16.3004H39.0494V16.1459H38.8949H38.6889V15.9914H38.5344C38.466 16.2293 38.4317 16.4868 38.4313 16.764L38.4829 17.5365C38.5185 17.5094 38.5442 17.4751 38.5601 17.4335C38.5945 19.8197 38.5945 22.206 38.5601 24.5923C38.4728 25.2499 38.4128 25.9022 38.3798 26.5494C38.2995 26.6346 38.248 26.7376 38.2253 26.8584V27.4764C38.2421 27.7022 38.2249 27.9253 38.1738 28.1459C38.139 28.2027 38.1047 28.2542 38.0708 28.3004V29.073V29.4335H37.9163V29.897V30.206V30.515H37.7618V30.8755V31.1846H37.6073V31.6481V31.9571H37.4528V32.1116V32.4206H37.2983C37.3121 32.503 37.2949 32.5716 37.2468 32.6266C37.1379 32.6927 37.0864 32.7957 37.0923 32.9356C37.065 33.0533 37.0135 33.1563 36.9378 33.2446H36.7833V33.3991H36.6288V33.5536C36.4325 33.6126 36.2265 33.6212 36.0107 33.5794C35.9662 33.5094 35.9147 33.4493 35.8562 33.3991V33.2446H35.6502V33.0901H35.4957V32.9356H35.3412V32.7811V32.6266H35.1867V32.3176V31.9571H35.0322V31.6481V31.3391H34.8777V31.03V30.6695C34.7515 30.4887 34.7 30.2826 34.7232 30.0515V29.588C34.6282 29.223 34.5767 28.8453 34.5687 28.4549C34.5343 27.8795 34.5 27.2958 34.4657 26.7039L34.4142 19.8283C34.4142 17.5191 34.4485 15.2272 34.5172 12.9528C34.4683 12.8376 34.434 12.7174 34.4142 12.5923C34.3023 12.5253 34.1822 12.4738 34.0537 12.4378V12.2833H33.8992H33.7447V12.1288H33.5901V11.9743H33.4356V11.8197H33.2811H33.1266V11.6652H32.9721V11.5107C32.743 11.4002 32.5198 11.28 32.3026 11.1502V10.9957H32.1481H31.9936V10.8412H31.8391V10.6867H31.6846V10.5322H31.5301H31.3756V10.3777H31.1695V10.2232H31.015V10.0687H30.8605V9.91416H30.706H30.5515V9.75966C30.515 9.7131 30.4635 9.69595 30.397 9.70816V9.55365H30.2425V9.39914H30.088H29.9335V9.24464H29.779V9.09013H29.573V8.93562H29.4185V8.78112H29.264V8.62661H28.955V8.4721C28.8885 8.48431 28.837 8.46716 28.8004 8.4206C28.6997 8.33573 28.5796 8.30138 28.4399 8.3176C28.3541 8.09444 28.1996 7.93993 27.9764 7.85408V7.64807H27.8219V7.49356H27.6674V7.33906H27.5129V7.18455H27.3584V7.03004ZM24.0622 24.7983C24.1137 20.5238 24.1309 16.2491 24.1137 11.9743H24.0107V12.1288H23.8562V12.2833H23.7017V12.4378H23.4957V12.5923H23.3412V12.7468H23.1867V12.9528H23.0322V13.1073H22.8777V13.2618H22.7232V13.4163H22.5687V13.5708H22.4142V13.7253H22.2597C22.2525 13.809 22.2868 13.869 22.3627 13.9056C22.2075 13.9524 22.053 13.9953 21.8992 14.0343H21.7446V14.1888C21.6782 14.1766 21.6267 14.1938 21.5901 14.2403V14.3949H21.4356V14.5494H21.2811H21.1266V14.7039H20.9721V14.8584H20.7661V15.0129H20.6116V15.1674H20.4571H20.3026V15.3219H20.1481V15.4764H19.9936V17.897H19.8391V18.8755V20.4721V21.5536V22.8412H19.6846V24.9528V26.8584C19.6931 27.3909 19.6846 27.923 19.6588 28.4549C19.6467 28.5383 19.6038 28.5898 19.5301 28.6094V29.588C19.5386 29.8975 19.53 30.2065 19.5043 30.515C19.4921 30.5984 19.4492 30.6499 19.3755 30.6695V31.4936H19.221C19.2374 31.71 19.2202 31.916 19.1695 32.1116V32.2661C19.1225 32.5994 19.071 32.9256 19.015 33.2446L18.8605 33.7082V33.7597V34.0687H18.706V34.5322V34.8412H18.5515V35.1502H18.397V35.5107V35.6652H18.2425V35.9743H18.088V36.2833V36.4378H17.9335V36.5923C17.9418 36.6967 17.9332 36.7997 17.9077 36.9013C17.8919 36.8597 17.8661 36.8253 17.8305 36.7983C17.7815 36.8779 17.7643 36.9637 17.779 37.0558C17.7038 37.0523 17.6352 37.0695 17.573 37.1073H17.4185V37.2618H17.264V37.4163H17.1095V37.5708H16.9549V37.7253H16.8004H16.6459V37.8798C16.4371 37.8965 16.2311 37.8794 16.0279 37.8283C16.0092 37.7932 15.9921 37.7588 15.9764 37.7253H15.8219H15.6674V37.5708H15.5129V37.4163H15.3584V37.2618V37.1073H15.2039V36.9528V36.7468C15.1703 36.7163 15.136 36.682 15.1009 36.6438C15.05 36.4755 15.0329 36.3038 15.0494 36.1288V32.1116V31.1846V30.3605C15.0188 30.0788 15.0703 29.8213 15.2039 29.588V28.764V28.1459C15.187 27.8691 15.2041 27.5944 15.2554 27.3219C15.2902 27.2651 15.3245 27.2136 15.3584 27.1674V26.8584V26.1888V25.5708H15.5129V24.7468V24.2833V23.2017H15.6674V22.5322V21.9142V21.2446H15.8219V21.0901C15.8133 20.8834 15.822 20.6774 15.8477 20.4721C15.8539 20.3723 15.8968 20.3037 15.9764 20.2661V19.4936V18.515H16.1309V17.897V17.4335H15.8219H15.5129V17.588H15.2039H14.5858H14.5343V17.7425H14.2253H13.6073V17.897H13.2983H13.0923V18.0515H12.4743H12.1652H11.6502V18.206H11.3412H10.8777H10.0537V18.3605H9.74465H9.28113V18.412C9.21963 18.4778 9.13383 18.5121 9.02362 18.515C8.3529 18.5585 7.68338 18.61 7.01503 18.6695H6.86053V19.03V19.6481C6.81927 20.0854 6.76777 20.5146 6.70602 20.9356V21.0901V21.7082V22.6867H6.55151V24.4378V25.1073V26.2403V30.206V31.1846V31.4936V32.1116H6.70602V32.4721V32.9356C6.8322 33.1165 6.8837 33.3225 6.86053 33.5536V33.9142L7.01503 34.3777V34.8412C7.08492 34.9336 7.14497 35.0366 7.19529 35.1502C7.28094 35.4199 7.34099 35.6946 7.37555 35.9743H7.53005V36.4378H7.68456V36.7468H7.83907V37.1073H7.99357V37.4163H8.14808V37.5708H8.30259V37.7253V37.8798H8.45709V38.0343C8.54949 38.1336 8.60099 38.2538 8.6116 38.3949H8.76611C8.81591 38.4621 8.88461 38.4965 8.97211 38.4979V38.7039V38.8584H9.12662V39.0129H9.28113V39.1674H9.43563V39.3219H9.59014V39.4764H9.74465V39.6309H9.89915C10.0035 39.6226 10.1066 39.6312 10.2082 39.6567C10.1666 39.6725 10.1322 39.6983 10.1052 39.7339C10.1864 39.775 10.2722 39.8008 10.3627 39.8112C10.4058 39.8632 10.4229 39.9233 10.4142 39.9914H10.5687V40.1459H10.7232V40.3004H11.0322V40.4549H11.3412V40.6094H11.6502H12.0107V40.764H12.1652H12.6288V40.9185H12.9378H15.5129H15.8219V40.764H16.4914H16.8004V40.6094H17.1095H17.264V40.4549H17.4185H17.7275V40.3004H18.088V40.1459H18.397V39.9914H18.5515V39.8369H18.706C18.8343 39.7177 18.9888 39.6491 19.1695 39.6309V39.4764H19.3755V39.3219H19.5301V39.1674H19.6846V39.0129H19.8391V38.8584H19.9936V38.7039H20.1481V38.5494H20.3026V38.3949H20.4571V38.1888H20.6116C20.5994 38.1224 20.6165 38.0709 20.6631 38.0343C20.7352 38.0034 20.7867 37.9519 20.8176 37.8798V37.7253H20.9721V37.5708H21.1266V37.4163H21.2811V37.1073H21.4356V36.9528V36.7983H21.5901V36.5923H21.7446V36.2833H21.8992V35.9743H22.0537V35.8197V35.4592H22.2082C22.1993 35.4081 22.2165 35.3738 22.2597 35.3562C22.2986 35.2273 22.3501 35.1071 22.4142 34.9957V34.8412H22.5687V34.3777H22.7232V34.0687V33.7597H22.8777V33.3991H23.0322V33.0901V32.7811H23.1867V32.2661V31.9571H23.3412V31.4936V31.1846H23.4957V31.03C23.4872 30.8575 23.4958 30.6859 23.5215 30.515C23.5336 30.4316 23.5765 30.3801 23.6502 30.3605C23.635 30.2454 23.6522 30.1424 23.7017 30.0515C23.7413 29.6229 23.7756 29.1936 23.8047 28.764C23.7962 28.5059 23.8048 28.2484 23.8305 27.9914C23.8426 27.908 23.8855 27.8565 23.9592 27.8369V27.4764C23.9506 26.6179 23.9592 25.7595 23.985 24.9013C24.0009 24.8597 24.0266 24.8253 24.0622 24.7983Z" fill="#1D211F"/>
<path fill-rule="evenodd" clip-rule="evenodd" d="M22.7231 13.2618C22.7231 13.3133 22.7231 13.3648 22.7231 13.4163C22.6716 13.4163 22.6201 13.4163 22.5686 13.4163C22.5686 13.3648 22.5686 13.3133 22.5686 13.2618C22.6201 13.2618 22.6716 13.2618 22.7231 13.2618Z" fill="#D54570"/>
<path fill-rule="evenodd" clip-rule="evenodd" d="M22.5686 13.4163C22.5686 13.4678 22.5686 13.5193 22.5686 13.5708C22.5171 13.5708 22.4656 13.5708 22.4141 13.5708C22.4141 13.5193 22.4141 13.4678 22.4141 13.4163C22.4656 13.4163 22.5171 13.4163 22.5686 13.4163Z" fill="#1D211F"/>
<path fill-rule="evenodd" clip-rule="evenodd" d="M22.414 13.5708C22.414 13.6223 22.414 13.6738 22.414 13.7253C22.3625 13.7253 22.311 13.7253 22.2595 13.7253C22.2595 13.6738 22.2595 13.6223 22.2595 13.5708C22.311 13.5708 22.3625 13.5708 22.414 13.5708Z" fill="#1D211F"/>
<path fill-rule="evenodd" clip-rule="evenodd" d="M24.1653 13.7253C24.2168 13.7253 24.2683 13.7253 24.3198 13.7253C24.3198 14.6352 24.3198 15.545 24.3198 16.4549C24.2683 16.4549 24.2168 16.4549 24.1653 16.4549C24.1653 15.545 24.1653 14.6352 24.1653 13.7253Z" fill="#E341D2" fill-opacity="0.0666667"/>
<path fill-rule="evenodd" clip-rule="evenodd" d="M22.2597 13.7253C22.2525 13.809 22.2868 13.869 22.3627 13.9056C22.2075 13.9524 22.053 13.9953 21.8992 14.0343C21.8992 13.9828 21.8992 13.9313 21.8992 13.8798C21.9507 13.8798 22.0022 13.8798 22.0537 13.8798C22.0537 13.8283 22.0537 13.7768 22.0537 13.7253C22.1223 13.7253 22.191 13.7253 22.2597 13.7253Z" fill="#1D211F"/>
<path fill-rule="evenodd" clip-rule="evenodd" d="M21.5901 14.2403C21.5901 14.2918 21.5901 14.3433 21.5901 14.3948C21.5386 14.3948 21.487 14.3948 21.4355 14.3948C21.4355 14.3433 21.4355 14.2918 21.4355 14.2403C21.487 14.2403 21.5386 14.2403 21.5901 14.2403Z" fill="#1D211F"/>
<path fill-rule="evenodd" clip-rule="evenodd" d="M21.4355 14.3949C21.4355 14.4464 21.4355 14.4979 21.4355 14.5494C21.384 14.5494 21.3325 14.5494 21.281 14.5494C21.281 14.4979 21.281 14.4464 21.281 14.3949C21.3325 14.3949 21.384 14.3949 21.4355 14.3949Z" fill="#1D211F"/>
<path fill-rule="evenodd" clip-rule="evenodd" d="M20.6115 15.0129C20.6115 15.0644 20.6115 15.1159 20.6115 15.1674C20.56 15.1674 20.5085 15.1674 20.457 15.1674C20.457 15.1159 20.457 15.0644 20.457 15.0129C20.5085 15.0129 20.56 15.0129 20.6115 15.0129Z" fill="#1D211F"/>
<path fill-rule="evenodd" clip-rule="evenodd" d="M20.1482 15.3219C20.1482 15.3734 20.1482 15.4249 20.1482 15.4764C20.0967 15.4764 20.0452 15.4764 19.9937 15.4764C19.9937 15.4249 19.9937 15.3734 19.9937 15.3219C20.0452 15.3219 20.0967 15.3219 20.1482 15.3219Z" fill="#1D211F"/>
<path fill-rule="evenodd" clip-rule="evenodd" d="M38.3799 15.8369C38.4708 15.7874 38.5738 15.7702 38.6889 15.7854C38.6889 15.8541 38.6889 15.9228 38.6889 15.9914C38.6374 15.9914 38.5859 15.9914 38.5344 15.9914C38.5344 15.9399 38.5344 15.8884 38.5344 15.8369C38.4829 15.8369 38.4314 15.8369 38.3799 15.8369Z" fill="#DD4855"/>
<path fill-rule="evenodd" clip-rule="evenodd" d="M38.6887 15.9914C38.7574 15.9914 38.8261 15.9914 38.8947 15.9914C38.8947 16.0429 38.8947 16.0944 38.8947 16.1459C38.8261 16.1459 38.7574 16.1459 38.6887 16.1459C38.6887 16.0944 38.6887 16.0429 38.6887 15.9914Z" fill="#1D211F"/>
<path fill-rule="evenodd" clip-rule="evenodd" d="M38.3798 15.8369C38.3798 16.1974 38.3798 16.5579 38.3798 16.9185C38.3283 16.9185 38.2768 16.9185 38.2253 16.9185C38.2253 16.5579 38.2253 16.1974 38.2253 15.8369C38.2768 15.8369 38.3283 15.8369 38.3798 15.8369Z" fill="#DE487D"/>
<path fill-rule="evenodd" clip-rule="evenodd" d="M19.9936 15.4764C19.9936 16.2833 19.9936 17.0901 19.9936 17.897C19.9421 17.897 19.8906 17.897 19.8391 17.897C19.8391 17.1073 19.8391 16.3176 19.8391 15.5279C19.8756 15.4813 19.9271 15.4642 19.9936 15.4764Z" fill="#1D211F"/>
<path fill-rule="evenodd" clip-rule="evenodd" d="M40.4915 17.073C40.5945 17.073 40.6975 17.073 40.8005 17.073C40.8005 17.1245 40.8005 17.176 40.8005 17.2275C40.6677 17.2298 40.5647 17.1783 40.4915 17.073Z" fill="#1D211F"/>
<path fill-rule="evenodd" clip-rule="evenodd" d="M16.2853 17.279C16.1223 17.2819 15.9678 17.3162 15.8218 17.382C15.8218 17.3305 15.8218 17.279 15.8218 17.2275C15.9873 17.2115 16.1418 17.2286 16.2853 17.279Z" fill="#1D211F"/>
<path fill-rule="evenodd" clip-rule="evenodd" d="M16.2853 17.279C16.3156 17.5092 16.2813 17.7152 16.1823 17.897C16.1651 17.897 16.1479 17.897 16.1308 17.897C16.1308 17.7425 16.1308 17.588 16.1308 17.4335C16.0278 17.4335 15.9248 17.4335 15.8218 17.4335C15.8218 17.4163 15.8218 17.3991 15.8218 17.382C15.9678 17.3162 16.1223 17.2819 16.2853 17.279Z" fill="#1D211F"/>
<path fill-rule="evenodd" clip-rule="evenodd" d="M15.5129 17.4335C15.5129 17.485 15.5129 17.5365 15.5129 17.588C15.4099 17.588 15.3069 17.588 15.2039 17.588C15.2039 17.5365 15.2039 17.485 15.2039 17.4335C15.3069 17.4335 15.4099 17.4335 15.5129 17.4335Z" fill="#1D211F"/>
<path fill-rule="evenodd" clip-rule="evenodd" d="M19.8391 15.5279C19.8391 16.3176 19.8391 17.1073 19.8391 17.897C19.8391 18.2232 19.8391 18.5494 19.8391 18.8755C19.8164 18.9963 19.7649 19.0993 19.6846 19.1845C19.7334 17.9576 19.7849 16.7387 19.8391 15.5279Z" fill="#E84B2B"/>
<path fill-rule="evenodd" clip-rule="evenodd" d="M15.822 17.382C15.822 17.3991 15.822 17.4163 15.822 17.4335C15.719 17.4335 15.616 17.4335 15.513 17.4335C15.41 17.4335 15.307 17.4335 15.204 17.4335C15.204 17.485 15.204 17.5365 15.204 17.588C14.998 17.588 14.7919 17.588 14.5859 17.588C14.6768 17.5385 14.7798 17.5213 14.895 17.5365C14.895 17.485 14.895 17.4335 14.895 17.382C15.204 17.382 15.513 17.382 15.822 17.382Z" fill="#DA483F"/>
<path fill-rule="evenodd" clip-rule="evenodd" d="M38.2253 16.9185C38.2768 16.9185 38.3283 16.9185 38.3798 16.9185C38.3798 17.1416 38.3798 17.3648 38.3798 17.588C38.3798 17.691 38.3798 17.794 38.3798 17.897C38.3283 17.897 38.2768 17.897 38.2253 17.897C38.2253 17.5708 38.2253 17.2446 38.2253 16.9185Z" fill="#1D211F"/>
<path fill-rule="evenodd" clip-rule="evenodd" d="M14.5344 17.588C14.5344 17.6395 14.5344 17.691 14.5344 17.7425C14.4314 17.7425 14.3283 17.7425 14.2253 17.7425C14.2253 17.691 14.2253 17.6395 14.2253 17.588C14.3283 17.588 14.4314 17.588 14.5344 17.588Z" fill="#CC4480"/>
<path fill-rule="evenodd" clip-rule="evenodd" d="M41.7275 17.588C41.7962 17.588 41.8649 17.588 41.9335 17.588C41.9335 17.6395 41.9335 17.691 41.9335 17.7425C41.8649 17.7425 41.7962 17.7425 41.7275 17.7425C41.7275 17.691 41.7275 17.6395 41.7275 17.588Z" fill="#1D211F"/>
<path fill-rule="evenodd" clip-rule="evenodd" d="M13.6074 17.7425C13.6074 17.794 13.6074 17.8455 13.6074 17.897C13.5043 17.897 13.4013 17.897 13.2983 17.897C13.2983 17.8455 13.2983 17.794 13.2983 17.7425C13.4013 17.7425 13.5043 17.7425 13.6074 17.7425Z" fill="#CD4561"/>
<path fill-rule="evenodd" clip-rule="evenodd" d="M27.2038 7.03004C27.2038 11.0301 27.2038 15.03 27.2038 19.03C27.1523 19.03 27.1008 19.03 27.0493 19.03C27.1258 15.0223 27.1774 11.0223 27.2038 7.03004Z" fill="#DF4A1E"/>
<path fill-rule="evenodd" clip-rule="evenodd" d="M12.4743 17.897C12.4743 17.9485 12.4743 18 12.4743 18.0515C12.3713 18.0515 12.2683 18.0515 12.1653 18.0515C12.1653 18 12.1653 17.9485 12.1653 17.897C12.2683 17.897 12.3713 17.897 12.4743 17.897Z" fill="#D34668"/>
<path fill-rule="evenodd" clip-rule="evenodd" d="M12.4741 17.897C12.6801 17.897 12.8861 17.897 13.0921 17.897C13.0921 17.9485 13.0921 18 13.0921 18.0515C12.8861 18.0515 12.6801 18.0515 12.4741 18.0515C12.4741 18 12.4741 17.9485 12.4741 17.897Z" fill="#1D211F"/>
<path fill-rule="evenodd" clip-rule="evenodd" d="M24.1138 11.9742C24.165 12.5487 24.1822 13.1324 24.1653 13.7253C24.1653 14.6352 24.1653 15.545 24.1653 16.4549C24.1653 16.9356 24.1653 17.4163 24.1653 17.897C24.1653 19.7167 24.1653 21.5365 24.1653 23.3562C24.1653 23.9399 24.1653 24.5236 24.1653 25.1073C24.1653 25.2103 24.1653 25.3133 24.1653 25.4163C24.1269 25.8406 24.0754 26.2697 24.0108 26.7039C24.0108 26.9099 24.0108 27.1159 24.0108 27.3219C24.0108 27.3734 24.0108 27.4249 24.0108 27.4764C23.9936 27.4764 23.9764 27.4764 23.9593 27.4764C23.9507 26.6178 23.9593 25.7595 23.985 24.9013C24.0009 24.8597 24.0266 24.8253 24.0623 24.7983C24.1138 20.5238 24.1309 16.2491 24.1138 11.9742Z" fill="#1D211F"/>
<path fill-rule="evenodd" clip-rule="evenodd" d="M24.1653 16.4549C24.2168 16.4549 24.2683 16.4549 24.3198 16.4549C24.3198 17.6738 24.3198 18.8927 24.3198 20.1116C24.3023 19.3633 24.2508 18.6251 24.1653 17.897C24.1653 17.4163 24.1653 16.9356 24.1653 16.4549Z" fill="#1D211F"/>
<path fill-rule="evenodd" clip-rule="evenodd" d="M11.3412 18.0515C11.3412 18.103 11.3412 18.1545 11.3412 18.206C11.1867 18.206 11.0322 18.206 10.8777 18.206C10.8777 18.1545 10.8777 18.103 10.8777 18.0515C11.0322 18.0515 11.1867 18.0515 11.3412 18.0515Z" fill="#D84681"/>
<path fill-rule="evenodd" clip-rule="evenodd" d="M11.3411 18.0515C11.4441 18.0515 11.5471 18.0515 11.6501 18.0515C11.6501 18.103 11.6501 18.1545 11.6501 18.206C11.5471 18.206 11.4441 18.206 11.3411 18.206C11.3411 18.1545 11.3411 18.103 11.3411 18.0515Z" fill="#1D211F"/>
<path fill-rule="evenodd" clip-rule="evenodd" d="M34.5171 12.9528C34.4999 17.2705 34.5171 21.5795 34.5686 25.8798C34.5686 26.0515 34.5686 26.2232 34.5686 26.3948C34.5686 26.7039 34.5686 27.0129 34.5686 27.3219C34.5686 27.6996 34.5686 28.0773 34.5686 28.4549C34.5342 27.8794 34.4999 27.2958 34.4656 26.7039C34.4484 24.412 34.4312 22.1202 34.4141 19.8283C34.4141 17.5191 34.4484 15.2272 34.5171 12.9528Z" fill="#1D211F"/>
<path fill-rule="evenodd" clip-rule="evenodd" d="M10.0536 18.206C10.0536 18.2575 10.0536 18.309 10.0536 18.3605C9.95064 18.3605 9.84763 18.3605 9.74463 18.3605C9.74463 18.309 9.74463 18.2575 9.74463 18.206C9.84763 18.206 9.95064 18.206 10.0536 18.206Z" fill="#1D211F"/>
<path fill-rule="evenodd" clip-rule="evenodd" d="M9.28103 18.3605C9.28103 18.3777 9.28103 18.3949 9.28103 18.412C8.95008 18.4102 8.62392 18.4445 8.30249 18.515C8.32211 18.4413 8.37361 18.3984 8.457 18.3863C8.73114 18.3606 9.0058 18.352 9.28103 18.3605Z" fill="#1D211F"/>
<path fill-rule="evenodd" clip-rule="evenodd" d="M9.28099 18.412C9.21949 18.4778 9.13369 18.5121 9.02348 18.515C8.35276 18.5585 7.68324 18.61 7.01489 18.6695C7.17187 18.5861 7.34353 18.5346 7.52991 18.515C7.78742 18.515 8.04494 18.515 8.30245 18.515C8.62387 18.4445 8.95003 18.4102 9.28099 18.412Z" fill="#1D211F"/>
<path fill-rule="evenodd" clip-rule="evenodd" d="M7.53012 18.515C7.34374 18.5346 7.17208 18.5861 7.0151 18.6695C6.9636 18.6695 6.9121 18.6695 6.8606 18.6695C6.8606 18.618 6.8606 18.5665 6.8606 18.515C7.08375 18.515 7.30696 18.515 7.53012 18.515Z" fill="#D24668"/>
<path fill-rule="evenodd" clip-rule="evenodd" d="M16.1308 18.515C16.1032 18.8421 16.0688 19.1682 16.0278 19.4936C16.0107 19.4936 15.9935 19.4936 15.9763 19.4936C15.9763 19.1674 15.9763 18.8412 15.9763 18.515C16.0278 18.515 16.0793 18.515 16.1308 18.515Z" fill="#1D211F"/>
<path fill-rule="evenodd" clip-rule="evenodd" d="M42.397 18.206C42.4485 18.206 42.5 18.206 42.5515 18.206C42.5515 18.4807 42.5515 18.7554 42.5515 19.03C42.5 19.03 42.4485 19.03 42.397 19.03C42.397 18.7554 42.397 18.4807 42.397 18.206Z" fill="#D44661"/>
<path fill-rule="evenodd" clip-rule="evenodd" d="M16.1308 17.897C16.148 17.897 16.1652 17.897 16.1823 17.897C16.1909 18.3265 16.1823 18.7557 16.1566 19.1846C16.1565 19.3159 16.1135 19.4189 16.0278 19.4936C16.0688 19.1682 16.1032 18.8421 16.1308 18.515C16.1308 18.309 16.1308 18.103 16.1308 17.897Z" fill="#DC4863"/>
<path fill-rule="evenodd" clip-rule="evenodd" d="M6.86056 19.03C6.86056 19.2361 6.86056 19.4421 6.86056 19.6481C6.80906 19.6481 6.75756 19.6481 6.70605 19.6481C6.70605 19.4421 6.70605 19.2361 6.70605 19.03C6.75756 19.03 6.80906 19.03 6.86056 19.03Z" fill="#DF495A"/>
<path fill-rule="evenodd" clip-rule="evenodd" d="M34.4141 12.5923C34.4656 12.5923 34.5171 12.5923 34.5686 12.5923C34.5686 17.0215 34.5686 21.4507 34.5686 25.8798C34.5171 21.5795 34.4999 17.2705 34.5171 12.9528C34.4682 12.8376 34.4338 12.7174 34.4141 12.5923Z" fill="#1D211F"/>
<path fill-rule="evenodd" clip-rule="evenodd" d="M19.8391 18.8755C19.8391 19.4077 19.8391 19.9399 19.8391 20.4721C19.7876 20.4721 19.7361 20.4721 19.6846 20.4721C19.6846 20.1974 19.6846 19.9227 19.6846 19.6481C19.6846 19.4936 19.6846 19.3391 19.6846 19.1845C19.7649 19.0993 19.8164 18.9963 19.8391 18.8755Z" fill="#D34583"/>
<path fill-rule="evenodd" clip-rule="evenodd" d="M24.1653 17.897C24.2508 18.6251 24.3023 19.3633 24.3198 20.1116C24.3198 21.1931 24.3198 22.2747 24.3198 23.3562C24.2683 23.3562 24.2168 23.3562 24.1653 23.3562C24.1653 21.5365 24.1653 19.7167 24.1653 17.897Z" fill="#1D211F"/>
<path fill-rule="evenodd" clip-rule="evenodd" d="M6.70605 19.6481C6.75756 19.6481 6.80906 19.6481 6.86056 19.6481C6.81931 20.0854 6.76781 20.5146 6.70605 20.9356C6.70605 20.5065 6.70605 20.0772 6.70605 19.6481Z" fill="#1D211F"/>
<path fill-rule="evenodd" clip-rule="evenodd" d="M15.9763 20.2661C15.9512 20.491 15.9169 20.7142 15.8733 20.9356C15.8855 21.0021 15.8684 21.0536 15.8218 21.0901C15.8133 20.8834 15.8219 20.6774 15.8476 20.4721C15.8538 20.3723 15.8967 20.3037 15.9763 20.2661Z" fill="#1D211F"/>
<path fill-rule="evenodd" clip-rule="evenodd" d="M15.9763 19.4936C15.9934 19.4936 16.0106 19.4936 16.0278 19.4936C16.0363 19.9231 16.0278 20.3523 16.002 20.7811C15.9899 20.8645 15.947 20.916 15.8733 20.9356C15.9169 20.7142 15.9512 20.491 15.9763 20.2661C15.9763 20.0086 15.9763 19.7511 15.9763 19.4936Z" fill="#1D211F"/>
<path fill-rule="evenodd" clip-rule="evenodd" d="M27.0493 19.03C27.1008 19.03 27.1523 19.03 27.2038 19.03C27.2038 19.5107 27.2038 19.9914 27.2038 20.4721C27.1863 21.1176 27.1348 21.7528 27.0493 22.3777C27.0493 21.2618 27.0493 20.1459 27.0493 19.03Z" fill="#1D211F"/>
<path fill-rule="evenodd" clip-rule="evenodd" d="M19.6846 20.4721C19.7361 20.4721 19.7876 20.4721 19.8391 20.4721C19.8391 20.8326 19.8391 21.1931 19.8391 21.5537C19.7876 21.5537 19.7361 21.5537 19.6846 21.5537C19.6846 21.1931 19.6846 20.8326 19.6846 20.4721Z" fill="#1D211F"/>
<path fill-rule="evenodd" clip-rule="evenodd" d="M6.70602 21.0901C6.70602 21.2961 6.70602 21.5021 6.70602 21.7081C6.65452 21.7081 6.60302 21.7081 6.55151 21.7081C6.55151 21.5021 6.55151 21.2961 6.55151 21.0901C6.60302 21.0901 6.65452 21.0901 6.70602 21.0901Z" fill="#E04872"/>
<path fill-rule="evenodd" clip-rule="evenodd" d="M15.822 21.2446C15.822 21.4678 15.822 21.691 15.822 21.9142C15.7705 21.9142 15.719 21.9142 15.6675 21.9142C15.6675 21.691 15.6675 21.4678 15.6675 21.2446C15.719 21.2446 15.7705 21.2446 15.822 21.2446Z" fill="#1D211F"/>
<path fill-rule="evenodd" clip-rule="evenodd" d="M38.3799 17.588C38.4142 18.0091 38.4485 18.4383 38.4829 18.8755C38.5515 20.7296 38.5515 22.5837 38.4829 24.4378C38.4485 24.5649 38.4141 24.6851 38.3799 24.7983C38.3799 22.4978 38.3799 20.1974 38.3799 17.897C38.3799 17.794 38.3799 17.691 38.3799 17.588Z" fill="#1D211F"/>
<path fill-rule="evenodd" clip-rule="evenodd" d="M6.55151 21.7082C6.60302 21.7082 6.65452 21.7082 6.70602 21.7082C6.70602 22.0343 6.70602 22.3605 6.70602 22.6867C6.65452 22.6867 6.60302 22.6867 6.55151 22.6867C6.55151 22.3605 6.55151 22.0343 6.55151 21.7082Z" fill="#1D211F"/>
<path fill-rule="evenodd" clip-rule="evenodd" d="M15.6675 21.9142C15.719 21.9142 15.7705 21.9142 15.822 21.9142C15.8452 22.1453 15.7937 22.3513 15.6675 22.5322C15.6675 22.3262 15.6675 22.1202 15.6675 21.9142Z" fill="#1D211F"/>
<path fill-rule="evenodd" clip-rule="evenodd" d="M42.397 19.03C42.4485 19.03 42.5 19.03 42.5515 19.03C42.5515 21.2103 42.5515 23.3906 42.5515 25.5708C42.5 25.5708 42.4485 25.5708 42.397 25.5708C42.397 23.3906 42.397 21.2103 42.397 19.03Z" fill="#1D211F"/>
<path fill-rule="evenodd" clip-rule="evenodd" d="M27.2038 20.4721C27.2038 21.794 27.2038 23.1159 27.2038 24.4378C27.1523 24.4378 27.1008 24.4378 27.0493 24.4378C27.0493 23.7511 27.0493 23.0644 27.0493 22.3777C27.1348 21.7528 27.1863 21.1176 27.2038 20.4721Z" fill="#1D211F"/>
<path fill-rule="evenodd" clip-rule="evenodd" d="M19.6846 21.5536C19.7361 21.5536 19.7876 21.5536 19.8391 21.5536C19.8391 21.9828 19.8391 22.412 19.8391 22.8412C19.7876 22.8412 19.7361 22.8412 19.6846 22.8412C19.6846 22.412 19.6846 21.9828 19.6846 21.5536Z" fill="#1D211F"/>
<path fill-rule="evenodd" clip-rule="evenodd" d="M38.3799 15.8369C38.4314 15.8369 38.4829 15.8369 38.5344 15.8369C38.5344 15.8884 38.5344 15.9399 38.5344 15.9914C38.466 16.2293 38.4317 16.4868 38.4314 16.764C38.4485 17.0215 38.4657 17.279 38.4829 17.5365C38.5185 17.5094 38.5443 17.4751 38.5601 17.4335C38.5945 19.8197 38.5945 22.206 38.5601 24.5923C38.4728 25.2499 38.4128 25.9022 38.3799 26.5494C38.3799 26.2232 38.3799 25.897 38.3799 25.5708C38.3799 25.3648 38.3799 25.1588 38.3799 24.9528C38.3799 24.9013 38.3799 24.8498 38.3799 24.7983C38.4141 24.6851 38.4485 24.5649 38.4829 24.4378C38.5515 22.5837 38.5515 20.7296 38.4829 18.8755C38.4485 18.4383 38.4142 18.0091 38.3799 17.588C38.3799 17.3648 38.3799 17.1416 38.3799 16.9185C38.3799 16.5579 38.3799 16.1974 38.3799 15.8369Z" fill="#1D211F"/>
<path fill-rule="evenodd" clip-rule="evenodd" d="M15.6674 23.2017C15.6674 23.5622 15.6674 23.9228 15.6674 24.2833C15.6159 24.2833 15.5644 24.2833 15.5129 24.2833C15.5129 23.9228 15.5129 23.5622 15.5129 23.2017C15.5644 23.2017 15.6159 23.2017 15.6674 23.2017Z" fill="#1D211F"/>
<path fill-rule="evenodd" clip-rule="evenodd" d="M19.6845 19.6481C19.6845 19.9227 19.6845 20.1974 19.6845 20.4721C19.6845 20.8326 19.6845 21.1931 19.6845 21.5537C19.6845 21.9828 19.6845 22.412 19.6845 22.8412C19.6845 23.5451 19.6845 24.2489 19.6845 24.9528C19.6673 24.9528 19.6501 24.9528 19.633 24.9528C19.5316 25.3614 19.4973 25.7905 19.53 26.2403C19.53 26.4464 19.53 26.6524 19.53 26.8584C19.53 27.442 19.53 28.0258 19.53 28.6094C19.53 28.9356 19.53 29.2618 19.53 29.588C19.4785 29.588 19.427 29.588 19.3755 29.588C19.3755 29.9485 19.3755 30.309 19.3755 30.6695C19.3583 30.6695 19.3411 30.6695 19.324 30.6695C19.324 30.1889 19.324 29.7081 19.324 29.2275C19.3755 29.2275 19.427 29.2275 19.4785 29.2275C19.4699 27.7853 19.4785 26.3432 19.5042 24.9013C19.5981 23.1433 19.6582 21.3922 19.6845 19.6481Z" fill="#1D211F"/>
<path fill-rule="evenodd" clip-rule="evenodd" d="M15.5129 24.2833C15.5644 24.2833 15.6159 24.2833 15.6674 24.2833C15.6674 24.4378 15.6674 24.5923 15.6674 24.7468C15.6159 24.7468 15.5644 24.7468 15.5129 24.7468C15.5129 24.5923 15.5129 24.4378 15.5129 24.2833Z" fill="#E3491D" fill-opacity="0.129412"/>
<path fill-rule="evenodd" clip-rule="evenodd" d="M24.1653 23.3562C24.2168 23.3562 24.2683 23.3562 24.3198 23.3562C24.3198 23.9399 24.3198 24.5236 24.3198 25.1073C24.2683 25.1073 24.2168 25.1073 24.1653 25.1073C24.1653 24.5236 24.1653 23.9399 24.1653 23.3562Z" fill="#E2491D" fill-opacity="0.129412"/>
<path fill-rule="evenodd" clip-rule="evenodd" d="M6.55148 24.4378C6.55148 24.6609 6.55148 24.8841 6.55148 25.1073C6.49998 25.1073 6.44847 25.1073 6.39697 25.1073C6.39697 24.8841 6.39697 24.6609 6.39697 24.4378C6.44847 24.4378 6.49998 24.4378 6.55148 24.4378Z" fill="#D5465D"/>
<path fill-rule="evenodd" clip-rule="evenodd" d="M38.3798 24.9528C38.3798 25.1588 38.3798 25.3648 38.3798 25.5708C38.2995 25.6561 38.248 25.7591 38.2253 25.8798C38.2253 25.5708 38.2253 25.2618 38.2253 24.9528C38.2768 24.9528 38.3283 24.9528 38.3798 24.9528Z" fill="#1D211F"/>
<path fill-rule="evenodd" clip-rule="evenodd" d="M19.633 24.9528C19.6657 25.4026 19.6314 25.8318 19.53 26.2403C19.4973 25.7905 19.5317 25.3614 19.633 24.9528Z" fill="#DA4850"/>
<path fill-rule="evenodd" clip-rule="evenodd" d="M19.633 24.9528C19.6502 24.9528 19.6674 24.9528 19.6845 24.9528C19.6845 25.588 19.6845 26.2232 19.6845 26.8584C19.633 26.8584 19.5815 26.8584 19.53 26.8584C19.53 26.6524 19.53 26.4464 19.53 26.2403C19.6314 25.8318 19.6657 25.4026 19.633 24.9528Z" fill="#1D211F"/>
<path fill-rule="evenodd" clip-rule="evenodd" d="M42.397 25.5708C42.4485 25.5708 42.5 25.5708 42.5515 25.5708C42.5515 25.7253 42.5515 25.8798 42.5515 26.0343C42.5 26.0343 42.4485 26.0343 42.397 26.0343C42.397 25.8798 42.397 25.7253 42.397 25.5708Z" fill="#CD447C"/>
<path fill-rule="evenodd" clip-rule="evenodd" d="M27.2039 25.5708C27.2554 25.5708 27.3069 25.5708 27.3584 25.5708C27.3584 25.897 27.3584 26.2232 27.3584 26.5494C27.3069 26.5494 27.2554 26.5494 27.2039 26.5494C27.2039 26.2232 27.2039 25.897 27.2039 25.5708Z" fill="#1D211F"/>
<path fill-rule="evenodd" clip-rule="evenodd" d="M6.39697 25.1073C6.44847 25.1073 6.49998 25.1073 6.55148 25.1073C6.55148 25.485 6.55148 25.8627 6.55148 26.2403C6.49998 26.2403 6.44847 26.2403 6.39697 26.2403C6.39697 25.8627 6.39697 25.485 6.39697 25.1073Z" fill="#1D211F"/>
<path fill-rule="evenodd" clip-rule="evenodd" d="M38.3798 25.5708C38.3798 25.897 38.3798 26.2232 38.3798 26.5494C38.2995 26.6346 38.248 26.7376 38.2253 26.8584C38.2253 26.5322 38.2253 26.206 38.2253 25.8798C38.248 25.7591 38.2995 25.6561 38.3798 25.5708Z" fill="#1D211F"/>
<path fill-rule="evenodd" clip-rule="evenodd" d="M15.5129 25.5708C15.5129 25.7768 15.5129 25.9828 15.5129 26.1888C15.4614 26.1888 15.4099 26.1888 15.3584 26.1888C15.3584 25.9828 15.3584 25.7768 15.3584 25.5708C15.4099 25.5708 15.4614 25.5708 15.5129 25.5708Z" fill="#1D211F"/>
<path fill-rule="evenodd" clip-rule="evenodd" d="M24.1652 25.4163C24.1652 25.8455 24.1652 26.2747 24.1652 26.7039C24.1137 26.7039 24.0622 26.7039 24.0107 26.7039C24.0753 26.2697 24.1268 25.8406 24.1652 25.4163Z" fill="#1D211F"/>
<path fill-rule="evenodd" clip-rule="evenodd" d="M15.3584 26.1888C15.4099 26.1888 15.4614 26.1888 15.5129 26.1888C15.5129 26.412 15.5129 26.6352 15.5129 26.8584C15.4614 26.8584 15.4099 26.8584 15.3584 26.8584C15.3584 26.6352 15.3584 26.412 15.3584 26.1888Z" fill="#1D211F"/>
<path fill-rule="evenodd" clip-rule="evenodd" d="M34.5686 26.3949C34.6201 26.3949 34.6716 26.3949 34.7231 26.3949C34.7231 26.7039 34.7231 27.0129 34.7231 27.3219C34.6716 27.3219 34.6201 27.3219 34.5686 27.3219C34.5686 27.0129 34.5686 26.7039 34.5686 26.3949Z" fill="#1D211F"/>
<path fill-rule="evenodd" clip-rule="evenodd" d="M42.3969 26.8584C42.3969 26.9614 42.3969 27.0644 42.3969 27.1674C42.3454 27.1674 42.2939 27.1674 42.2424 27.1674C42.2424 27.0644 42.2424 26.9614 42.2424 26.8584C42.2939 26.8584 42.3454 26.8584 42.3969 26.8584Z" fill="#1D211F"/>
<path fill-rule="evenodd" clip-rule="evenodd" d="M24.0107 26.7039C24.0622 26.7039 24.1137 26.7039 24.1652 26.7039C24.1652 26.9099 24.1652 27.1159 24.1652 27.3219C24.1137 27.3219 24.0622 27.3219 24.0107 27.3219C24.0107 27.1159 24.0107 26.9099 24.0107 26.7039Z" fill="#DE4941"/>
<path fill-rule="evenodd" clip-rule="evenodd" d="M42.2424 27.1674C42.2939 27.1674 42.3454 27.1674 42.3969 27.1674C42.3969 27.3219 42.3969 27.4764 42.3969 27.6309C42.3454 27.6309 42.2939 27.6309 42.2424 27.6309C42.2424 27.4764 42.2424 27.3219 42.2424 27.1674Z" fill="#CF4589"/>
<path fill-rule="evenodd" clip-rule="evenodd" d="M15.3583 27.1674C15.3583 27.4936 15.3583 27.8198 15.3583 28.1459C15.3068 28.1459 15.2553 28.1459 15.2038 28.1459C15.1869 27.8691 15.2041 27.5944 15.2553 27.3219C15.2901 27.2651 15.3244 27.2136 15.3583 27.1674Z" fill="#1D211F"/>
<path fill-rule="evenodd" clip-rule="evenodd" d="M27.3584 27.3219C27.4099 27.3219 27.4614 27.3219 27.5129 27.3219C27.5129 27.4764 27.5129 27.6309 27.5129 27.7854C27.4614 27.7854 27.4099 27.7854 27.3584 27.7854C27.3584 27.6309 27.3584 27.4764 27.3584 27.3219Z" fill="#1D211F"/>
<path fill-rule="evenodd" clip-rule="evenodd" d="M38.2253 27.4764C38.2421 27.7022 38.2249 27.9253 38.1738 28.1459C38.139 28.2027 38.1047 28.2542 38.0708 28.3004C38.0708 28.0258 38.0708 27.751 38.0708 27.4764C38.1223 27.4764 38.1738 27.4764 38.2253 27.4764Z" fill="#1D211F"/>
<path fill-rule="evenodd" clip-rule="evenodd" d="M19.53 26.8584C19.5815 26.8584 19.633 26.8584 19.6845 26.8584C19.6931 27.3908 19.6845 27.923 19.6588 28.4549C19.6466 28.5383 19.6037 28.5898 19.53 28.6094C19.53 28.0258 19.53 27.442 19.53 26.8584Z" fill="#1D211F"/>
<path fill-rule="evenodd" clip-rule="evenodd" d="M23.9592 27.8369C23.9584 28.1506 23.924 28.4596 23.8562 28.764C23.8391 28.764 23.8219 28.764 23.8047 28.764C23.7962 28.5059 23.8048 28.2484 23.8305 27.9914C23.8426 27.908 23.8855 27.8565 23.9592 27.8369Z" fill="#1D211F"/>
<path fill-rule="evenodd" clip-rule="evenodd" d="M34.5686 27.3219C34.6201 27.3219 34.6716 27.3219 34.7231 27.3219C34.7231 27.7511 34.7231 28.1803 34.7231 28.6095C34.6922 28.5374 34.6407 28.4858 34.5686 28.4549C34.5686 28.0773 34.5686 27.6996 34.5686 27.3219Z" fill="#1D211F"/>
<path fill-rule="evenodd" clip-rule="evenodd" d="M6.39697 26.2403C6.44847 26.2403 6.49998 26.2403 6.55148 26.2403C6.55148 27.5622 6.55148 28.8841 6.55148 30.206C6.49998 30.206 6.44847 30.206 6.39697 30.206C6.39697 28.8841 6.39697 27.5622 6.39697 26.2403Z" fill="#1D211F"/>
<path fill-rule="evenodd" clip-rule="evenodd" d="M42.2424 28.3004C42.2424 28.4034 42.2424 28.5064 42.2424 28.6094C42.1909 28.6094 42.1394 28.6094 42.0879 28.6094C42.0879 28.5064 42.0879 28.4034 42.0879 28.3004C42.1394 28.3004 42.1909 28.3004 42.2424 28.3004Z" fill="#D24567"/>
<path fill-rule="evenodd" clip-rule="evenodd" d="M15.2039 28.1459C15.2554 28.1459 15.3069 28.1459 15.3584 28.1459C15.3584 28.3519 15.3584 28.558 15.3584 28.764C15.3069 28.764 15.2554 28.764 15.2039 28.764C15.2039 28.558 15.2039 28.3519 15.2039 28.1459Z" fill="#D0455C"/>
<path fill-rule="evenodd" clip-rule="evenodd" d="M23.9592 27.4764C23.9764 27.4764 23.9936 27.4764 24.0107 27.4764C24.0107 27.9055 24.0107 28.3348 24.0107 28.7639C23.9592 28.7639 23.9077 28.7639 23.8562 28.7639C23.924 28.4596 23.9584 28.1505 23.9592 27.8369C23.9592 27.7167 23.9592 27.5965 23.9592 27.4764Z" fill="#D04561"/>
<path fill-rule="evenodd" clip-rule="evenodd" d="M27.5129 28.4549C27.5644 28.4549 27.6159 28.4549 27.6674 28.4549C27.6674 28.5579 27.6674 28.6609 27.6674 28.7639C27.6159 28.7639 27.5644 28.7639 27.5129 28.7639C27.5129 28.6609 27.5129 28.5579 27.5129 28.4549Z" fill="#D84752"/>
<path fill-rule="evenodd" clip-rule="evenodd" d="M42.0879 28.7639C42.0879 28.9185 42.0879 29.073 42.0879 29.2275C42.0364 29.2275 41.9849 29.2275 41.9334 29.2275C41.9244 29.0481 41.976 28.8936 42.0879 28.7639Z" fill="#1D211F"/>
<path fill-rule="evenodd" clip-rule="evenodd" d="M27.6675 29.073C27.719 29.073 27.7705 29.073 27.822 29.073C27.822 29.1931 27.822 29.3133 27.822 29.4335C27.7705 29.4335 27.719 29.4335 27.6675 29.4335C27.6675 29.3133 27.6675 29.1931 27.6675 29.073Z" fill="#1D211F"/>
<path fill-rule="evenodd" clip-rule="evenodd" d="M38.0708 29.073C38.0708 29.1931 38.0708 29.3133 38.0708 29.4335C38.0193 29.4335 37.9678 29.4335 37.9163 29.4335C37.9163 29.3133 37.9163 29.1931 37.9163 29.073C37.9678 29.073 38.0193 29.073 38.0708 29.073Z" fill="#1D211F"/>
<path fill-rule="evenodd" clip-rule="evenodd" d="M34.5686 28.4549C34.6407 28.4858 34.6922 28.5373 34.7231 28.6094C34.7231 28.9356 34.7231 29.2618 34.7231 29.588C34.6281 29.223 34.5766 28.8453 34.5686 28.4549Z" fill="#1D211F"/>
<path fill-rule="evenodd" clip-rule="evenodd" d="M23.8047 28.7639C23.8218 28.7639 23.839 28.7639 23.8562 28.7639C23.8647 29.142 23.8562 29.5197 23.8304 29.897C23.8183 29.9804 23.7754 30.0319 23.7017 30.0515C23.7412 29.6228 23.7755 29.1936 23.8047 28.7639Z" fill="#1D211F"/>
<path fill-rule="evenodd" clip-rule="evenodd" d="M27.8218 29.4335C27.903 29.6268 27.9545 29.8328 27.9763 30.0515C27.9248 30.0515 27.8733 30.0515 27.8218 30.0515C27.8218 29.8455 27.8218 29.6395 27.8218 29.4335Z" fill="#1D211F"/>
<path fill-rule="evenodd" clip-rule="evenodd" d="M34.7231 29.588C34.7746 29.588 34.8261 29.588 34.8777 29.588C34.8777 29.8455 34.8777 30.103 34.8777 30.3605C34.855 30.2398 34.8035 30.1368 34.7231 30.0515C34.7231 29.897 34.7231 29.7425 34.7231 29.588Z" fill="#D0447F"/>
<path fill-rule="evenodd" clip-rule="evenodd" d="M41.9336 29.4335C41.9336 29.6395 41.9336 29.8455 41.9336 30.0515C41.8821 30.0515 41.8306 30.0515 41.7791 30.0515C41.8423 29.8436 41.8938 29.6376 41.9336 29.4335Z" fill="#1D211F"/>
<path fill-rule="evenodd" clip-rule="evenodd" d="M37.9162 29.897C37.9162 30 37.9162 30.103 37.9162 30.206C37.8647 30.206 37.8132 30.206 37.7617 30.206C37.7617 30.103 37.7617 30 37.7617 29.897C37.8132 29.897 37.8647 29.897 37.9162 29.897Z" fill="#DD4867"/>
<path fill-rule="evenodd" clip-rule="evenodd" d="M15.2038 29.588C15.2038 29.8455 15.2038 30.103 15.2038 30.3605C15.1523 30.3605 15.1008 30.3605 15.0493 30.3605C15.0188 30.0788 15.0703 29.8213 15.2038 29.588Z" fill="#1D211F"/>
<path fill-rule="evenodd" clip-rule="evenodd" d="M6.39697 30.206C6.44847 30.206 6.49998 30.206 6.55148 30.206C6.55148 30.5322 6.55148 30.8584 6.55148 31.1845C6.49998 31.1845 6.44847 31.1845 6.39697 31.1845C6.39697 30.8584 6.39697 30.5322 6.39697 30.206Z" fill="#1D211F"/>
<path fill-rule="evenodd" clip-rule="evenodd" d="M19.53 29.588C19.5385 29.8975 19.5299 30.2065 19.5042 30.515C19.4921 30.5984 19.4492 30.6499 19.3755 30.6695C19.3755 30.309 19.3755 29.9485 19.3755 29.588C19.427 29.588 19.4785 29.588 19.53 29.588Z" fill="#1D211F"/>
<path fill-rule="evenodd" clip-rule="evenodd" d="M34.7232 30.0515C34.8035 30.1368 34.855 30.2398 34.8777 30.3605C34.8777 30.4635 34.8777 30.5665 34.8777 30.6695C34.7515 30.4887 34.7 30.2827 34.7232 30.0515Z" fill="#1D211F"/>
<path fill-rule="evenodd" clip-rule="evenodd" d="M37.7617 30.206C37.8132 30.206 37.8647 30.206 37.9162 30.206C37.9162 30.309 37.9162 30.412 37.9162 30.515C37.8647 30.515 37.8132 30.515 37.7617 30.515C37.7617 30.412 37.7617 30.309 37.7617 30.206Z" fill="#1D211F"/>
<path fill-rule="evenodd" clip-rule="evenodd" d="M23.6501 30.3605C23.6065 30.5819 23.5722 30.8051 23.5471 31.03C23.53 31.03 23.5128 31.03 23.4956 31.03C23.4871 30.8575 23.4957 30.6858 23.5214 30.515C23.5335 30.4316 23.5764 30.3801 23.6501 30.3605Z" fill="#1D211F"/>
<path fill-rule="evenodd" clip-rule="evenodd" d="M27.9763 30.0515C28.0462 30.1439 28.1063 30.2469 28.1566 30.3605C28.1703 30.5919 28.2132 30.8151 28.2853 31.0301C28.2338 31.0301 28.1823 31.0301 28.1308 31.0301C28.1186 30.6949 28.0671 30.3687 27.9763 30.0515Z" fill="#1D211F"/>
<path fill-rule="evenodd" clip-rule="evenodd" d="M41.779 30.0515C41.779 30.2575 41.779 30.4635 41.779 30.6695C41.7275 30.6695 41.676 30.6695 41.6245 30.6695C41.6878 30.4617 41.7393 30.2557 41.779 30.0515Z" fill="#DC4852"/>
<path fill-rule="evenodd" clip-rule="evenodd" d="M23.7016 30.0515C23.7016 30.3777 23.7016 30.7039 23.7016 31.0301C23.6501 31.0301 23.5986 31.0301 23.5471 31.0301C23.5722 30.8051 23.6065 30.5819 23.6501 30.3605C23.6349 30.2454 23.6521 30.1424 23.7016 30.0515Z" fill="#1D211F"/>
<path fill-rule="evenodd" clip-rule="evenodd" d="M41.573 30.8755C41.573 30.9271 41.573 30.9786 41.573 31.0301C41.5215 31.0301 41.47 31.0301 41.4185 31.0301C41.4185 30.9786 41.4185 30.9271 41.4185 30.8755C41.47 30.8755 41.5215 30.8755 41.573 30.8755Z" fill="#1D211F"/>
<path fill-rule="evenodd" clip-rule="evenodd" d="M15.0493 30.3605C15.1008 30.3605 15.1523 30.3605 15.2038 30.3605C15.2038 30.6352 15.2038 30.9099 15.2038 31.1845C15.1523 31.1845 15.1008 31.1845 15.0493 31.1845C15.0493 30.9099 15.0493 30.6352 15.0493 30.3605Z" fill="#1D211F"/>
<path fill-rule="evenodd" clip-rule="evenodd" d="M37.7617 30.8755C37.7617 30.9786 37.7617 31.0816 37.7617 31.1846C37.7102 31.1846 37.6587 31.1846 37.6072 31.1846C37.6072 31.0816 37.6072 30.9786 37.6072 30.8755C37.6587 30.8755 37.7102 30.8755 37.7617 30.8755Z" fill="#1D211F"/>
<path fill-rule="evenodd" clip-rule="evenodd" d="M19.324 30.8755C19.2896 31.0816 19.2553 31.2876 19.221 31.4936C19.2373 31.71 19.2201 31.916 19.1695 32.1116C19.1609 31.7507 19.1695 31.3902 19.1952 31.0301C19.2074 30.9467 19.2503 30.8952 19.324 30.8755Z" fill="#DB4854"/>
<path fill-rule="evenodd" clip-rule="evenodd" d="M19.324 30.6695C19.3411 30.6695 19.3583 30.6695 19.3755 30.6695C19.3755 30.9442 19.3755 31.2189 19.3755 31.4936C19.324 31.4936 19.2724 31.4936 19.2209 31.4936C19.2553 31.2876 19.2896 31.0815 19.324 30.8755C19.324 30.8069 19.324 30.7382 19.324 30.6695Z" fill="#1D211F"/>
<path fill-rule="evenodd" clip-rule="evenodd" d="M23.4956 31.1845C23.4956 31.2875 23.4956 31.3905 23.4956 31.4936C23.4441 31.4936 23.3926 31.4936 23.3411 31.4936C23.3411 31.3905 23.3411 31.2875 23.3411 31.1845C23.3926 31.1845 23.4441 31.1845 23.4956 31.1845Z" fill="#1D211F"/>
<path fill-rule="evenodd" clip-rule="evenodd" d="M28.2854 31.03C28.332 31.0665 28.3491 31.118 28.3369 31.1845C28.3884 31.1845 28.4399 31.1845 28.4914 31.1845C28.4914 31.2875 28.4914 31.3905 28.4914 31.4935C28.4399 31.4935 28.3884 31.4935 28.3369 31.4935C28.303 31.3414 28.2858 31.1869 28.2854 31.03Z" fill="#1D211F"/>
<path fill-rule="evenodd" clip-rule="evenodd" d="M34.8777 31.03C34.9292 31.03 34.9807 31.03 35.0322 31.03C35.0322 31.133 35.0322 31.236 35.0322 31.339C34.9807 31.339 34.9292 31.339 34.8777 31.339C34.8777 31.236 34.8777 31.133 34.8777 31.03Z" fill="#1D211F"/>
<path fill-rule="evenodd" clip-rule="evenodd" d="M6.39697 31.1845C6.44847 31.1845 6.49998 31.1845 6.55148 31.1845C6.55148 31.2875 6.55148 31.3905 6.55148 31.4936C6.49998 31.4936 6.44847 31.4936 6.39697 31.4936C6.39697 31.3905 6.39697 31.2875 6.39697 31.1845Z" fill="#D64757"/>
<path fill-rule="evenodd" clip-rule="evenodd" d="M28.4915 31.6481C28.543 31.6481 28.5945 31.6481 28.646 31.6481C28.646 31.7511 28.646 31.8541 28.646 31.9571C28.5702 31.8687 28.5187 31.7657 28.4915 31.6481Z" fill="#1D211F"/>
<path fill-rule="evenodd" clip-rule="evenodd" d="M15.0493 31.1845C15.1008 31.1845 15.1523 31.1845 15.2038 31.1845C15.2038 31.4936 15.2038 31.8026 15.2038 32.1116C15.1523 32.1116 15.1008 32.1116 15.0493 32.1116C15.0493 31.8026 15.0493 31.4936 15.0493 31.1845Z" fill="#E1494B"/>
<path fill-rule="evenodd" clip-rule="evenodd" d="M35.0322 31.6481C35.0837 31.6481 35.1352 31.6481 35.1867 31.6481C35.1867 31.7511 35.1867 31.8541 35.1867 31.9571C35.1352 31.9571 35.0837 31.9571 35.0322 31.9571C35.0322 31.8541 35.0322 31.7511 35.0322 31.6481Z" fill="#DD4865"/>
<path fill-rule="evenodd" clip-rule="evenodd" d="M37.6074 31.6481C37.6074 31.7511 37.6074 31.8541 37.6074 31.9571C37.5559 31.9571 37.5044 31.9571 37.4529 31.9571C37.4529 31.8541 37.4529 31.7511 37.4529 31.6481C37.5044 31.6481 37.5559 31.6481 37.6074 31.6481Z" fill="#1D211F"/>
<path fill-rule="evenodd" clip-rule="evenodd" d="M41.2639 31.8026C41.2639 31.8541 41.2639 31.9056 41.2639 31.9571C41.2124 31.9571 41.1609 31.9571 41.1094 31.9571C41.1094 31.9056 41.1094 31.8541 41.1094 31.8026C41.1609 31.8026 41.2124 31.8026 41.2639 31.8026Z" fill="#1D211F"/>
<path fill-rule="evenodd" clip-rule="evenodd" d="M23.3413 31.9571C23.3413 32.0601 23.3413 32.1631 23.3413 32.2661C23.2898 32.2661 23.2383 32.2661 23.1868 32.2661C23.1868 32.1631 23.1868 32.0601 23.1868 31.9571C23.2383 31.9571 23.2898 31.9571 23.3413 31.9571Z" fill="#1D211F"/>
<path fill-rule="evenodd" clip-rule="evenodd" d="M6.55151 32.1116C6.60302 32.1116 6.65452 32.1116 6.70602 32.1116C6.70602 32.2317 6.70602 32.3519 6.70602 32.4721C6.65452 32.4721 6.60302 32.4721 6.55151 32.4721C6.55151 32.3519 6.55151 32.2317 6.55151 32.1116Z" fill="#1D211F"/>
<path fill-rule="evenodd" clip-rule="evenodd" d="M19.1694 32.2661C19.1224 32.5994 19.0709 32.9256 19.0149 33.2447C19.0064 32.9866 19.015 32.7291 19.0407 32.4721C19.047 32.3724 19.0899 32.3037 19.1694 32.2661Z" fill="#1D211F"/>
<path fill-rule="evenodd" clip-rule="evenodd" d="M37.4528 32.1116C37.4528 32.2146 37.4528 32.3176 37.4528 32.4206C37.4013 32.4206 37.3498 32.4206 37.2983 32.4206C37.3121 32.5029 37.2949 32.5716 37.2468 32.6266C37.2081 32.4035 37.2768 32.2319 37.4528 32.1116Z" fill="#1D211F"/>
<path fill-rule="evenodd" clip-rule="evenodd" d="M40.9548 32.4721C40.9548 32.5236 40.9548 32.5751 40.9548 32.6266C40.9033 32.6266 40.8518 32.6266 40.8003 32.6266C40.8003 32.5751 40.8003 32.5236 40.8003 32.4721C40.8518 32.4721 40.9033 32.4721 40.9548 32.4721Z" fill="#1D211F"/>
<path fill-rule="evenodd" clip-rule="evenodd" d="M35.1868 32.3176C35.2383 32.3176 35.2898 32.3176 35.3413 32.3176C35.3413 32.4206 35.3413 32.5236 35.3413 32.6266C35.2898 32.6266 35.2383 32.6266 35.1868 32.6266C35.1868 32.5236 35.1868 32.4206 35.1868 32.3176Z" fill="#1D211F"/>
<path fill-rule="evenodd" clip-rule="evenodd" d="M6.55151 32.4721C6.60302 32.4721 6.65452 32.4721 6.70602 32.4721C6.70602 32.6266 6.70602 32.7811 6.70602 32.9356C6.65452 32.9356 6.60302 32.9356 6.55151 32.9356C6.55151 32.7811 6.55151 32.6266 6.55151 32.4721Z" fill="#D14587"/>
<path fill-rule="evenodd" clip-rule="evenodd" d="M40.8005 32.7811C40.8005 32.8326 40.8005 32.8841 40.8005 32.9356C40.749 32.9356 40.6975 32.9356 40.646 32.9356C40.646 32.8841 40.646 32.8326 40.646 32.7811C40.6975 32.7811 40.749 32.7811 40.8005 32.7811Z" fill="#1D211F"/>
<path fill-rule="evenodd" clip-rule="evenodd" d="M23.1867 32.7811C23.1867 32.8841 23.1867 32.9871 23.1867 33.0901C23.1352 33.0901 23.0837 33.0901 23.0322 33.0901C23.0322 32.9871 23.0322 32.8841 23.0322 32.7811C23.0837 32.7811 23.1352 32.7811 23.1867 32.7811Z" fill="#DE4865"/>
<path fill-rule="evenodd" clip-rule="evenodd" d="M37.0923 32.9356C37.065 33.0532 37.0135 33.1562 36.9377 33.2446C36.9377 33.1416 36.9377 33.0386 36.9377 32.9356C36.9892 32.9356 37.0407 32.9356 37.0923 32.9356Z" fill="#1D211F"/>
<path fill-rule="evenodd" clip-rule="evenodd" d="M40.646 33.0901C40.646 33.1416 40.646 33.1931 40.646 33.2446C40.5945 33.2446 40.543 33.2446 40.4915 33.2446C40.4915 33.1931 40.4915 33.1416 40.4915 33.0901C40.543 33.0901 40.5945 33.0901 40.646 33.0901Z" fill="#1D211F"/>
<path fill-rule="evenodd" clip-rule="evenodd" d="M40.4913 33.2446C40.4913 33.2961 40.4913 33.3476 40.4913 33.3991C40.4398 33.3991 40.3883 33.3991 40.3368 33.3991C40.3359 33.4795 40.3187 33.5567 40.2853 33.6309C40.1739 33.7723 40.0709 33.9183 39.9763 34.0687C39.9763 33.9485 39.9763 33.8283 39.9763 33.7081C40.0278 33.7081 40.0793 33.7081 40.1308 33.7081C40.1224 33.5698 40.131 33.4324 40.1566 33.2961C40.2617 33.2486 40.3733 33.2314 40.4913 33.2446Z" fill="#1D211F"/>
<path fill-rule="evenodd" clip-rule="evenodd" d="M6.70605 32.9356C6.83223 33.1165 6.88374 33.3225 6.86056 33.5536C6.80906 33.5536 6.75756 33.5536 6.70605 33.5536C6.70605 33.3476 6.70605 33.1416 6.70605 32.9356Z" fill="#1D211F"/>
<path fill-rule="evenodd" clip-rule="evenodd" d="M29.2639 33.2446C29.3154 33.2446 29.3669 33.2446 29.4184 33.2446C29.4184 33.2961 29.4184 33.3476 29.4184 33.3991C29.3669 33.3991 29.3154 33.3991 29.2639 33.3991C29.2639 33.3476 29.2639 33.2961 29.2639 33.2446Z" fill="#1D211F"/>
<path fill-rule="evenodd" clip-rule="evenodd" d="M19.0151 33.2446C18.9623 33.403 18.9108 33.5575 18.8606 33.7081C18.8606 33.5536 18.8606 33.3991 18.8606 33.2446C18.9121 33.2446 18.9636 33.2446 19.0151 33.2446Z" fill="#1D211F"/>
<path fill-rule="evenodd" clip-rule="evenodd" d="M36.0107 33.3991C36.2168 33.3991 36.4228 33.3991 36.6288 33.3991C36.6288 33.4506 36.6288 33.5021 36.6288 33.5536C36.4538 33.5701 36.2821 33.553 36.1137 33.5021C36.0755 33.467 36.0412 33.4327 36.0107 33.3991Z" fill="#1D211F"/>
<path fill-rule="evenodd" clip-rule="evenodd" d="M35.8562 33.3991C35.9077 33.3991 35.9592 33.3991 36.0107 33.3991C36.0411 33.4327 36.0754 33.467 36.1137 33.5021C36.282 33.553 36.4537 33.5701 36.6287 33.5536C36.4325 33.6126 36.2265 33.6212 36.0107 33.5794C35.9662 33.5094 35.9147 33.4493 35.8562 33.3991Z" fill="#1D211F"/>
<path fill-rule="evenodd" clip-rule="evenodd" d="M6.70605 33.5536C6.75756 33.5536 6.80906 33.5536 6.86056 33.5536C6.86056 33.6738 6.86056 33.794 6.86056 33.9142C6.80906 33.9142 6.75756 33.9142 6.70605 33.9142C6.70605 33.794 6.70605 33.6738 6.70605 33.5536Z" fill="#E14957"/>
<path fill-rule="evenodd" clip-rule="evenodd" d="M29.47 33.5536C29.5215 33.5536 29.573 33.5536 29.6245 33.5536C29.6349 33.6638 29.6864 33.7496 29.779 33.8112C29.8215 33.8568 29.873 33.8739 29.9335 33.8627C29.9335 33.9313 29.9335 34 29.9335 34.0687C29.8648 34.0687 29.7961 34.0687 29.7275 34.0687C29.6689 33.8829 29.5831 33.7112 29.47 33.5536Z" fill="#1D211F"/>
<path fill-rule="evenodd" clip-rule="evenodd" d="M18.8606 33.7596C18.8606 33.8626 18.8606 33.9657 18.8606 34.0687C18.8091 34.0687 18.7576 34.0687 18.7061 34.0687C18.7061 33.9657 18.7061 33.8626 18.7061 33.7596C18.7576 33.7596 18.8091 33.7596 18.8606 33.7596Z" fill="#DA4861"/>
<path fill-rule="evenodd" clip-rule="evenodd" d="M22.8777 33.7596C22.8777 33.8626 22.8777 33.9657 22.8777 34.0687C22.8261 34.0687 22.7746 34.0687 22.7231 34.0687C22.7231 33.9657 22.7231 33.8626 22.7231 33.7596C22.7746 33.7596 22.8261 33.7596 22.8777 33.7596Z" fill="#1D211F"/>
<path fill-rule="evenodd" clip-rule="evenodd" d="M39.9763 34.0687C39.9763 34.1202 39.9763 34.1717 39.9763 34.2232C39.9248 34.2232 39.8733 34.2232 39.8218 34.2232C39.8218 34.1717 39.8218 34.1202 39.8218 34.0687C39.8733 34.0687 39.9248 34.0687 39.9763 34.0687Z" fill="#1D211F"/>
<path fill-rule="evenodd" clip-rule="evenodd" d="M29.9333 34.2232C29.9849 34.2232 30.0364 34.2232 30.0879 34.2232C30.0879 34.2747 30.0879 34.3262 30.0879 34.3777C30.0364 34.3777 29.9849 34.3777 29.9333 34.3777C29.9333 34.3262 29.9333 34.2747 29.9333 34.2232Z" fill="#1D211F"/>
<path fill-rule="evenodd" clip-rule="evenodd" d="M6.8606 33.9142C6.91081 34.0648 6.96231 34.2193 7.0151 34.3777C6.9636 34.3777 6.9121 34.3777 6.8606 34.3777C6.8606 34.2232 6.8606 34.0687 6.8606 33.9142Z" fill="#1D211F"/>
<path fill-rule="evenodd" clip-rule="evenodd" d="M30.0879 34.3777C30.1394 34.3777 30.1909 34.3777 30.2424 34.3777C30.2424 34.4292 30.2424 34.4807 30.2424 34.5322C30.1909 34.5322 30.1394 34.5322 30.0879 34.5322C30.0879 34.4807 30.0879 34.4292 30.0879 34.3777Z" fill="#1D211F"/>
<path fill-rule="evenodd" clip-rule="evenodd" d="M18.706 34.5322C18.706 34.6352 18.706 34.7382 18.706 34.8412C18.6545 34.8412 18.603 34.8412 18.5515 34.8412C18.5515 34.7382 18.5515 34.6352 18.5515 34.5322C18.603 34.5322 18.6545 34.5322 18.706 34.5322Z" fill="#1D211F"/>
<path fill-rule="evenodd" clip-rule="evenodd" d="M39.2038 34.9957C39.1673 35.0423 39.1158 35.0594 39.0493 35.0472C39.0493 35.0987 39.0493 35.1502 39.0493 35.2017C38.9978 35.2017 38.9463 35.2017 38.8948 35.2017C38.962 35.1519 38.9964 35.0832 38.9978 34.9957C39.0664 34.9957 39.1351 34.9957 39.2038 34.9957Z" fill="#1D211F"/>
<path fill-rule="evenodd" clip-rule="evenodd" d="M22.414 34.9957C22.4224 35.1001 22.4138 35.2031 22.3883 35.3047C22.3537 35.3434 22.3108 35.3606 22.2595 35.3562C22.2985 35.2273 22.35 35.1071 22.414 34.9957Z" fill="#1D211F"/>
<path fill-rule="evenodd" clip-rule="evenodd" d="M38.8949 35.2017C38.8949 35.2532 38.8949 35.3047 38.8949 35.3562C38.7698 35.376 38.6496 35.4104 38.5344 35.4592C38.5344 35.4077 38.5344 35.3562 38.5344 35.3047C38.6496 35.2558 38.7698 35.2215 38.8949 35.2017Z" fill="#1D211F"/>
<path fill-rule="evenodd" clip-rule="evenodd" d="M18.3969 35.5107C18.3969 35.5622 18.3969 35.6137 18.3969 35.6652C18.3454 35.6652 18.2939 35.6652 18.2424 35.6652C18.2424 35.6137 18.2424 35.5622 18.2424 35.5107C18.2939 35.5107 18.3454 35.5107 18.3969 35.5107Z" fill="#1D211F"/>
<path fill-rule="evenodd" clip-rule="evenodd" d="M22.2082 35.4592C22.1976 35.6002 22.1461 35.7204 22.0537 35.8197C22.0537 35.6996 22.0537 35.5794 22.0537 35.4592C22.1052 35.4592 22.1567 35.4592 22.2082 35.4592Z" fill="#1D211F"/>
<path fill-rule="evenodd" clip-rule="evenodd" d="M38.5344 35.5107C38.5344 35.5622 38.5344 35.6137 38.5344 35.6652C38.4829 35.6652 38.4314 35.6652 38.3799 35.6652C38.3799 35.6137 38.3799 35.5622 38.3799 35.5107C38.4314 35.5107 38.4829 35.5107 38.5344 35.5107Z" fill="#D34666"/>
<path fill-rule="evenodd" clip-rule="evenodd" d="M31.1694 35.5107C31.2209 35.5107 31.2724 35.5107 31.3239 35.5107C31.3239 35.5622 31.3239 35.6137 31.3239 35.6652C31.2724 35.6652 31.2209 35.6652 31.1694 35.6652C31.1694 35.6137 31.1694 35.5622 31.1694 35.5107Z" fill="#D14563"/>
<path fill-rule="evenodd" clip-rule="evenodd" d="M7.01489 34.8412C7.08478 34.9336 7.14483 35.0366 7.19515 35.1502C7.2808 35.4199 7.34085 35.6946 7.37541 35.9742C7.32885 35.9377 7.3117 35.8862 7.32391 35.8197C7.2724 35.8197 7.2209 35.8197 7.1694 35.8197C7.1694 35.6652 7.1694 35.5107 7.1694 35.3562C7.1179 35.3562 7.06639 35.3562 7.01489 35.3562C7.01489 35.1846 7.01489 35.0128 7.01489 34.8412Z" fill="#1D211F"/>
<path fill-rule="evenodd" clip-rule="evenodd" d="M32.1479 36.1288C32.1995 36.1288 32.251 36.1288 32.3025 36.1288C32.3025 36.1803 32.3025 36.2318 32.3025 36.2833C32.251 36.2833 32.1995 36.2833 32.1479 36.2833C32.1479 36.2318 32.1479 36.1803 32.1479 36.1288Z" fill="#CF4571"/>
<path fill-rule="evenodd" clip-rule="evenodd" d="M18.0879 36.2833C18.0879 36.3348 18.0879 36.3863 18.0879 36.4378C18.0364 36.4378 17.9849 36.4378 17.9333 36.4378C17.9333 36.3863 17.9333 36.3348 17.9333 36.2833C17.9849 36.2833 18.0364 36.2833 18.0879 36.2833Z" fill="#1D211F"/>
<path fill-rule="evenodd" clip-rule="evenodd" d="M36.9377 36.2833C36.9377 36.3348 36.9377 36.3863 36.9377 36.4378C36.8862 36.4378 36.8347 36.4378 36.7832 36.4378C36.7832 36.3863 36.7832 36.3348 36.7832 36.2833C36.8347 36.2833 36.8862 36.2833 36.9377 36.2833Z" fill="#1D211F"/>
<path fill-rule="evenodd" clip-rule="evenodd" d="M15.0493 36.1288C15.1008 36.1288 15.1523 36.1288 15.2038 36.1288C15.2038 36.3348 15.2038 36.5408 15.2038 36.7468C15.1702 36.7163 15.1359 36.682 15.1008 36.6438C15.0499 36.4755 15.0328 36.3038 15.0493 36.1288Z" fill="#1D211F"/>
<path fill-rule="evenodd" clip-rule="evenodd" d="M32.9722 36.4893C33.1182 36.555 33.2727 36.5893 33.4357 36.5923C33.4357 36.6094 33.4357 36.6266 33.4357 36.6438C33.2812 36.6438 33.1267 36.6438 32.9722 36.6438C32.9722 36.5923 32.9722 36.5408 32.9722 36.4893Z" fill="#D44656"/>
<path fill-rule="evenodd" clip-rule="evenodd" d="M33.4355 36.6438C33.4355 36.6266 33.4355 36.6094 33.4355 36.5923C34.2939 36.5923 35.1523 36.5923 36.0107 36.5923C35.9741 36.6388 35.9226 36.656 35.8561 36.6438C35.0978 36.7734 34.3425 36.7734 33.5901 36.6438C33.5386 36.6438 33.487 36.6438 33.4355 36.6438Z" fill="#1D211F"/>
<path fill-rule="evenodd" clip-rule="evenodd" d="M33.5901 36.6438C34.3425 36.7733 35.0979 36.7733 35.8562 36.6438C35.8186 36.7233 35.7499 36.7662 35.6502 36.7725C34.9637 36.7983 34.277 36.8069 33.5901 36.7983C33.5901 36.7468 33.5901 36.6953 33.5901 36.6438Z" fill="#D0455B"/>
<path fill-rule="evenodd" clip-rule="evenodd" d="M17.9335 36.5923C17.9419 36.6967 17.9333 36.7997 17.9078 36.9013C17.8919 36.8597 17.8661 36.8253 17.8305 36.7983C17.7815 36.8779 17.7643 36.9637 17.779 37.0558C17.7039 37.0524 17.6352 37.0695 17.573 37.1073C17.5959 36.865 17.716 36.6934 17.9335 36.5923Z" fill="#1D211F"/>
<path fill-rule="evenodd" clip-rule="evenodd" d="M21.5901 36.7983C21.5901 36.8498 21.5901 36.9013 21.5901 36.9528C21.5386 36.9528 21.487 36.9528 21.4355 36.9528C21.4355 36.9013 21.4355 36.8498 21.4355 36.7983C21.487 36.7983 21.5386 36.7983 21.5901 36.7983Z" fill="#1D211F"/>
<path fill-rule="evenodd" clip-rule="evenodd" d="M8.14795 37.5708C8.19945 37.5708 8.25095 37.5708 8.30246 37.5708C8.30246 37.6223 8.30246 37.6738 8.30246 37.7253C8.25095 37.7253 8.19945 37.7253 8.14795 37.7253C8.14795 37.6738 8.14795 37.6223 8.14795 37.5708Z" fill="#1D211F"/>
<path fill-rule="evenodd" clip-rule="evenodd" d="M16.9548 37.5708C16.9548 37.6223 16.9548 37.6738 16.9548 37.7253C16.9033 37.7253 16.8518 37.7253 16.8003 37.7253C16.8003 37.6738 16.8003 37.6223 16.8003 37.5708C16.8518 37.5708 16.9033 37.5708 16.9548 37.5708Z" fill="#D0466F"/>
<path fill-rule="evenodd" clip-rule="evenodd" d="M21.1267 37.5708C21.1267 37.6223 21.1267 37.6738 21.1267 37.7253C21.0752 37.7253 21.0237 37.7253 20.9722 37.7253C20.9722 37.6738 20.9722 37.6223 20.9722 37.5708C21.0237 37.5708 21.0752 37.5708 21.1267 37.5708Z" fill="#D44665"/>
<path fill-rule="evenodd" clip-rule="evenodd" d="M15.9763 37.7253C16.1995 37.7253 16.4227 37.7253 16.6458 37.7253C16.6458 37.7768 16.6458 37.8283 16.6458 37.8798C16.437 37.8965 16.231 37.8794 16.0278 37.8283C16.0091 37.7931 15.992 37.7588 15.9763 37.7253Z" fill="#1D211F"/>
<path fill-rule="evenodd" clip-rule="evenodd" d="M20.9721 37.7253C20.9721 37.7768 20.9721 37.8283 20.9721 37.8798C20.9206 37.8798 20.8691 37.8798 20.8176 37.8798C20.8176 37.8283 20.8176 37.7768 20.8176 37.7253C20.8691 37.7253 20.9206 37.7253 20.9721 37.7253Z" fill="#1D211F"/>
<path fill-rule="evenodd" clip-rule="evenodd" d="M8.30249 37.8798C8.35399 37.8798 8.40549 37.8798 8.457 37.8798C8.457 37.9313 8.457 37.9828 8.457 38.0343C8.40549 38.0343 8.35399 38.0343 8.30249 38.0343C8.30249 37.9828 8.30249 37.9313 8.30249 37.8798Z" fill="#1D211F"/>
<path fill-rule="evenodd" clip-rule="evenodd" d="M20.663 38.0343C20.6714 38.1387 20.6628 38.2417 20.6373 38.3433C20.5852 38.3865 20.5251 38.4036 20.457 38.3948C20.457 38.3262 20.457 38.2575 20.457 38.1888C20.5085 38.1888 20.56 38.1888 20.6115 38.1888C20.5993 38.1223 20.6165 38.0708 20.663 38.0343Z" fill="#D14467"/>
<path fill-rule="evenodd" clip-rule="evenodd" d="M20.457 38.3948C20.457 38.4463 20.457 38.4978 20.457 38.5493C20.4055 38.5493 20.354 38.5493 20.3025 38.5493C20.3025 38.4978 20.3025 38.4463 20.3025 38.3948C20.354 38.3948 20.4055 38.3948 20.457 38.3948Z" fill="#D14574"/>
<path fill-rule="evenodd" clip-rule="evenodd" d="M8.76611 38.3948C8.81592 38.4621 8.88462 38.4965 8.97212 38.4978C8.97212 38.5665 8.97212 38.6352 8.97212 38.7038C8.92062 38.7038 8.86912 38.7038 8.81762 38.7038C8.80047 38.6008 8.78326 38.4978 8.76611 38.3948Z" fill="#1D211F"/>
<path fill-rule="evenodd" clip-rule="evenodd" d="M20.3025 38.5493C20.3025 38.6008 20.3025 38.6524 20.3025 38.7039C20.251 38.7039 20.1995 38.7039 20.1479 38.7039C20.1479 38.6524 20.1479 38.6008 20.1479 38.5493C20.1995 38.5493 20.251 38.5493 20.3025 38.5493Z" fill="#1D211F"/>
<path fill-rule="evenodd" clip-rule="evenodd" d="M20.1482 38.7039C20.1482 38.7554 20.1482 38.8069 20.1482 38.8584C20.0967 38.8584 20.0452 38.8584 19.9937 38.8584C19.9937 38.8069 19.9937 38.7554 19.9937 38.7039C20.0452 38.7039 20.0967 38.7039 20.1482 38.7039Z" fill="#1D211F"/>
<path fill-rule="evenodd" clip-rule="evenodd" d="M19.9936 38.8584C19.9936 38.9099 19.9936 38.9614 19.9936 39.0129C19.9421 39.0129 19.8906 39.0129 19.8391 39.0129C19.8391 38.9614 19.8391 38.9099 19.8391 38.8584C19.8906 38.8584 19.9421 38.8584 19.9936 38.8584Z" fill="#1D211F"/>
<path fill-rule="evenodd" clip-rule="evenodd" d="M19.8391 39.0129C19.8391 39.0644 19.8391 39.1159 19.8391 39.1674C19.7876 39.1674 19.7361 39.1674 19.6846 39.1674C19.6846 39.1159 19.6846 39.0644 19.6846 39.0129C19.7361 39.0129 19.7876 39.0129 19.8391 39.0129Z" fill="#D64674"/>
<path fill-rule="evenodd" clip-rule="evenodd" d="M9.89917 39.6309C10.0036 39.6226 10.1066 39.6312 10.2082 39.6567C10.1666 39.6725 10.1322 39.6983 10.1052 39.7339C10.1864 39.775 10.2723 39.8008 10.3627 39.8112C10.4058 39.8632 10.4229 39.9233 10.4142 39.9914C10.3455 39.9914 10.2768 39.9914 10.2082 39.9914C10.2082 39.9399 10.2082 39.8884 10.2082 39.8369C10.1052 39.8198 10.0022 39.8026 9.89917 39.7854C9.89917 39.7339 9.89917 39.6824 9.89917 39.6309Z" fill="#1D211F"/>
<path fill-rule="evenodd" clip-rule="evenodd" d="M19.1696 39.6309C19.0728 39.8116 18.9183 39.8803 18.7061 39.8369C18.8343 39.7177 18.9888 39.6491 19.1696 39.6309Z" fill="#D7474F"/>
<path fill-rule="evenodd" clip-rule="evenodd" d="M18.706 39.8369C18.706 39.8884 18.706 39.9399 18.706 39.9914C18.6545 39.9914 18.603 39.9914 18.5515 39.9914C18.5515 39.9399 18.5515 39.8884 18.5515 39.8369C18.603 39.8369 18.6545 39.8369 18.706 39.8369Z" fill="#1D211F"/>
<path fill-rule="evenodd" clip-rule="evenodd" d="M10.4141 39.9914C10.4656 39.9914 10.5171 39.9914 10.5686 39.9914C10.5686 40.0429 10.5686 40.0944 10.5686 40.1459C10.5171 40.1459 10.4656 40.1459 10.4141 40.1459C10.4141 40.0944 10.4141 40.0429 10.4141 39.9914Z" fill="#1D211F"/>
<path fill-rule="evenodd" clip-rule="evenodd" d="M17.4184 40.4549C17.4184 40.5064 17.4184 40.5579 17.4184 40.6094C17.3669 40.6094 17.3154 40.6094 17.2639 40.6094C17.2639 40.5579 17.2639 40.5064 17.2639 40.4549C17.3154 40.4549 17.3669 40.4549 17.4184 40.4549Z" fill="#1D211F"/>
<path fill-rule="evenodd" clip-rule="evenodd" d="M11.6501 40.6094C11.7703 40.6094 11.8905 40.6094 12.0107 40.6094C12.0107 40.6609 12.0107 40.7124 12.0107 40.7639C11.8905 40.7639 11.7703 40.7639 11.6501 40.7639C11.6501 40.7124 11.6501 40.6609 11.6501 40.6094Z" fill="#1D211F"/>
<path fill-rule="evenodd" clip-rule="evenodd" d="M17.1093 40.6094C17.1093 40.6609 17.1093 40.7124 17.1093 40.7639C17.0063 40.7639 16.9033 40.7639 16.8003 40.7639C16.8003 40.7124 16.8003 40.6609 16.8003 40.6094C16.9033 40.6094 17.0063 40.6094 17.1093 40.6094Z" fill="#DC4864"/>
<path fill-rule="evenodd" clip-rule="evenodd" d="M12.1653 40.7639C12.3198 40.7639 12.4743 40.7639 12.6288 40.7639C12.6288 40.8154 12.6288 40.867 12.6288 40.9185C12.4743 40.9185 12.3198 40.9185 12.1653 40.9185C12.1653 40.867 12.1653 40.8154 12.1653 40.7639Z" fill="#1D211F"/>
<path fill-rule="evenodd" clip-rule="evenodd" d="M16.4913 40.7639C16.293 40.8931 16.0698 40.9446 15.8218 40.9185C15.8218 40.867 15.8218 40.8154 15.8218 40.7639C16.0449 40.7639 16.2681 40.7639 16.4913 40.7639Z" fill="#1D211F"/>
<path fill-rule="evenodd" clip-rule="evenodd" d="M12.9377 40.9185C13.7961 40.9185 14.6545 40.9185 15.5129 40.9185C15.5129 40.9356 15.5129 40.9528 15.5129 40.97C14.8307 41.0606 14.144 41.0949 13.4528 41.073C13.2558 41.0879 13.0841 41.0364 12.9377 40.9185Z" fill="#1D211F"/>
<path fill-rule="evenodd" clip-rule="evenodd" d="M15.513 40.97C15.513 41.0215 15.513 41.073 15.513 41.1245C14.8172 41.1414 14.1304 41.1243 13.4529 41.073C14.1441 41.0949 14.8308 41.0606 15.513 40.97Z" fill="#1D211F"/>
</g>
<defs>
<clipPath id="clip0_1_329">
<rect x="0.5" width="48" height="48" rx="16" fill="white"/>
</clipPath>
</defs>
</svg>
