<svg width="49" height="48" viewBox="0 0 49 48" fill="none" xmlns="http://www.w3.org/2000/svg">
<g clip-path="url(#clip0_5_1894)">
<path fill-rule="evenodd" clip-rule="evenodd" d="M29.1286 28.6286C25.3571 32.52 25.1 37.3714 24.7571 48C34.6657 48 41.5057 47.9657 45.0371 44.5371C48.4657 41.0057 48.5 33.84 48.5 24.2571C37.8714 24.6 33.02 24.8571 29.1286 28.6286ZM24.2429 48C14.3343 48 7.49429 47.9657 3.96286 44.5371C0.534286 41.0057 0.5 33.84 0.5 24.2571C11.1286 24.6 15.98 24.8571 19.8714 28.6286C23.6429 32.52 23.9 37.3714 24.2429 48ZM19.8714 19.3714C15.98 23.1429 11.1286 23.4 0.5 23.7429C0.5 14.16 0.534286 6.99429 3.96286 3.46286C7.49429 0.0342857 14.3514 0 24.2429 0C23.9 10.6286 23.6429 15.48 19.8714 19.3714ZM24.7571 0C25.0829 10.6286 25.3571 15.48 29.1286 19.3714C33.02 23.1429 37.8714 23.4 48.5 23.7429C48.5 14.16 48.4657 6.99429 45.0371 3.46286C41.5057 0.0342857 34.6657 0 24.7571 0Z" fill="#23F0A2"/>
</g>
<defs>
<clipPath id="clip0_5_1894">
<rect width="48" height="48" fill="white" transform="translate(0.5)"/>
</clipPath>
</defs>
</svg>
