<svg width="49" height="48" viewBox="0 0 49 48" fill="none" xmlns="http://www.w3.org/2000/svg">
<path d="M39.1419 11.124C38.8379 10.9673 38.5422 10.795 38.2559 10.608C37.4229 10.0579 36.6594 9.40919 35.9819 8.676C34.2839 6.734 33.6499 4.764 33.4179 3.386H33.4259C33.2319 2.24 33.3119 1.5 33.3259 1.5H25.5959V31.386C25.5986 31.786 25.5932 32.1827 25.5799 32.576L25.5719 32.722C25.5719 32.7433 25.5699 32.7653 25.5659 32.788V32.806C25.4847 33.878 25.1413 34.9137 24.5659 35.8218C23.9904 36.73 23.2006 37.4828 22.2659 38.014C21.2917 38.571 20.1881 38.8621 19.0659 38.858C15.4659 38.858 12.5459 35.922 12.5459 32.296C12.5459 28.67 15.4659 25.732 19.0659 25.732C19.7479 25.732 20.4259 25.84 21.0739 26.052L21.0839 18.18C19.1159 17.9263 17.1168 18.0833 15.2125 18.6409C13.3082 19.1986 11.5402 20.1448 10.0199 21.42C8.68811 22.5776 7.56805 23.9582 6.7099 25.5C6.3839 26.062 5.1519 28.324 5.0039 31.992C4.9099 34.072 5.5359 36.232 5.8339 37.122V37.142C6.0199 37.666 6.7479 39.458 7.9319 40.968C8.88764 42.1791 10.0156 43.2438 11.2799 44.128V44.108L11.2979 44.128C15.0379 46.668 19.1879 46.502 19.1879 46.502C19.9059 46.472 22.3119 46.502 25.0439 45.208C28.0739 43.772 29.7979 41.634 29.7979 41.634C30.9011 40.3569 31.7777 38.9006 32.3899 37.328C33.0899 35.488 33.3219 33.284 33.3219 32.404V16.546C33.4159 16.602 34.6659 17.428 34.6659 17.428C34.6659 17.428 36.4659 18.582 39.2719 19.332C41.2839 19.866 43.9979 19.98 43.9979 19.98V12.306C43.0479 12.41 41.1179 12.11 39.1399 11.126" fill="#23F0A2"/>
</svg>
