<svg width="49" height="48" viewBox="0 0 49 48" fill="none" xmlns="http://www.w3.org/2000/svg">
<path d="M24.5 4C13.46 4 4.5 12.96 4.5 24C4.5 35.04 13.46 44 24.5 44C35.54 44 44.5 35.04 44.5 24C44.5 12.96 35.54 4 24.5 4ZM33.78 17.6C33.48 20.76 32.18 28.44 31.52 31.98C31.24 33.48 30.68 33.98 30.16 34.04C29 34.14 28.12 33.28 27 32.54C25.24 31.38 24.24 30.66 22.54 29.54C20.56 28.24 21.84 27.52 22.98 26.36C23.28 26.06 28.4 21.4 28.5 20.98C28.5139 20.9164 28.512 20.8503 28.4946 20.7876C28.4772 20.7249 28.4447 20.6673 28.4 20.62C28.28 20.52 28.12 20.56 27.98 20.58C27.8 20.62 25 22.48 19.54 26.16C18.74 26.7 18.02 26.98 17.38 26.96C16.66 26.94 15.3 26.56 14.28 26.22C13.02 25.82 12.04 25.6 12.12 24.9C12.16 24.54 12.66 24.18 13.6 23.8C19.44 21.26 23.32 19.58 25.26 18.78C30.82 16.46 31.96 16.06 32.72 16.06C32.88 16.06 33.26 16.1 33.5 16.3C33.7 16.46 33.76 16.68 33.78 16.84C33.76 16.96 33.8 17.32 33.78 17.6Z" fill="#23F0A2"/>
</svg>
