<svg width="49" height="48" viewBox="0 0 49 48" fill="none" xmlns="http://www.w3.org/2000/svg">
<path d="M45.4201 12C43.8801 12.7 42.2201 13.16 40.5001 13.38C42.2601 12.32 43.6201 10.64 44.2601 8.62C42.6001 9.62 40.7601 10.32 38.8201 10.72C37.2401 9 35.0201 8 32.5001 8C27.8001 8 23.9601 11.84 23.9601 16.58C23.9601 17.26 24.0401 17.92 24.1801 18.54C17.0601 18.18 10.7201 14.76 6.50008 9.58C5.76008 10.84 5.34008 12.32 5.34008 13.88C5.34008 16.86 6.84008 19.5 9.16008 21C7.74008 21 6.42008 20.6 5.26008 20V20.06C5.26008 24.22 8.22008 27.7 12.1401 28.48C10.8818 28.8259 9.56015 28.8738 8.28008 28.62C8.82329 30.325 9.88715 31.8168 11.3221 32.8859C12.7571 33.9549 14.491 34.5474 16.2801 34.58C13.2474 36.981 9.4881 38.2788 5.62008 38.26C4.94008 38.26 4.26008 38.22 3.58008 38.14C7.38008 40.58 11.9001 42 16.7401 42C32.5001 42 41.1601 28.92 41.1601 17.58C41.1601 17.2 41.1601 16.84 41.1401 16.46C42.8201 15.26 44.2601 13.74 45.4201 12Z" fill="#23F0A2"/>
</svg>
