<svg width="49" height="48" viewBox="0 0 49 48" fill="none" xmlns="http://www.w3.org/2000/svg">
<g clip-path="url(#clip0_5_1743)">
<path fill-rule="evenodd" clip-rule="evenodd" d="M0.474365 -0.0257568C16.4744 -0.0257568 32.4743 -0.0257568 48.4744 -0.0257568C48.4744 15.9743 48.4744 31.9742 48.4744 47.9742C32.4743 47.9742 16.4744 47.9742 0.474365 47.9742C0.474365 31.9742 0.474365 15.9743 0.474365 -0.0257568Z" fill="#23F0A2"/>
<path fill-rule="evenodd" clip-rule="evenodd" d="M16.3369 14.6009C15.9695 14.2594 15.609 13.9075 15.2553 13.5451C15.1557 13.5481 15.0698 13.591 14.9978 13.6739C14.9978 13.6052 14.9978 13.5365 14.9978 13.4678C15.1738 13.4319 15.3455 13.4147 15.5128 13.4163C15.6148 13.4131 15.7007 13.4475 15.7703 13.5194C15.7971 13.6886 15.8314 13.8517 15.8733 14.0086C15.9396 14.0935 16.0254 14.1536 16.1308 14.1889C16.2032 14.3283 16.2719 14.4657 16.3369 14.6009Z" fill="#18D2A9"/>
<path fill-rule="evenodd" clip-rule="evenodd" d="M16.337 14.6009C16.5259 14.8069 16.7147 15.0129 16.9035 15.2189C16.9447 15.4524 17.082 15.5897 17.3156 15.6309C17.3433 15.7142 17.3604 15.8001 17.3671 15.8885C17.5156 15.9339 17.653 16.0026 17.7791 16.0945C18.2384 16.5882 18.7191 17.0688 19.2211 17.5365C19.7561 18.0886 20.2884 18.638 20.8177 19.1846C20.8864 19.2876 20.9722 19.3735 21.0752 19.4421C21.1836 19.5723 21.3038 19.6924 21.4357 19.8026C21.7619 20.0945 22.0709 20.4035 22.3628 20.7297C22.4758 20.8896 22.6131 21.0269 22.7748 21.1417C23.307 21.691 23.8392 22.2404 24.3714 22.7897C24.4133 22.8811 24.482 22.9068 24.5774 22.867C24.6567 22.7964 24.7254 22.7191 24.7834 22.6352C24.8005 22.5837 24.8349 22.5494 24.8864 22.5322C24.965 22.536 25.0165 22.5016 25.0409 22.4292C25.1748 22.2093 25.3465 22.0205 25.5559 21.8627C25.7634 21.7583 25.9179 21.6038 26.0194 21.3992C26.2083 21.1932 26.3971 20.9872 26.5859 20.7812C26.8778 20.5236 27.1525 20.249 27.41 19.9571C27.5473 19.8541 27.6675 19.734 27.7705 19.5966C27.9607 19.4407 28.1324 19.2691 28.2855 19.0816C28.4915 18.9786 28.646 18.8241 28.749 18.6181C28.929 18.4819 29.1178 18.3531 29.3156 18.2318C29.3751 18.0958 29.4437 17.9671 29.5216 17.8455C30.0923 17.2577 30.6588 16.674 31.2211 16.0945C31.4615 15.9571 31.6503 15.7683 31.7877 15.5279C31.8048 15.5279 31.822 15.5279 31.8392 15.5279C31.9804 15.4384 32.0834 15.3182 32.1482 15.1674C32.6699 14.6199 33.2022 14.0791 33.7447 13.5451C33.8401 13.5053 33.9088 13.531 33.9508 13.6224C34.2069 13.9128 34.4815 14.1875 34.7748 14.4464C35.1868 14.8756 35.5988 15.3048 36.0108 15.7339C36.0452 15.8713 36.131 15.9571 36.2683 15.9915C36.3885 16.0773 36.4915 16.1803 36.5774 16.3005C36.5786 16.4384 36.6473 16.5071 36.7834 16.5065C36.852 16.6781 36.9722 16.7983 37.1439 16.867C37.161 16.9185 37.1954 16.9529 37.2469 16.97C37.3116 17.1207 37.4146 17.241 37.5559 17.3305C37.5903 17.3477 37.6246 17.3649 37.6589 17.382C37.7003 17.4296 37.7089 17.4811 37.6847 17.5365C37.3145 17.8497 36.9797 18.193 36.6804 18.5666C36.3198 18.8927 35.9765 19.2361 35.6503 19.5966C35.3585 19.8541 35.0838 20.1288 34.8263 20.4206C34.6374 20.5752 34.4658 20.7468 34.3113 20.9357C33.9532 21.2424 33.627 21.5858 33.3327 21.9657C32.9551 22.3091 32.5945 22.6696 32.2512 23.0473C32.1482 23.1159 32.0623 23.2018 31.9937 23.3048C31.7533 23.5108 31.5301 23.7339 31.3241 23.9743C31.116 24.1355 30.9443 24.3244 30.8091 24.5408C30.5868 24.6774 30.3979 24.8491 30.2426 25.0558C30.1915 25.047 30.1572 25.0642 30.1396 25.1073C30.0238 25.1372 29.938 25.2059 29.8821 25.3133C29.766 25.3605 29.663 25.4291 29.5731 25.5194C29.4341 25.5371 29.3311 25.6058 29.2641 25.7254C29.056 25.8464 28.85 25.9666 28.646 26.0859C28.4923 26.1284 28.355 26.1971 28.234 26.2919C27.707 26.4781 27.1748 26.6497 26.6374 26.8069C26.5161 26.7985 26.3959 26.8071 26.2769 26.8327C26.2483 26.8524 26.2311 26.8781 26.2254 26.9099C25.9349 26.9539 25.643 26.9882 25.3499 27.0129C24.5399 27.0326 23.733 26.9983 22.9293 26.9099C22.582 26.7947 22.2214 26.7089 21.8477 26.6524C21.819 26.586 21.7675 26.5431 21.6932 26.5236C21.4233 26.435 21.1487 26.3578 20.8692 26.2919C20.8521 26.2919 20.8349 26.2919 20.8177 26.2919C20.7933 26.2195 20.7418 26.1851 20.6632 26.1889C20.3465 26.0735 20.0546 25.919 19.7877 25.7254C19.7633 25.653 19.7118 25.6186 19.6332 25.6224C19.161 25.3567 18.7319 25.0306 18.3456 24.6438C18.0565 24.3204 17.7475 24.0114 17.4186 23.7168C16.6432 22.9071 15.8536 22.1174 15.0495 21.3477C14.9489 21.1612 14.8116 21.0067 14.6374 20.8842C13.9679 20.1803 13.2812 19.4936 12.5774 18.8241C12.2297 18.4595 11.8864 18.099 11.5473 17.7425C11.4787 17.6739 11.41 17.6052 11.3413 17.5365C11.3442 17.4794 11.3614 17.4279 11.3928 17.382C11.7719 16.9686 12.1667 16.5737 12.5774 16.1975C12.7498 16.0512 12.9215 15.888 13.0924 15.7082C13.1887 15.6378 13.2917 15.5777 13.4014 15.5279C13.4683 15.4116 13.5198 15.2914 13.5559 15.1674C13.6761 15.0301 13.7963 14.8928 13.9164 14.7554C14.2598 14.4464 14.5859 14.1202 14.895 13.7769C14.9293 13.7425 14.9636 13.7082 14.998 13.6739C15.07 13.591 15.1558 13.5481 15.2555 13.5451C15.6092 13.9075 15.9697 14.2594 16.337 14.6009Z" fill="#000101"/>
<path fill-rule="evenodd" clip-rule="evenodd" d="M33.9507 13.6223C34.1162 13.7323 34.2879 13.7924 34.4657 13.8026C34.4486 13.8197 34.4314 13.8369 34.4142 13.8541C34.5322 13.9205 34.6353 14.0064 34.7232 14.1116C34.6889 14.1459 34.6546 14.1802 34.6202 14.2146C34.7201 14.2614 34.7716 14.3386 34.7747 14.4463C34.4815 14.1874 34.2068 13.9128 33.9507 13.6223Z" fill="#1BCBA7"/>
<path fill-rule="evenodd" clip-rule="evenodd" d="M14.8948 13.7768C14.5858 14.1201 14.2596 14.4463 13.9163 14.7553C13.9163 14.6695 13.9163 14.5837 13.9163 14.4978C13.9678 14.4978 14.0193 14.4978 14.0708 14.4978C14.0708 14.4463 14.0708 14.3948 14.0708 14.3433C14.1223 14.3433 14.1738 14.3433 14.2253 14.3433C14.2193 14.1677 14.3051 14.099 14.4828 14.1373C14.4828 14.0858 14.4828 14.0343 14.4828 13.9828C14.5343 13.9828 14.5858 13.9828 14.6373 13.9828C14.6313 13.8072 14.7171 13.7385 14.8948 13.7768Z" fill="#21CAA9"/>
<path fill-rule="evenodd" clip-rule="evenodd" d="M32.1481 15.1674C32.0834 15.3181 31.9804 15.4383 31.8391 15.5279C31.9038 15.3771 32.0069 15.2569 32.1481 15.1674Z" fill="#094639"/>
<path fill-rule="evenodd" clip-rule="evenodd" d="M13.5557 15.1674C13.5196 15.2914 13.4681 15.4116 13.4012 15.5279C13.2915 15.5777 13.1885 15.6378 13.0922 15.7081C12.9213 15.888 12.7496 16.0511 12.5771 16.1974C12.866 15.8226 13.1922 15.4793 13.5557 15.1674Z" fill="#0B2420"/>
<path fill-rule="evenodd" clip-rule="evenodd" d="M16.9033 15.2189C17.0592 15.3404 17.1966 15.4778 17.3153 15.6309C17.0818 15.5896 16.9445 15.4523 16.9033 15.2189Z" fill="#0A261E"/>
<path fill-rule="evenodd" clip-rule="evenodd" d="M36.0107 15.7339C36.1137 15.8025 36.1996 15.8884 36.2683 15.9914C36.1309 15.957 36.0451 15.8712 36.0107 15.7339Z" fill="#09372A"/>
<path fill-rule="evenodd" clip-rule="evenodd" d="M17.3154 15.6309C17.4356 15.7339 17.5558 15.8369 17.6759 15.9399C17.7103 15.9914 17.7446 16.0429 17.7789 16.0944C17.6529 16.0025 17.5155 15.9338 17.3669 15.8884C17.3603 15.8 17.3431 15.7141 17.3154 15.6309Z" fill="#0B3428"/>
<path fill-rule="evenodd" clip-rule="evenodd" d="M31.7875 15.528C31.6501 15.7683 31.4613 15.9571 31.2209 16.0945C31.3926 15.8885 31.5815 15.6996 31.7875 15.528Z" fill="#0A4A3C"/>
<path fill-rule="evenodd" clip-rule="evenodd" d="M36.5771 16.3004C36.663 16.3519 36.7317 16.4206 36.7832 16.5064C36.6471 16.507 36.5784 16.4384 36.5771 16.3004Z" fill="#083025"/>
<path fill-rule="evenodd" clip-rule="evenodd" d="M36.7832 16.5065C36.9206 16.6095 37.0407 16.7296 37.1437 16.867C36.9721 16.7983 36.8519 16.6781 36.7832 16.5065Z" fill="#054E3B"/>
<path fill-rule="evenodd" clip-rule="evenodd" d="M17.676 15.9399C17.806 16.008 17.9433 16.0681 18.088 16.1202C18.0265 16.2571 18.0781 16.3171 18.2425 16.3005C18.2338 16.3685 18.2509 16.4286 18.2941 16.4807C18.5469 16.5189 18.6842 16.6648 18.7061 16.9185C18.8248 16.8931 18.945 16.8759 19.0666 16.867C19.0576 17.0127 19.1262 17.0985 19.2726 17.1245C19.2301 17.1701 19.1786 17.1873 19.1181 17.176C19.1379 17.3011 19.1722 17.4213 19.2211 17.5365C18.719 17.0688 18.2384 16.5881 17.779 16.0944C17.7447 16.0429 17.7104 15.9914 17.676 15.9399Z" fill="#16D5AC"/>
<path fill-rule="evenodd" clip-rule="evenodd" d="M37.2468 16.97C37.3881 17.0595 37.4911 17.1797 37.5558 17.3305C37.4146 17.2409 37.3116 17.1207 37.2468 16.97Z" fill="#064939"/>
<path fill-rule="evenodd" clip-rule="evenodd" d="M11.3927 17.382C11.3613 17.4278 11.3442 17.4793 11.3412 17.5365C11.2699 17.4619 11.287 17.4104 11.3927 17.382Z" fill="#0E6958"/>
<path fill-rule="evenodd" clip-rule="evenodd" d="M37.6587 17.382C37.7179 17.3969 37.7522 17.4398 37.7617 17.5107C37.73 17.6797 37.627 17.7827 37.4527 17.8197C37.2684 17.962 37.1396 18.1422 37.0664 18.3605C36.9994 18.3906 36.9393 18.4249 36.8862 18.4635C36.8293 18.5202 36.7606 18.5545 36.6802 18.5665C36.9796 18.1929 37.3143 17.8496 37.6845 17.5365C37.7087 17.481 37.7001 17.4295 37.6587 17.382Z" fill="#20B496"/>
<path fill-rule="evenodd" clip-rule="evenodd" d="M29.5216 17.8455C29.4437 17.967 29.3751 18.0958 29.3155 18.2317C29.1178 18.3531 28.929 18.4818 28.749 18.618C28.8005 18.5493 28.852 18.4806 28.9035 18.412C29.1095 18.2231 29.3155 18.0343 29.5216 17.8455Z" fill="#0C2821"/>
<path fill-rule="evenodd" clip-rule="evenodd" d="M11.5471 17.7424C11.8862 18.0989 12.2295 18.4594 12.5772 18.824C12.499 18.8234 12.4389 18.7891 12.3969 18.721C12.3841 18.7789 12.3583 18.8304 12.3197 18.8755C12.3025 18.8583 12.2853 18.8411 12.2681 18.824C12.2486 18.7456 12.24 18.6598 12.2424 18.5665C11.9724 18.53 11.8265 18.3755 11.8046 18.1029C11.6491 18.0327 11.5633 17.9126 11.5471 17.7424Z" fill="#1CCDAA"/>
<path fill-rule="evenodd" clip-rule="evenodd" d="M36.8862 18.4635C36.8821 18.5371 36.8993 18.6059 36.9377 18.6695C36.6615 18.7487 36.4555 18.9118 36.3197 19.1588C36.1008 19.316 35.8777 19.4619 35.6501 19.5965C35.9763 19.236 36.3197 18.8927 36.6802 18.5665C36.7606 18.5545 36.8293 18.5202 36.8862 18.4635Z" fill="#19CDA8"/>
<path fill-rule="evenodd" clip-rule="evenodd" d="M28.9036 18.412C28.8521 18.4806 28.8006 18.5493 28.749 18.618C28.5774 18.7554 28.4229 18.9099 28.2855 19.0815C28.1324 19.269 27.9608 19.4406 27.7705 19.5965C27.9144 19.4001 28.026 19.1769 28.1053 18.927C28.1739 18.8927 28.2254 18.8412 28.2598 18.7725C28.4029 18.8335 28.4801 18.782 28.4915 18.618C28.6159 18.5292 28.7532 18.4605 28.9036 18.412Z" fill="#1ECEA6"/>
<path fill-rule="evenodd" clip-rule="evenodd" d="M28.7489 18.618C28.6459 18.8241 28.4914 18.9786 28.2854 19.0816C28.4228 18.9099 28.5773 18.7554 28.7489 18.618Z" fill="#094639"/>
<path fill-rule="evenodd" clip-rule="evenodd" d="M20.8176 19.1846C20.9721 19.2017 21.058 19.2876 21.0751 19.4421C20.9721 19.3734 20.8863 19.2876 20.8176 19.1846Z" fill="#269F83"/>
<path fill-rule="evenodd" clip-rule="evenodd" d="M35.6502 19.5966C35.5821 19.7599 35.4962 19.9144 35.3927 20.0601C35.329 20.0985 35.2603 20.1156 35.1867 20.1116C35.1523 20.2146 35.118 20.3176 35.0837 20.4206C34.9978 20.4206 34.912 20.4206 34.8262 20.4206C35.0837 20.1287 35.3583 19.8541 35.6502 19.5966Z" fill="#1EBD9A"/>
<path fill-rule="evenodd" clip-rule="evenodd" d="M21.4355 19.8026C21.5216 19.8155 21.5988 19.8499 21.6673 19.9056C21.6886 19.8821 21.7144 19.8649 21.7446 19.8541C21.7809 19.966 21.8324 20.069 21.8991 20.1631C21.9625 20.1963 22.0312 20.2049 22.1051 20.1889C22.2252 20.2529 22.2596 20.3387 22.2081 20.4464C22.2943 20.524 22.3458 20.6184 22.3626 20.7297C22.0707 20.4035 21.7617 20.0945 21.4355 19.8026Z" fill="#1BCEA6"/>
<path fill-rule="evenodd" clip-rule="evenodd" d="M27.41 19.957C27.1525 20.2489 26.8778 20.5236 26.5859 20.7811C26.5859 20.6952 26.5859 20.6094 26.5859 20.5236C26.7794 20.5346 26.8138 20.4831 26.6889 20.369C26.8465 20.3836 26.9324 20.2978 26.9465 20.1115C27.0935 20.0431 27.248 19.9916 27.41 19.957Z" fill="#19C9A6"/>
<path fill-rule="evenodd" clip-rule="evenodd" d="M34.8261 20.4207C34.7059 20.6438 34.5342 20.8155 34.311 20.9357C34.4655 20.7468 34.6372 20.5752 34.8261 20.4207Z" fill="#18876E"/>
<path fill-rule="evenodd" clip-rule="evenodd" d="M14.6375 20.8842C14.8116 21.0067 14.9489 21.1612 15.0495 21.3477C14.9293 21.2539 14.8005 21.1681 14.6632 21.0902C14.638 21.0236 14.6294 20.9549 14.6375 20.8842Z" fill="#23B491"/>
<path fill-rule="evenodd" clip-rule="evenodd" d="M34.3111 20.9357C34.2529 21.0291 34.2186 21.1321 34.2081 21.2447C34.14 21.2359 34.0799 21.2531 34.0278 21.2962C33.9775 21.4115 33.9517 21.5317 33.9505 21.6567C33.7762 21.6322 33.6561 21.7009 33.59 21.8627C33.5089 21.9119 33.4231 21.9463 33.3325 21.9657C33.6268 21.5858 33.953 21.2424 34.3111 20.9357Z" fill="#1CC39D"/>
<path fill-rule="evenodd" clip-rule="evenodd" d="M22.7747 21.1416C22.9112 21.1926 23.0485 21.2441 23.1867 21.2961C23.2477 21.4387 23.3421 21.4902 23.4699 21.4506C23.5017 21.4995 23.4932 21.5424 23.4442 21.5794C23.5414 21.6922 23.653 21.7866 23.779 21.8626C24.01 22.1565 24.2074 22.4655 24.3712 22.7897C23.8391 22.2403 23.3068 21.691 22.7747 21.1416Z" fill="#18D3AA"/>
<path fill-rule="evenodd" clip-rule="evenodd" d="M26.0194 21.3992C25.9179 21.6037 25.7634 21.7582 25.5559 21.8627C25.6947 21.6896 25.8492 21.5351 26.0194 21.3992Z" fill="#063C2F"/>
<path fill-rule="evenodd" clip-rule="evenodd" d="M33.3325 21.9657C33.3024 22.0946 33.2681 22.2234 33.2295 22.352C33.071 22.4662 32.9079 22.5778 32.7402 22.6867C32.7304 22.7937 32.7046 22.8967 32.663 22.9957C32.5308 22.9831 32.3935 23.0002 32.251 23.0472C32.5943 22.6696 32.9549 22.3091 33.3325 21.9657Z" fill="#1DCAA3"/>
<path fill-rule="evenodd" clip-rule="evenodd" d="M25.0407 22.4292C25.0164 22.5016 24.9649 22.536 24.8862 22.5322C24.9106 22.4598 24.9621 22.4255 25.0407 22.4292Z" fill="#084E3E"/>
<path fill-rule="evenodd" clip-rule="evenodd" d="M24.7834 22.6353C24.7254 22.7192 24.6567 22.7964 24.5773 22.867C24.482 22.9068 24.4133 22.8811 24.3713 22.7898C24.544 22.7444 24.6813 22.6929 24.7834 22.6353Z" fill="#29B694"/>
<path fill-rule="evenodd" clip-rule="evenodd" d="M32.2512 23.0472C32.234 23.2017 32.1482 23.2876 31.9937 23.3048C32.0623 23.2017 32.1482 23.1159 32.2512 23.0472Z" fill="#239B84"/>
<path fill-rule="evenodd" clip-rule="evenodd" d="M31.9935 23.3047C31.8252 23.542 31.6363 23.7652 31.427 23.9742C31.3926 23.9742 31.3583 23.9742 31.324 23.9742C31.53 23.7339 31.7531 23.5107 31.9935 23.3047Z" fill="#1E8972"/>
<path fill-rule="evenodd" clip-rule="evenodd" d="M31.3241 23.9742C31.3585 23.9742 31.3928 23.9742 31.4271 23.9742C31.2836 24.2381 31.0776 24.427 30.8091 24.5408C30.9443 24.3244 31.1159 24.1355 31.3241 23.9742Z" fill="#1EBB96"/>
<path fill-rule="evenodd" clip-rule="evenodd" d="M17.4185 23.7168C17.7475 24.0114 18.0565 24.3205 18.3456 24.6438C18.1706 24.5729 18.016 24.4699 17.882 24.3348C17.8519 24.3456 17.8261 24.3628 17.8048 24.3863C17.7682 24.1753 17.6567 24.0208 17.47 23.9228C17.4222 23.8616 17.405 23.7929 17.4185 23.7168Z" fill="#20BF9D"/>
<path fill-rule="evenodd" clip-rule="evenodd" d="M30.809 24.5408C30.7094 24.6663 30.5978 24.7865 30.4742 24.9013C30.4493 24.9501 30.4408 25.0016 30.4484 25.0558C30.3798 25.0558 30.3111 25.0558 30.2424 25.0558C30.3978 24.849 30.5866 24.6774 30.809 24.5408Z" fill="#23B69C"/>
<path fill-rule="evenodd" clip-rule="evenodd" d="M30.1396 25.1073C30.0837 25.2148 29.9979 25.2834 29.8821 25.3133C29.938 25.2058 30.0238 25.1372 30.1396 25.1073Z" fill="#21977B"/>
<path fill-rule="evenodd" clip-rule="evenodd" d="M29.5729 25.5193C29.4939 25.6155 29.3909 25.6842 29.2639 25.7253C29.331 25.6057 29.434 25.5371 29.5729 25.5193Z" fill="#1A7D65"/>
<path fill-rule="evenodd" clip-rule="evenodd" d="M19.6331 25.6223C19.7117 25.6186 19.7632 25.6529 19.7876 25.7254C19.7089 25.7291 19.6574 25.6948 19.6331 25.6223Z" fill="#0B493E"/>
<path fill-rule="evenodd" clip-rule="evenodd" d="M29.264 25.7253C29.1182 25.9308 28.9122 26.0509 28.646 26.0859C28.8499 25.9666 29.056 25.8464 29.264 25.7253Z" fill="#24A98B"/>
<path fill-rule="evenodd" clip-rule="evenodd" d="M20.6631 26.1889C20.7417 26.1851 20.7932 26.2195 20.8176 26.2919C20.7389 26.2956 20.6874 26.2613 20.6631 26.1889Z" fill="#0C5E4B"/>
<path fill-rule="evenodd" clip-rule="evenodd" d="M20.8691 26.2919C21.1486 26.3577 21.4233 26.435 21.6932 26.5236C21.7674 26.543 21.8189 26.5859 21.8477 26.6524C21.6295 26.5813 21.4063 26.5298 21.1782 26.4979C21.0891 26.4144 20.9861 26.3457 20.8691 26.2919Z" fill="#0B2821"/>
<path fill-rule="evenodd" clip-rule="evenodd" d="M28.234 26.2919C28.234 26.3434 28.234 26.3949 28.234 26.4464C28.1798 26.4387 28.1283 26.4473 28.0795 26.4721C28.0016 26.6914 27.8557 26.7515 27.6417 26.6524C27.4535 26.7065 27.2732 26.7751 27.101 26.8584C26.9483 26.8114 26.7938 26.8114 26.6375 26.8584C26.6375 26.8412 26.6375 26.824 26.6375 26.8069C27.1748 26.6497 27.707 26.4781 28.234 26.2919Z" fill="#1BCAA7"/>
<path fill-rule="evenodd" clip-rule="evenodd" d="M21.8477 26.6523C22.2214 26.7088 22.5819 26.7946 22.9292 26.9099C22.8777 26.9099 22.8262 26.9099 22.7747 26.9099C22.5872 26.87 22.3984 26.8357 22.2082 26.8069C22.0852 26.7631 21.965 26.7116 21.8477 26.6523Z" fill="#092921"/>
<path fill-rule="evenodd" clip-rule="evenodd" d="M21.1782 26.4978C21.4064 26.5297 21.6295 26.5812 21.8478 26.6523C21.9651 26.7116 22.0853 26.7631 22.2083 26.8068C22.0267 26.8215 21.8551 26.7872 21.6932 26.7038C21.632 26.717 21.5719 26.7341 21.513 26.7553C21.3924 26.6772 21.2808 26.5914 21.1782 26.4978Z" fill="#22C7A5"/>
<path fill-rule="evenodd" clip-rule="evenodd" d="M26.6374 26.8068C26.6374 26.824 26.6374 26.8412 26.6374 26.8583C26.498 26.8622 26.3606 26.8793 26.2253 26.9098C26.2311 26.8781 26.2482 26.8523 26.2768 26.8326C26.3958 26.807 26.516 26.7984 26.6374 26.8068Z" fill="#073F2E"/>
<path fill-rule="evenodd" clip-rule="evenodd" d="M22.7747 26.9099C22.8262 26.9099 22.8777 26.9099 22.9292 26.9099C23.7329 26.9983 24.5398 27.0326 25.3498 27.0129C24.8784 27.0641 24.3977 27.0813 23.9077 27.0644C23.5162 27.0647 23.1385 27.0132 22.7747 26.9099Z" fill="#084736"/>
<path fill-rule="evenodd" clip-rule="evenodd" d="M26.2253 26.9099C25.4653 27.1699 24.6928 27.2214 23.9077 27.0644C24.3978 27.0813 24.8784 27.0641 25.3498 27.0129C25.6429 26.9882 25.9347 26.9539 26.2253 26.9099Z" fill="#20BD9C"/>
<path fill-rule="evenodd" clip-rule="evenodd" d="M25.9163 28.8155C24.8849 28.8008 23.8548 28.8179 22.8262 28.867C22.8477 28.8298 22.882 28.804 22.9292 28.7897C23.9337 28.747 24.9294 28.7556 25.9163 28.8155Z" fill="#053427"/>
<path fill-rule="evenodd" clip-rule="evenodd" d="M25.9164 28.8155C26.1581 28.836 26.3812 28.9133 26.5859 29.0473C26.7165 29.1866 26.8539 29.3153 26.9979 29.4335C27.0494 29.5709 27.1009 29.7082 27.1524 29.8455C27.2029 32.2821 27.2201 34.7199 27.2039 37.1588C25.4185 37.1588 23.6331 37.1588 21.8477 37.1588C21.8633 37.0271 21.846 36.9068 21.7962 36.7983C21.7876 34.5665 21.7962 32.3347 21.8219 30.1031C21.8463 29.9857 21.8978 29.8827 21.9765 29.794C22.0019 29.7099 22.0104 29.624 22.0022 29.5365C22.1068 29.483 22.1755 29.3972 22.2082 29.279C22.3719 29.0815 22.5779 28.9442 22.8262 28.867C23.8549 28.818 24.8849 28.8008 25.9164 28.8155Z" fill="black"/>
<path fill-rule="evenodd" clip-rule="evenodd" d="M22.2082 29.2789C22.1755 29.3971 22.1068 29.4829 22.0022 29.5364C22.0343 29.4204 22.103 29.3345 22.2082 29.2789Z" fill="#063226"/>
<path fill-rule="evenodd" clip-rule="evenodd" d="M26.9978 29.4335C27.0493 29.4335 27.1008 29.4335 27.1523 29.4335C27.1828 29.5688 27.1999 29.7061 27.2038 29.8455C27.1867 29.8455 27.1695 29.8455 27.1523 29.8455C27.1008 29.7081 27.0493 29.5708 26.9978 29.4335Z" fill="#1FB394"/>
<path fill-rule="evenodd" clip-rule="evenodd" d="M27.1524 29.8455C27.1695 29.8455 27.1867 29.8455 27.2039 29.8455C27.2316 29.9287 27.2487 30.0146 27.2554 30.103C27.2554 32.4721 27.2554 34.8412 27.2554 37.2103C25.4356 37.2103 23.6159 37.2103 21.7961 37.2103C21.7961 37.0729 21.7961 36.9356 21.7961 36.7982C21.846 36.9068 21.8632 37.027 21.8476 37.1588C23.6331 37.1588 25.4184 37.1588 27.2039 37.1588C27.22 34.7198 27.2029 32.282 27.1524 29.8455Z" fill="#01100C"/>
<path fill-rule="evenodd" clip-rule="evenodd" d="M27.2554 30.103C27.2725 30.103 27.2897 30.103 27.3069 30.103C27.3573 32.4709 27.3745 34.84 27.3584 37.2103C25.4959 37.2617 23.6247 37.2789 21.7446 37.2618C21.7446 37.2447 21.7446 37.2275 21.7446 37.2103C21.7618 37.2103 21.779 37.2103 21.7961 37.2103C23.6159 37.2103 25.4356 37.2103 27.2554 37.2103C27.2554 34.8412 27.2554 32.4721 27.2554 30.103Z" fill="#1B9A82"/>
<path fill-rule="evenodd" clip-rule="evenodd" d="M22.0021 29.5365C22.0104 29.624 22.0018 29.7099 21.9764 29.794C21.8977 29.8826 21.8462 29.9856 21.8219 30.103C21.7961 32.3347 21.7875 34.5665 21.7961 36.7983C21.7961 36.9357 21.7961 37.073 21.7961 37.2103C21.779 37.2103 21.7618 37.2103 21.7446 37.2103C21.7446 34.8412 21.7446 32.4721 21.7446 30.103C21.7901 29.8922 21.8759 29.7034 22.0021 29.5365Z" fill="#011E13"/>
<path fill-rule="evenodd" clip-rule="evenodd" d="M27.3069 30.103C27.3936 32.3865 27.4451 34.6869 27.4614 37.0043C27.4696 37.0999 27.4353 37.1685 27.3584 37.2103C27.3745 34.84 27.3574 32.4709 27.3069 30.103Z" fill="#14D9B6"/>
<path fill-rule="evenodd" clip-rule="evenodd" d="M21.7446 30.103C21.7446 32.4721 21.7446 34.8412 21.7446 37.2103C21.7446 37.2275 21.7446 37.2447 21.7446 37.2618C21.676 36.0863 21.6416 34.8932 21.6416 33.6824C21.6416 32.4716 21.676 31.2785 21.7446 30.103Z" fill="#26B79A"/>
</g>
<defs>
<clipPath id="clip0_5_1743">
<rect x="0.5" width="48" height="48" rx="8" fill="white"/>
</clipPath>
</defs>
</svg>
