<svg width="49" height="48" viewBox="0 0 49 48" fill="none" xmlns="http://www.w3.org/2000/svg">
<g clip-path="url(#clip0_5_1168)">
<path fill-rule="evenodd" clip-rule="evenodd" d="M0.474243 -0.0257568C16.4743 -0.0257568 32.4742 -0.0257568 48.4742 -0.0257568C48.4742 15.9743 48.4742 31.9742 48.4742 47.9742C32.4742 47.9742 16.4743 47.9742 0.474243 47.9742C0.474243 31.9742 0.474243 15.9743 0.474243 -0.0257568Z" fill="#1ECC8A"/>
<path fill-rule="evenodd" clip-rule="evenodd" d="M27.9763 7.64807C28.0278 7.64807 28.0793 7.64807 28.1308 7.64807C28.1308 7.69957 28.1308 7.75108 28.1308 7.80258C28.1823 7.80258 28.2338 7.80258 28.2853 7.80258C28.2853 7.85408 28.2853 7.90558 28.2853 7.95708C28.354 7.95708 28.4227 7.95708 28.4913 7.95708C28.4913 8.00859 28.4913 8.06009 28.4913 8.11159C28.5428 8.11159 28.5943 8.11159 28.6458 8.11159C28.6458 8.16309 28.6458 8.21459 28.6458 8.2661C28.6973 8.2661 28.7489 8.2661 28.8004 8.2661C28.8004 8.3176 28.8004 8.3691 28.8004 8.4206C28.6996 8.33573 28.5795 8.30138 28.4398 8.3176C28.354 8.09444 28.1995 7.93993 27.9763 7.85408C27.9763 7.78543 27.9763 7.71672 27.9763 7.64807Z" fill="#1D211F"/>
<path fill-rule="evenodd" clip-rule="evenodd" d="M24.3198 13.7253C24.2683 13.7253 24.2168 13.7253 24.1652 13.7253C24.1821 13.1324 24.165 12.5487 24.1137 11.9742C24.0794 11.9742 24.0451 11.9742 24.0107 11.9742C24.0107 11.9227 24.0107 11.8712 24.0107 11.8197C24.1137 11.8197 24.2168 11.8197 24.3198 11.8197C24.3198 12.4549 24.3198 13.0901 24.3198 13.7253Z" fill="#1D211F"/>
<path fill-rule="evenodd" clip-rule="evenodd" d="M27.3584 7.03003H27.2039V19.03V20.4721V24.4378V25.5708H27.3584V26.5493V27.3219H27.5129V27.7854V28.4549H27.6674V28.7639V29.0729H27.8219V29.4335C27.9031 29.6268 27.9546 29.8328 27.9764 30.0515C28.0463 30.1439 28.1064 30.2469 28.1567 30.3605C28.1704 30.5919 28.2133 30.8151 28.2854 31.03C28.332 31.0665 28.3491 31.118 28.3369 31.1845H28.4914V31.4935V31.6481H28.6459V31.9571V32.1116H28.8004V32.4721H28.955V32.7811H29.1095V33.0901H29.264V33.2446H29.4185V33.3991C29.4063 33.4656 29.4234 33.5171 29.47 33.5536H29.6245C29.6349 33.6637 29.6864 33.7496 29.779 33.8111C29.8215 33.8568 29.873 33.8739 29.9335 33.8626V34.0687V34.2232H30.088V34.3777H30.2425V34.5322V34.6867H30.397V34.8412H30.5515V34.9957H30.706V35.1502C30.7741 35.1414 30.8342 35.1586 30.8863 35.2017C30.9722 35.2877 31.0151 35.3907 31.015 35.5107H31.1695H31.3241V35.6652H31.5301V35.8197H31.6846V35.9742H31.9936V36.1287H32.1481H32.3026V36.2832C32.5272 36.362 32.7504 36.4307 32.9721 36.4893C33.1182 36.555 33.2727 36.5893 33.4356 36.5923H36.0107C36.2605 36.5125 36.518 36.461 36.7833 36.4378V36.2832H36.9378H37.2468V36.1287H37.6073V35.9742H37.9163V35.8197H38.2253V35.6652H38.3798V35.5107H38.5344V35.4592V35.3047C38.6496 35.2558 38.7698 35.2215 38.8949 35.2017C38.9621 35.1519 38.9965 35.0832 38.9979 34.9957H39.2039V34.8412H39.3584V34.6867H39.5129V34.5322H39.6674V34.3777H39.8219V34.2232V34.0687H39.9764V33.7081H40.1309C40.1225 33.5698 40.1311 33.4324 40.1567 33.2961C40.2618 33.2486 40.3734 33.2314 40.4914 33.2446V33.0901H40.6459V32.9356V32.7811H40.8004V32.6266V32.4721H40.955V32.2661H41.1095V31.9571V31.8026H41.264V31.4935H41.4185V31.03V30.8755H41.573C41.5592 30.7932 41.5764 30.7245 41.6245 30.6695C41.6877 30.4617 41.7392 30.2556 41.779 30.0515C41.8422 29.8436 41.8937 29.6376 41.9335 29.4335V29.2275C41.9246 29.0481 41.9761 28.8936 42.088 28.7639V28.6094V28.3004H42.2425V27.6309V27.1674V26.8584H42.397V26.0343V25.5708V19.03V18.206V17.897H42.2425H42.088V17.7425H41.9335H41.7275V17.588H41.573H41.4185V17.4335H41.1095V17.279C40.9944 17.2941 40.8913 17.2769 40.8004 17.2275C40.6677 17.2298 40.5647 17.1783 40.4914 17.0729H40.3369V16.9184H40.1309V16.7639H39.8219V16.6094H39.5129V16.4549H39.3584H39.2039V16.3004H39.0494V16.1459H38.8949H38.6889V15.9914H38.5344C38.466 16.2293 38.4317 16.4868 38.4313 16.7639L38.4829 17.5365C38.5185 17.5094 38.5442 17.4751 38.5601 17.4335C38.5945 19.8197 38.5945 22.206 38.5601 24.5923C38.4728 25.2498 38.4128 25.9022 38.3798 26.5493C38.2995 26.6346 38.248 26.7376 38.2253 26.8584V27.4764C38.2421 27.7022 38.2249 27.9253 38.1738 28.1459C38.139 28.2027 38.1047 28.2542 38.0708 28.3004V29.0729V29.4335H37.9163V29.897V30.206V30.515H37.7618V30.8755V31.1845H37.6073V31.6481V31.9571H37.4528V32.1116V32.4206H37.2983C37.3121 32.5029 37.2949 32.5716 37.2468 32.6266C37.1379 32.6927 37.0864 32.7957 37.0923 32.9356C37.065 33.0532 37.0135 33.1562 36.9378 33.2446H36.7833V33.3991H36.6288V33.5536C36.4325 33.6126 36.2265 33.6212 36.0107 33.5794C35.9662 33.5094 35.9147 33.4493 35.8562 33.3991V33.2446H35.6502V33.0901H35.4957V32.9356H35.3412V32.7811V32.6266H35.1867V32.3176V31.9571H35.0322V31.6481V31.339H34.8777V31.03V30.6695C34.7515 30.4886 34.7 30.2826 34.7232 30.0515V29.588C34.6282 29.223 34.5767 28.8453 34.5687 28.4549C34.5343 27.8794 34.5 27.2958 34.4657 26.7038L34.4142 19.8283C34.4142 17.5191 34.4485 15.2272 34.5172 12.9528C34.4683 12.8376 34.434 12.7174 34.4142 12.5923C34.3023 12.5253 34.1822 12.4738 34.0537 12.4378V12.2832H33.8992H33.7447V12.1287H33.5901V11.9742H33.4356V11.8197H33.2811H33.1266V11.6652H32.9721V11.5107C32.743 11.4001 32.5198 11.2799 32.3026 11.1502V10.9957H32.1481H31.9936V10.8412H31.8391V10.6867H31.6846V10.5322H31.5301H31.3756V10.3777H31.1695V10.2232H31.015V10.0687H30.8605V9.91415H30.706H30.5515V9.75964C30.515 9.71309 30.4635 9.69593 30.397 9.70814V9.55363H30.2425V9.39913H30.088H29.9335V9.24462H29.779V9.09012H29.573V8.93561H29.4185V8.7811H29.264V8.6266H28.955V8.47209C28.8885 8.4843 28.837 8.46715 28.8004 8.42059C28.6997 8.33571 28.5796 8.30136 28.4399 8.31758C28.3541 8.09442 28.1996 7.93992 27.9764 7.85406V7.64806H27.8219V7.49355H27.6674V7.33904H27.5129V7.18454H27.3584V7.03003ZM24.0622 24.7983C24.1137 20.5237 24.1309 16.2491 24.1137 11.9742H24.0107V12.1287H23.8562V12.2832H23.7017V12.4378H23.4957V12.5923H23.3412V12.7468H23.1867V12.9528H23.0322V13.1073H22.8777V13.2618H22.7232V13.4163H22.5687V13.5708H22.4142V13.7253H22.2597C22.2525 13.8089 22.2868 13.869 22.3627 13.9056C22.2075 13.9524 22.053 13.9953 21.8992 14.0343H21.7446V14.1888C21.6782 14.1766 21.6267 14.1938 21.5901 14.2403V14.3948H21.4356V14.5493H21.2811H21.1266V14.7038H20.9721V14.8584H20.7661V15.0129H20.6116V15.1674H20.4571H20.3026V15.3219H20.1481V15.4764H19.9936V17.897H19.8391V18.8755V20.4721V21.5536V22.8412H19.6846V24.9528V26.8584C19.6931 27.3908 19.6846 27.923 19.6588 28.4549C19.6467 28.5383 19.6038 28.5898 19.5301 28.6094V29.588C19.5386 29.8974 19.53 30.2065 19.5043 30.515C19.4921 30.5984 19.4492 30.6499 19.3755 30.6695V31.4935H19.221C19.2374 31.71 19.2202 31.916 19.1695 32.1116V32.2661C19.1225 32.5994 19.071 32.9256 19.015 33.2446L18.8605 33.7081V33.7596V34.0687H18.706V34.5322V34.8412H18.5515V35.1502H18.397V35.5107V35.6652H18.2425V35.9742H18.088V36.2832V36.4378H17.9335V36.5923C17.9418 36.6967 17.9332 36.7997 17.9077 36.9013C17.8919 36.8597 17.8661 36.8253 17.8305 36.7983C17.7815 36.8778 17.7643 36.9637 17.779 37.0558C17.7038 37.0523 17.6352 37.0695 17.573 37.1073H17.4185V37.2618H17.264V37.4163H17.1095V37.5708H16.9549V37.7253H16.8004H16.6459V37.8798C16.4371 37.8965 16.2311 37.8794 16.0279 37.8283C16.0092 37.7931 15.9921 37.7588 15.9764 37.7253H15.8219H15.6674V37.5708H15.5129V37.4163H15.3584V37.2618V37.1073H15.2039V36.9528V36.7468C15.1703 36.7163 15.136 36.682 15.1009 36.6438C15.05 36.4755 15.0329 36.3037 15.0494 36.1287V32.1116V31.1845V30.3605C15.0188 30.0788 15.0703 29.8213 15.2039 29.588V28.7639V28.1459C15.187 27.8691 15.2041 27.5944 15.2554 27.3219C15.2902 27.2651 15.3245 27.2136 15.3584 27.1674V26.8584V26.1888V25.5708H15.5129V24.7468V24.2832V23.2017H15.6674V22.5322V21.9141V21.2446H15.8219V21.0901C15.8133 20.8834 15.822 20.6774 15.8477 20.4721C15.8539 20.3723 15.8968 20.3037 15.9764 20.2661V19.4935V18.515H16.1309V17.897V17.4335H15.8219H15.5129V17.588H15.2039H14.5858H14.5343V17.7425H14.2253H13.6073V17.897H13.2983H13.0923V18.0515H12.4743H12.1652H11.6502V18.206H11.3412H10.8777H10.0537V18.3605H9.74465H9.28113V18.412C9.21963 18.4778 9.13383 18.5121 9.02362 18.515C8.3529 18.5585 7.68338 18.61 7.01503 18.6695H6.86053V19.03V19.6481C6.81927 20.0854 6.76777 20.5146 6.70602 20.9356V21.0901V21.7081V22.6867H6.55151V24.4378V25.1073V26.2403V30.206V31.1845V31.4935V32.1116H6.70602V32.4721V32.9356C6.8322 33.1165 6.8837 33.3225 6.86053 33.5536V33.9142L7.01503 34.3777V34.8412C7.08492 34.9336 7.14497 35.0366 7.19529 35.1502C7.28094 35.4199 7.34099 35.6946 7.37555 35.9742H7.53005V36.4378H7.68456V36.7468H7.83907V37.1073H7.99357V37.4163H8.14808V37.5708H8.30259V37.7253V37.8798H8.45709V38.0343C8.54949 38.1336 8.60099 38.2538 8.6116 38.3948H8.76611C8.81591 38.4621 8.88461 38.4965 8.97211 38.4978V38.7038V38.8584H9.12662V39.0129H9.28113V39.1674H9.43563V39.3219H9.59014V39.4764H9.74465V39.6309H9.89915C10.0035 39.6225 10.1066 39.6311 10.2082 39.6566C10.1666 39.6725 10.1322 39.6983 10.1052 39.7339C10.1864 39.775 10.2722 39.8007 10.3627 39.8111C10.4058 39.8632 10.4229 39.9233 10.4142 39.9914H10.5687V40.1459H10.7232V40.3004H11.0322V40.4549H11.3412V40.6094H11.6502H12.0107V40.7639H12.1652H12.6288V40.9184H12.9378H15.5129H15.8219V40.7639H16.4914H16.8004V40.6094H17.1095H17.264V40.4549H17.4185H17.7275V40.3004H18.088V40.1459H18.397V39.9914H18.5515V39.8369H18.706C18.8343 39.7177 18.9888 39.6491 19.1695 39.6309V39.4764H19.3755V39.3219H19.5301V39.1674H19.6846V39.0129H19.8391V38.8584H19.9936V38.7038H20.1481V38.5493H20.3026V38.3948H20.4571V38.1888H20.6116C20.5994 38.1223 20.6165 38.0708 20.6631 38.0343C20.7352 38.0034 20.7867 37.9519 20.8176 37.8798V37.7253H20.9721V37.5708H21.1266V37.4163H21.2811V37.1073H21.4356V36.9528V36.7983H21.5901V36.5923H21.7446V36.2832H21.8992V35.9742H22.0537V35.8197V35.4592H22.2082C22.1993 35.4081 22.2165 35.3738 22.2597 35.3562C22.2986 35.2273 22.3501 35.1071 22.4142 34.9957V34.8412H22.5687V34.3777H22.7232V34.0687V33.7596H22.8777V33.3991H23.0322V33.0901V32.7811H23.1867V32.2661V31.9571H23.3412V31.4935V31.1845H23.4957V31.03C23.4872 30.8575 23.4958 30.6858 23.5215 30.515C23.5336 30.4316 23.5765 30.3801 23.6502 30.3605C23.635 30.2454 23.6522 30.1424 23.7017 30.0515C23.7413 29.6228 23.7756 29.1936 23.8047 28.7639C23.7962 28.5059 23.8048 28.2483 23.8305 27.9914C23.8426 27.908 23.8855 27.8565 23.9592 27.8369V27.4764C23.9506 26.6178 23.9592 25.7595 23.985 24.9013C24.0009 24.8597 24.0266 24.8253 24.0622 24.7983Z" fill="#1D211F"/>
<path fill-rule="evenodd" clip-rule="evenodd" d="M22.7231 13.2618C22.7231 13.3133 22.7231 13.3648 22.7231 13.4163C22.6716 13.4163 22.6201 13.4163 22.5686 13.4163C22.5686 13.3648 22.5686 13.3133 22.5686 13.2618C22.6201 13.2618 22.6716 13.2618 22.7231 13.2618Z" fill="#D54570"/>
<path fill-rule="evenodd" clip-rule="evenodd" d="M22.5687 13.4163C22.5687 13.4678 22.5687 13.5193 22.5687 13.5708C22.5172 13.5708 22.4657 13.5708 22.4142 13.5708C22.4142 13.5193 22.4142 13.4678 22.4142 13.4163C22.4657 13.4163 22.5172 13.4163 22.5687 13.4163Z" fill="#1D211F"/>
<path fill-rule="evenodd" clip-rule="evenodd" d="M22.4141 13.5708C22.4141 13.6223 22.4141 13.6738 22.4141 13.7253C22.3626 13.7253 22.3111 13.7253 22.2596 13.7253C22.2596 13.6738 22.2596 13.6223 22.2596 13.5708C22.3111 13.5708 22.3626 13.5708 22.4141 13.5708Z" fill="#1D211F"/>
<path fill-rule="evenodd" clip-rule="evenodd" d="M24.1652 13.7253C24.2167 13.7253 24.2682 13.7253 24.3197 13.7253C24.3197 14.6352 24.3197 15.5451 24.3197 16.455C24.2682 16.455 24.2167 16.455 24.1652 16.455C24.1652 15.5451 24.1652 14.6352 24.1652 13.7253Z" fill="#E341D2" fill-opacity="0.0666667"/>
<path fill-rule="evenodd" clip-rule="evenodd" d="M22.2597 13.7253C22.2525 13.809 22.2868 13.869 22.3627 13.9056C22.2075 13.9524 22.053 13.9953 21.8992 14.0344C21.8992 13.9829 21.8992 13.9314 21.8992 13.8798C21.9507 13.8798 22.0022 13.8798 22.0537 13.8798C22.0537 13.8283 22.0537 13.7768 22.0537 13.7253C22.1223 13.7253 22.191 13.7253 22.2597 13.7253Z" fill="#1D211F"/>
<path fill-rule="evenodd" clip-rule="evenodd" d="M21.5901 14.2404C21.5901 14.2919 21.5901 14.3434 21.5901 14.3949C21.5386 14.3949 21.487 14.3949 21.4355 14.3949C21.4355 14.3434 21.4355 14.2919 21.4355 14.2404C21.487 14.2404 21.5386 14.2404 21.5901 14.2404Z" fill="#1D211F"/>
<path fill-rule="evenodd" clip-rule="evenodd" d="M21.4356 14.3948C21.4356 14.4463 21.4356 14.4978 21.4356 14.5493C21.3841 14.5493 21.3326 14.5493 21.2811 14.5493C21.2811 14.4978 21.2811 14.4463 21.2811 14.3948C21.3326 14.3948 21.3841 14.3948 21.4356 14.3948Z" fill="#1D211F"/>
<path fill-rule="evenodd" clip-rule="evenodd" d="M20.6115 15.0128C20.6115 15.0643 20.6115 15.1158 20.6115 15.1673C20.56 15.1673 20.5085 15.1673 20.457 15.1673C20.457 15.1158 20.457 15.0643 20.457 15.0128C20.5085 15.0128 20.56 15.0128 20.6115 15.0128Z" fill="#1D211F"/>
<path fill-rule="evenodd" clip-rule="evenodd" d="M20.148 15.3219C20.148 15.3734 20.148 15.4249 20.148 15.4764C20.0965 15.4764 20.045 15.4764 19.9935 15.4764C19.9935 15.4249 19.9935 15.3734 19.9935 15.3219C20.045 15.3219 20.0965 15.3219 20.148 15.3219Z" fill="#1D211F"/>
<path fill-rule="evenodd" clip-rule="evenodd" d="M38.3798 15.8369C38.4707 15.7874 38.5737 15.7702 38.6888 15.7854C38.6888 15.854 38.6888 15.9227 38.6888 15.9914C38.6373 15.9914 38.5858 15.9914 38.5343 15.9914C38.5343 15.9399 38.5343 15.8884 38.5343 15.8369C38.4828 15.8369 38.4313 15.8369 38.3798 15.8369Z" fill="#DD4855"/>
<path fill-rule="evenodd" clip-rule="evenodd" d="M38.6888 15.9915C38.7575 15.9915 38.8262 15.9915 38.8949 15.9915C38.8949 16.043 38.8949 16.0945 38.8949 16.146C38.8262 16.146 38.7575 16.146 38.6888 16.146C38.6888 16.0945 38.6888 16.043 38.6888 15.9915Z" fill="#1D211F"/>
<path fill-rule="evenodd" clip-rule="evenodd" d="M38.3798 15.8369C38.3798 16.1974 38.3798 16.5579 38.3798 16.9185C38.3283 16.9185 38.2768 16.9185 38.2253 16.9185C38.2253 16.5579 38.2253 16.1974 38.2253 15.8369C38.2768 15.8369 38.3283 15.8369 38.3798 15.8369Z" fill="#DE487D"/>
<path fill-rule="evenodd" clip-rule="evenodd" d="M19.9935 15.4763C19.9935 16.2832 19.9935 17.0901 19.9935 17.8969C19.942 17.8969 19.8905 17.8969 19.839 17.8969C19.839 17.1073 19.839 16.3175 19.839 15.5278C19.8755 15.4813 19.927 15.4641 19.9935 15.4763Z" fill="#1D211F"/>
<path fill-rule="evenodd" clip-rule="evenodd" d="M40.4915 17.073C40.5945 17.073 40.6975 17.073 40.8005 17.073C40.8005 17.1245 40.8005 17.176 40.8005 17.2275C40.6677 17.2298 40.5647 17.1783 40.4915 17.073Z" fill="#1D211F"/>
<path fill-rule="evenodd" clip-rule="evenodd" d="M16.2854 17.279C16.1225 17.2819 15.968 17.3162 15.8219 17.382C15.8219 17.3305 15.8219 17.279 15.8219 17.2275C15.9874 17.2115 16.1419 17.2286 16.2854 17.279Z" fill="#1D211F"/>
<path fill-rule="evenodd" clip-rule="evenodd" d="M16.2854 17.2789C16.3158 17.5092 16.2815 17.7152 16.1824 17.897C16.1653 17.897 16.1481 17.897 16.1309 17.897C16.1309 17.7424 16.1309 17.5879 16.1309 17.4334C16.0279 17.4334 15.9249 17.4334 15.8219 17.4334C15.8219 17.4163 15.8219 17.3991 15.8219 17.3819C15.968 17.3162 16.1225 17.2819 16.2854 17.2789Z" fill="#1D211F"/>
<path fill-rule="evenodd" clip-rule="evenodd" d="M15.5129 17.4335C15.5129 17.485 15.5129 17.5365 15.5129 17.588C15.4099 17.588 15.3069 17.588 15.2039 17.588C15.2039 17.5365 15.2039 17.485 15.2039 17.4335C15.3069 17.4335 15.4099 17.4335 15.5129 17.4335Z" fill="#1D211F"/>
<path fill-rule="evenodd" clip-rule="evenodd" d="M19.8391 15.5278C19.8391 16.3175 19.8391 17.1072 19.8391 17.8969C19.8391 18.2231 19.8391 18.5493 19.8391 18.8755C19.8164 18.9962 19.7649 19.0992 19.6846 19.1845C19.7334 17.9575 19.7849 16.7386 19.8391 15.5278Z" fill="#E84B2B"/>
<path fill-rule="evenodd" clip-rule="evenodd" d="M15.8219 17.382C15.8219 17.3991 15.8219 17.4163 15.8219 17.4335C15.7189 17.4335 15.6159 17.4335 15.5129 17.4335C15.4098 17.4335 15.3068 17.4335 15.2038 17.4335C15.2038 17.485 15.2038 17.5365 15.2038 17.588C14.9978 17.588 14.7918 17.588 14.5858 17.588C14.6767 17.5385 14.7797 17.5213 14.8948 17.5365C14.8948 17.485 14.8948 17.4335 14.8948 17.382C15.2038 17.382 15.5129 17.382 15.8219 17.382Z" fill="#DA483F"/>
<path fill-rule="evenodd" clip-rule="evenodd" d="M38.2253 16.9185C38.2768 16.9185 38.3283 16.9185 38.3798 16.9185C38.3798 17.1416 38.3798 17.3648 38.3798 17.588C38.3798 17.691 38.3798 17.794 38.3798 17.897C38.3283 17.897 38.2768 17.897 38.2253 17.897C38.2253 17.5708 38.2253 17.2446 38.2253 16.9185Z" fill="#1D211F"/>
<path fill-rule="evenodd" clip-rule="evenodd" d="M14.5344 17.588C14.5344 17.6395 14.5344 17.691 14.5344 17.7425C14.4314 17.7425 14.3283 17.7425 14.2253 17.7425C14.2253 17.691 14.2253 17.6395 14.2253 17.588C14.3283 17.588 14.4314 17.588 14.5344 17.588Z" fill="#CC4480"/>
<path fill-rule="evenodd" clip-rule="evenodd" d="M41.7274 17.588C41.7961 17.588 41.8648 17.588 41.9334 17.588C41.9334 17.6395 41.9334 17.691 41.9334 17.7425C41.8648 17.7425 41.7961 17.7425 41.7274 17.7425C41.7274 17.691 41.7274 17.6395 41.7274 17.588Z" fill="#1D211F"/>
<path fill-rule="evenodd" clip-rule="evenodd" d="M13.6072 17.7424C13.6072 17.7939 13.6072 17.8454 13.6072 17.8969C13.5042 17.8969 13.4012 17.8969 13.2982 17.8969C13.2982 17.8454 13.2982 17.7939 13.2982 17.7424C13.4012 17.7424 13.5042 17.7424 13.6072 17.7424Z" fill="#CD4561"/>
<path fill-rule="evenodd" clip-rule="evenodd" d="M27.2038 7.03003C27.2038 11.03 27.2038 15.03 27.2038 19.03C27.1523 19.03 27.1008 19.03 27.0493 19.03C27.1258 15.0222 27.1774 11.0223 27.2038 7.03003Z" fill="#DF4A1E"/>
<path fill-rule="evenodd" clip-rule="evenodd" d="M12.4742 17.897C12.4742 17.9485 12.4742 18 12.4742 18.0515C12.3712 18.0515 12.2682 18.0515 12.1652 18.0515C12.1652 18 12.1652 17.9485 12.1652 17.897C12.2682 17.897 12.3712 17.897 12.4742 17.897Z" fill="#D34668"/>
<path fill-rule="evenodd" clip-rule="evenodd" d="M12.4742 17.897C12.6803 17.897 12.8863 17.897 13.0923 17.897C13.0923 17.9485 13.0923 18 13.0923 18.0515C12.8863 18.0515 12.6803 18.0515 12.4742 18.0515C12.4742 18 12.4742 17.9485 12.4742 17.897Z" fill="#1D211F"/>
<path fill-rule="evenodd" clip-rule="evenodd" d="M24.1137 11.9742C24.1649 12.5487 24.1821 13.1324 24.1652 13.7253C24.1652 14.6352 24.1652 15.545 24.1652 16.4549C24.1652 16.9356 24.1652 17.4163 24.1652 17.897C24.1652 19.7167 24.1652 21.5365 24.1652 23.3562C24.1652 23.9399 24.1652 24.5236 24.1652 25.1073C24.1652 25.2103 24.1652 25.3133 24.1652 25.4163C24.1267 25.8406 24.0752 26.2697 24.0107 26.7039C24.0107 26.9099 24.0107 27.1159 24.0107 27.3219C24.0107 27.3734 24.0107 27.4249 24.0107 27.4764C23.9935 27.4764 23.9763 27.4764 23.9592 27.4764C23.9506 26.6178 23.9592 25.7595 23.9849 24.9013C24.0008 24.8597 24.0265 24.8253 24.0622 24.7983C24.1137 20.5238 24.1308 16.2491 24.1137 11.9742Z" fill="#1D211F"/>
<path fill-rule="evenodd" clip-rule="evenodd" d="M24.1652 16.455C24.2167 16.455 24.2682 16.455 24.3197 16.455C24.3197 17.6739 24.3197 18.8927 24.3197 20.1116C24.3022 19.3633 24.2507 18.6252 24.1652 17.897C24.1652 17.4163 24.1652 16.9356 24.1652 16.455Z" fill="#1D211F"/>
<path fill-rule="evenodd" clip-rule="evenodd" d="M11.3412 18.0515C11.3412 18.103 11.3412 18.1545 11.3412 18.206C11.1867 18.206 11.0322 18.206 10.8777 18.206C10.8777 18.1545 10.8777 18.103 10.8777 18.0515C11.0322 18.0515 11.1867 18.0515 11.3412 18.0515Z" fill="#D84681"/>
<path fill-rule="evenodd" clip-rule="evenodd" d="M11.3412 18.0515C11.4442 18.0515 11.5472 18.0515 11.6502 18.0515C11.6502 18.103 11.6502 18.1545 11.6502 18.206C11.5472 18.206 11.4442 18.206 11.3412 18.206C11.3412 18.1545 11.3412 18.103 11.3412 18.0515Z" fill="#1D211F"/>
<path fill-rule="evenodd" clip-rule="evenodd" d="M34.5172 12.9528C34.5 17.2704 34.5172 21.5795 34.5687 25.8798C34.5687 26.0515 34.5687 26.2232 34.5687 26.3948C34.5687 26.7038 34.5687 27.0128 34.5687 27.3219C34.5687 27.6995 34.5687 28.0772 34.5687 28.4549C34.5343 27.8794 34.5 27.2957 34.4657 26.7038C34.4485 24.412 34.4313 22.1201 34.4142 19.8283C34.4142 17.519 34.4485 15.2272 34.5172 12.9528Z" fill="#1D211F"/>
<path fill-rule="evenodd" clip-rule="evenodd" d="M10.0536 18.2061C10.0536 18.2576 10.0536 18.3091 10.0536 18.3606C9.95064 18.3606 9.84763 18.3606 9.74463 18.3606C9.74463 18.3091 9.74463 18.2576 9.74463 18.2061C9.84763 18.2061 9.95064 18.2061 10.0536 18.2061Z" fill="#1D211F"/>
<path fill-rule="evenodd" clip-rule="evenodd" d="M9.28103 18.3605C9.28103 18.3776 9.28103 18.3948 9.28103 18.412C8.95008 18.4101 8.62392 18.4445 8.30249 18.515C8.32211 18.4413 8.37361 18.3984 8.457 18.3862C8.73114 18.3605 9.0058 18.3519 9.28103 18.3605Z" fill="#1D211F"/>
<path fill-rule="evenodd" clip-rule="evenodd" d="M9.28111 18.4119C9.21962 18.4777 9.13381 18.5121 9.0236 18.5149C8.35289 18.5584 7.68336 18.6099 7.01501 18.6694C7.17199 18.5861 7.34365 18.5346 7.53004 18.5149C7.78755 18.5149 8.04506 18.5149 8.30257 18.5149C8.62399 18.4444 8.95016 18.4101 9.28111 18.4119Z" fill="#1D211F"/>
<path fill-rule="evenodd" clip-rule="evenodd" d="M7.53 18.515C7.34362 18.5346 7.17196 18.5861 7.01498 18.6695C6.96348 18.6695 6.91198 18.6695 6.86047 18.6695C6.86047 18.618 6.86047 18.5665 6.86047 18.515C7.08363 18.515 7.30684 18.515 7.53 18.515Z" fill="#D24668"/>
<path fill-rule="evenodd" clip-rule="evenodd" d="M16.1308 18.515C16.1032 18.8421 16.0688 19.1682 16.0278 19.4936C16.0107 19.4936 15.9935 19.4936 15.9763 19.4936C15.9763 19.1674 15.9763 18.8412 15.9763 18.515C16.0278 18.515 16.0793 18.515 16.1308 18.515Z" fill="#1D211F"/>
<path fill-rule="evenodd" clip-rule="evenodd" d="M42.397 18.2061C42.4485 18.2061 42.5 18.2061 42.5515 18.2061C42.5515 18.4807 42.5515 18.7554 42.5515 19.0301C42.5 19.0301 42.4485 19.0301 42.397 19.0301C42.397 18.7554 42.397 18.4807 42.397 18.2061Z" fill="#D44661"/>
<path fill-rule="evenodd" clip-rule="evenodd" d="M16.1308 17.897C16.148 17.897 16.1652 17.897 16.1823 17.897C16.1909 18.3265 16.1823 18.7557 16.1566 19.1845C16.1565 19.3159 16.1135 19.4189 16.0278 19.4935C16.0688 19.1682 16.1032 18.842 16.1308 18.515C16.1308 18.309 16.1308 18.103 16.1308 17.897Z" fill="#DC4863"/>
<path fill-rule="evenodd" clip-rule="evenodd" d="M6.86044 19.03C6.86044 19.236 6.86044 19.442 6.86044 19.6481C6.80894 19.6481 6.75743 19.6481 6.70593 19.6481C6.70593 19.442 6.70593 19.236 6.70593 19.03C6.75743 19.03 6.80894 19.03 6.86044 19.03Z" fill="#DF495A"/>
<path fill-rule="evenodd" clip-rule="evenodd" d="M34.4142 12.5923C34.4657 12.5923 34.5172 12.5923 34.5687 12.5923C34.5687 17.0215 34.5687 21.4507 34.5687 25.8798C34.5172 21.5795 34.5 17.2705 34.5172 12.9528C34.4683 12.8376 34.434 12.7174 34.4142 12.5923Z" fill="#1D211F"/>
<path fill-rule="evenodd" clip-rule="evenodd" d="M19.8391 18.8755C19.8391 19.4077 19.8391 19.9399 19.8391 20.4721C19.7876 20.4721 19.7361 20.4721 19.6846 20.4721C19.6846 20.1974 19.6846 19.9227 19.6846 19.648C19.6846 19.4935 19.6846 19.339 19.6846 19.1845C19.7649 19.0992 19.8164 18.9962 19.8391 18.8755Z" fill="#D34583"/>
<path fill-rule="evenodd" clip-rule="evenodd" d="M24.1652 17.897C24.2507 18.6251 24.3022 19.3633 24.3197 20.1116C24.3197 21.1931 24.3197 22.2747 24.3197 23.3562C24.2682 23.3562 24.2167 23.3562 24.1652 23.3562C24.1652 21.5365 24.1652 19.7167 24.1652 17.897Z" fill="#1D211F"/>
<path fill-rule="evenodd" clip-rule="evenodd" d="M6.70593 19.6481C6.75743 19.6481 6.80894 19.6481 6.86044 19.6481C6.81919 20.0854 6.76768 20.5146 6.70593 20.9356C6.70593 20.5065 6.70593 20.0772 6.70593 19.6481Z" fill="#1D211F"/>
<path fill-rule="evenodd" clip-rule="evenodd" d="M15.9764 20.2661C15.9513 20.491 15.917 20.7142 15.8734 20.9356C15.8856 21.0021 15.8685 21.0536 15.8219 21.0901C15.8134 20.8834 15.822 20.6774 15.8477 20.4721C15.854 20.3724 15.8969 20.3037 15.9764 20.2661Z" fill="#1D211F"/>
<path fill-rule="evenodd" clip-rule="evenodd" d="M15.9764 19.4935C15.9936 19.4935 16.0108 19.4935 16.0279 19.4935C16.0365 19.9231 16.0279 20.3522 16.0022 20.7811C15.99 20.8645 15.9471 20.916 15.8734 20.9356C15.917 20.7142 15.9513 20.491 15.9764 20.2661C15.9764 20.0086 15.9764 19.751 15.9764 19.4935Z" fill="#1D211F"/>
<path fill-rule="evenodd" clip-rule="evenodd" d="M27.0493 19.03C27.1008 19.03 27.1523 19.03 27.2038 19.03C27.2038 19.5107 27.2038 19.9914 27.2038 20.4721C27.1863 21.1176 27.1348 21.7528 27.0493 22.3777C27.0493 21.2618 27.0493 20.1459 27.0493 19.03Z" fill="#1D211F"/>
<path fill-rule="evenodd" clip-rule="evenodd" d="M19.6846 20.472C19.7361 20.472 19.7876 20.472 19.8391 20.472C19.8391 20.8326 19.8391 21.1931 19.8391 21.5536C19.7876 21.5536 19.7361 21.5536 19.6846 21.5536C19.6846 21.1931 19.6846 20.8326 19.6846 20.472Z" fill="#1D211F"/>
<path fill-rule="evenodd" clip-rule="evenodd" d="M6.70602 21.0901C6.70602 21.2961 6.70602 21.5021 6.70602 21.7081C6.65452 21.7081 6.60302 21.7081 6.55151 21.7081C6.55151 21.5021 6.55151 21.2961 6.55151 21.0901C6.60302 21.0901 6.65452 21.0901 6.70602 21.0901Z" fill="#E04872"/>
<path fill-rule="evenodd" clip-rule="evenodd" d="M15.8219 21.2446C15.8219 21.4678 15.8219 21.691 15.8219 21.9142C15.7704 21.9142 15.7189 21.9142 15.6674 21.9142C15.6674 21.691 15.6674 21.4678 15.6674 21.2446C15.7189 21.2446 15.7704 21.2446 15.8219 21.2446Z" fill="#1D211F"/>
<path fill-rule="evenodd" clip-rule="evenodd" d="M38.3798 17.588C38.4141 18.0091 38.4484 18.4383 38.4828 18.8756C38.5514 20.7296 38.5514 22.5837 38.4828 24.4378C38.4484 24.565 38.414 24.6851 38.3798 24.7983C38.3798 22.4979 38.3798 20.1975 38.3798 17.897C38.3798 17.794 38.3798 17.691 38.3798 17.588Z" fill="#1D211F"/>
<path fill-rule="evenodd" clip-rule="evenodd" d="M6.55151 21.7081C6.60302 21.7081 6.65452 21.7081 6.70602 21.7081C6.70602 22.0343 6.70602 22.3605 6.70602 22.6867C6.65452 22.6867 6.60302 22.6867 6.55151 22.6867C6.55151 22.3605 6.55151 22.0343 6.55151 21.7081Z" fill="#1D211F"/>
<path fill-rule="evenodd" clip-rule="evenodd" d="M15.6674 21.9142C15.7189 21.9142 15.7704 21.9142 15.8219 21.9142C15.845 22.1453 15.7935 22.3513 15.6674 22.5322C15.6674 22.3262 15.6674 22.1202 15.6674 21.9142Z" fill="#1D211F"/>
<path fill-rule="evenodd" clip-rule="evenodd" d="M42.397 19.03C42.4485 19.03 42.5 19.03 42.5515 19.03C42.5515 21.2103 42.5515 23.3906 42.5515 25.5708C42.5 25.5708 42.4485 25.5708 42.397 25.5708C42.397 23.3906 42.397 21.2103 42.397 19.03Z" fill="#1D211F"/>
<path fill-rule="evenodd" clip-rule="evenodd" d="M27.2038 20.472C27.2038 21.794 27.2038 23.1158 27.2038 24.4377C27.1523 24.4377 27.1008 24.4377 27.0493 24.4377C27.0493 23.751 27.0493 23.0643 27.0493 22.3776C27.1348 21.7527 27.1863 21.1176 27.2038 20.472Z" fill="#1D211F"/>
<path fill-rule="evenodd" clip-rule="evenodd" d="M19.6846 21.5536C19.7361 21.5536 19.7876 21.5536 19.8391 21.5536C19.8391 21.9828 19.8391 22.412 19.8391 22.8411C19.7876 22.8411 19.7361 22.8411 19.6846 22.8411C19.6846 22.412 19.6846 21.9828 19.6846 21.5536Z" fill="#1D211F"/>
<path fill-rule="evenodd" clip-rule="evenodd" d="M38.3798 15.8369C38.4313 15.8369 38.4828 15.8369 38.5343 15.8369C38.5343 15.8884 38.5343 15.9399 38.5343 15.9914C38.4659 16.2293 38.4316 16.4868 38.4313 16.764C38.4484 17.0215 38.4656 17.279 38.4828 17.5365C38.5184 17.5094 38.5442 17.4751 38.56 17.4335C38.5944 19.8197 38.5944 22.206 38.56 24.5923C38.4727 25.2499 38.4127 25.9022 38.3798 26.5494C38.3798 26.2232 38.3798 25.897 38.3798 25.5708C38.3798 25.3648 38.3798 25.1588 38.3798 24.9528C38.3798 24.9013 38.3798 24.8498 38.3798 24.7983C38.414 24.6851 38.4484 24.5649 38.4828 24.4378C38.5514 22.5837 38.5514 20.7296 38.4828 18.8755C38.4484 18.4383 38.4141 18.0091 38.3798 17.588C38.3798 17.3648 38.3798 17.1416 38.3798 16.9185C38.3798 16.5579 38.3798 16.1974 38.3798 15.8369Z" fill="#1D211F"/>
<path fill-rule="evenodd" clip-rule="evenodd" d="M15.6673 23.2017C15.6673 23.5622 15.6673 23.9227 15.6673 24.2832C15.6158 24.2832 15.5643 24.2832 15.5128 24.2832C15.5128 23.9227 15.5128 23.5622 15.5128 23.2017C15.5643 23.2017 15.6158 23.2017 15.6673 23.2017Z" fill="#1D211F"/>
<path fill-rule="evenodd" clip-rule="evenodd" d="M19.6845 19.6481C19.6845 19.9227 19.6845 20.1974 19.6845 20.4721C19.6845 20.8326 19.6845 21.1931 19.6845 21.5537C19.6845 21.9828 19.6845 22.412 19.6845 22.8412C19.6845 23.5451 19.6845 24.2489 19.6845 24.9528C19.6673 24.9528 19.6501 24.9528 19.633 24.9528C19.5316 25.3614 19.4973 25.7905 19.53 26.2403C19.53 26.4464 19.53 26.6524 19.53 26.8584C19.53 27.442 19.53 28.0258 19.53 28.6094C19.53 28.9356 19.53 29.2618 19.53 29.588C19.4785 29.588 19.427 29.588 19.3755 29.588C19.3755 29.9485 19.3755 30.309 19.3755 30.6695C19.3583 30.6695 19.3411 30.6695 19.324 30.6695C19.324 30.1889 19.324 29.7081 19.324 29.2275C19.3755 29.2275 19.427 29.2275 19.4785 29.2275C19.4699 27.7853 19.4785 26.3432 19.5042 24.9013C19.5981 23.1433 19.6582 21.3922 19.6845 19.6481Z" fill="#1D211F"/>
<path fill-rule="evenodd" clip-rule="evenodd" d="M15.5128 24.2832C15.5643 24.2832 15.6158 24.2832 15.6673 24.2832C15.6673 24.4377 15.6673 24.5922 15.6673 24.7467C15.6158 24.7467 15.5643 24.7467 15.5128 24.7467C15.5128 24.5922 15.5128 24.4377 15.5128 24.2832Z" fill="#E3491D" fill-opacity="0.129412"/>
<path fill-rule="evenodd" clip-rule="evenodd" d="M24.1652 23.3562C24.2167 23.3562 24.2682 23.3562 24.3197 23.3562C24.3197 23.9399 24.3197 24.5236 24.3197 25.1073C24.2682 25.1073 24.2167 25.1073 24.1652 25.1073C24.1652 24.5236 24.1652 23.9399 24.1652 23.3562Z" fill="#E2491D" fill-opacity="0.129412"/>
<path fill-rule="evenodd" clip-rule="evenodd" d="M6.55148 24.4377C6.55148 24.6609 6.55148 24.8841 6.55148 25.1073C6.49998 25.1073 6.44847 25.1073 6.39697 25.1073C6.39697 24.8841 6.39697 24.6609 6.39697 24.4377C6.44847 24.4377 6.49998 24.4377 6.55148 24.4377Z" fill="#D5465D"/>
<path fill-rule="evenodd" clip-rule="evenodd" d="M38.3798 24.9528C38.3798 25.1588 38.3798 25.3648 38.3798 25.5708C38.2995 25.6561 38.248 25.7591 38.2253 25.8798C38.2253 25.5708 38.2253 25.2618 38.2253 24.9528C38.2768 24.9528 38.3283 24.9528 38.3798 24.9528Z" fill="#1D211F"/>
<path fill-rule="evenodd" clip-rule="evenodd" d="M19.633 24.9528C19.6657 25.4026 19.6314 25.8317 19.53 26.2403C19.4973 25.7905 19.5317 25.3613 19.633 24.9528Z" fill="#DA4850"/>
<path fill-rule="evenodd" clip-rule="evenodd" d="M19.633 24.9528C19.6502 24.9528 19.6674 24.9528 19.6845 24.9528C19.6845 25.5879 19.6845 26.2232 19.6845 26.8583C19.633 26.8583 19.5815 26.8583 19.53 26.8583C19.53 26.6523 19.53 26.4463 19.53 26.2403C19.6314 25.8317 19.6657 25.4026 19.633 24.9528Z" fill="#1D211F"/>
<path fill-rule="evenodd" clip-rule="evenodd" d="M42.397 25.5708C42.4485 25.5708 42.5 25.5708 42.5515 25.5708C42.5515 25.7253 42.5515 25.8798 42.5515 26.0343C42.5 26.0343 42.4485 26.0343 42.397 26.0343C42.397 25.8798 42.397 25.7253 42.397 25.5708Z" fill="#CD447C"/>
<path fill-rule="evenodd" clip-rule="evenodd" d="M27.2039 25.5708C27.2554 25.5708 27.3069 25.5708 27.3584 25.5708C27.3584 25.897 27.3584 26.2232 27.3584 26.5493C27.3069 26.5493 27.2554 26.5493 27.2039 26.5493C27.2039 26.2232 27.2039 25.897 27.2039 25.5708Z" fill="#1D211F"/>
<path fill-rule="evenodd" clip-rule="evenodd" d="M6.39697 25.1073C6.44847 25.1073 6.49998 25.1073 6.55148 25.1073C6.55148 25.485 6.55148 25.8627 6.55148 26.2403C6.49998 26.2403 6.44847 26.2403 6.39697 26.2403C6.39697 25.8627 6.39697 25.485 6.39697 25.1073Z" fill="#1D211F"/>
<path fill-rule="evenodd" clip-rule="evenodd" d="M38.3798 25.5708C38.3798 25.897 38.3798 26.2232 38.3798 26.5493C38.2995 26.6346 38.248 26.7376 38.2253 26.8584C38.2253 26.5322 38.2253 26.206 38.2253 25.8798C38.248 25.7591 38.2995 25.6561 38.3798 25.5708Z" fill="#1D211F"/>
<path fill-rule="evenodd" clip-rule="evenodd" d="M15.5129 25.5708C15.5129 25.7768 15.5129 25.9828 15.5129 26.1888C15.4614 26.1888 15.4099 26.1888 15.3584 26.1888C15.3584 25.9828 15.3584 25.7768 15.3584 25.5708C15.4099 25.5708 15.4614 25.5708 15.5129 25.5708Z" fill="#1D211F"/>
<path fill-rule="evenodd" clip-rule="evenodd" d="M24.1652 25.4163C24.1652 25.8454 24.1652 26.2746 24.1652 26.7038C24.1137 26.7038 24.0622 26.7038 24.0107 26.7038C24.0753 26.2697 24.1268 25.8405 24.1652 25.4163Z" fill="#1D211F"/>
<path fill-rule="evenodd" clip-rule="evenodd" d="M15.3584 26.1888C15.4099 26.1888 15.4614 26.1888 15.5129 26.1888C15.5129 26.412 15.5129 26.6352 15.5129 26.8584C15.4614 26.8584 15.4099 26.8584 15.3584 26.8584C15.3584 26.6352 15.3584 26.412 15.3584 26.1888Z" fill="#1D211F"/>
<path fill-rule="evenodd" clip-rule="evenodd" d="M34.5686 26.3948C34.6201 26.3948 34.6716 26.3948 34.7231 26.3948C34.7231 26.7038 34.7231 27.0128 34.7231 27.3218C34.6716 27.3218 34.6201 27.3218 34.5686 27.3218C34.5686 27.0128 34.5686 26.7038 34.5686 26.3948Z" fill="#1D211F"/>
<path fill-rule="evenodd" clip-rule="evenodd" d="M42.3969 26.8584C42.3969 26.9614 42.3969 27.0644 42.3969 27.1674C42.3454 27.1674 42.2939 27.1674 42.2424 27.1674C42.2424 27.0644 42.2424 26.9614 42.2424 26.8584C42.2939 26.8584 42.3454 26.8584 42.3969 26.8584Z" fill="#1D211F"/>
<path fill-rule="evenodd" clip-rule="evenodd" d="M24.0107 26.7039C24.0622 26.7039 24.1137 26.7039 24.1652 26.7039C24.1652 26.9099 24.1652 27.1159 24.1652 27.3219C24.1137 27.3219 24.0622 27.3219 24.0107 27.3219C24.0107 27.1159 24.0107 26.9099 24.0107 26.7039Z" fill="#DE4941"/>
<path fill-rule="evenodd" clip-rule="evenodd" d="M42.2424 27.1674C42.2939 27.1674 42.3454 27.1674 42.3969 27.1674C42.3969 27.3219 42.3969 27.4764 42.3969 27.6309C42.3454 27.6309 42.2939 27.6309 42.2424 27.6309C42.2424 27.4764 42.2424 27.3219 42.2424 27.1674Z" fill="#CF4589"/>
<path fill-rule="evenodd" clip-rule="evenodd" d="M15.3583 27.1674C15.3583 27.4935 15.3583 27.8197 15.3583 28.1459C15.3068 28.1459 15.2553 28.1459 15.2038 28.1459C15.1869 27.8691 15.2041 27.5944 15.2553 27.3219C15.2901 27.2651 15.3244 27.2136 15.3583 27.1674Z" fill="#1D211F"/>
<path fill-rule="evenodd" clip-rule="evenodd" d="M27.3584 27.3219C27.4099 27.3219 27.4614 27.3219 27.5129 27.3219C27.5129 27.4764 27.5129 27.6309 27.5129 27.7854C27.4614 27.7854 27.4099 27.7854 27.3584 27.7854C27.3584 27.6309 27.3584 27.4764 27.3584 27.3219Z" fill="#1D211F"/>
<path fill-rule="evenodd" clip-rule="evenodd" d="M38.2253 27.4763C38.2421 27.7021 38.2249 27.9253 38.1738 28.1458C38.139 28.2026 38.1047 28.2541 38.0708 28.3004C38.0708 28.0257 38.0708 27.751 38.0708 27.4763C38.1223 27.4763 38.1738 27.4763 38.2253 27.4763Z" fill="#1D211F"/>
<path fill-rule="evenodd" clip-rule="evenodd" d="M19.53 26.8584C19.5815 26.8584 19.633 26.8584 19.6845 26.8584C19.6931 27.3909 19.6845 27.9231 19.6588 28.455C19.6466 28.5383 19.6037 28.5898 19.53 28.6095C19.53 28.0258 19.53 27.4421 19.53 26.8584Z" fill="#1D211F"/>
<path fill-rule="evenodd" clip-rule="evenodd" d="M23.9592 27.8369C23.9584 28.1506 23.924 28.4596 23.8562 28.764C23.8391 28.764 23.8219 28.764 23.8047 28.764C23.7962 28.5059 23.8048 28.2484 23.8305 27.9914C23.8426 27.908 23.8855 27.8565 23.9592 27.8369Z" fill="#1D211F"/>
<path fill-rule="evenodd" clip-rule="evenodd" d="M34.5686 27.3219C34.6201 27.3219 34.6716 27.3219 34.7231 27.3219C34.7231 27.7511 34.7231 28.1803 34.7231 28.6095C34.6922 28.5374 34.6407 28.4858 34.5686 28.4549C34.5686 28.0773 34.5686 27.6996 34.5686 27.3219Z" fill="#1D211F"/>
<path fill-rule="evenodd" clip-rule="evenodd" d="M6.39697 26.2404C6.44847 26.2404 6.49998 26.2404 6.55148 26.2404C6.55148 27.5623 6.55148 28.8841 6.55148 30.206C6.49998 30.206 6.44847 30.206 6.39697 30.206C6.39697 28.8841 6.39697 27.5623 6.39697 26.2404Z" fill="#1D211F"/>
<path fill-rule="evenodd" clip-rule="evenodd" d="M42.2425 28.3004C42.2425 28.4034 42.2425 28.5064 42.2425 28.6094C42.191 28.6094 42.1395 28.6094 42.088 28.6094C42.088 28.5064 42.088 28.4034 42.088 28.3004C42.1395 28.3004 42.191 28.3004 42.2425 28.3004Z" fill="#D24567"/>
<path fill-rule="evenodd" clip-rule="evenodd" d="M15.2039 28.1459C15.2554 28.1459 15.3069 28.1459 15.3584 28.1459C15.3584 28.3519 15.3584 28.5579 15.3584 28.7639C15.3069 28.7639 15.2554 28.7639 15.2039 28.7639C15.2039 28.5579 15.2039 28.3519 15.2039 28.1459Z" fill="#D0455C"/>
<path fill-rule="evenodd" clip-rule="evenodd" d="M23.9592 27.4763C23.9764 27.4763 23.9936 27.4763 24.0107 27.4763C24.0107 27.9055 24.0107 28.3347 24.0107 28.7639C23.9592 28.7639 23.9077 28.7639 23.8562 28.7639C23.924 28.4595 23.9584 28.1505 23.9592 27.8368C23.9592 27.7167 23.9592 27.5965 23.9592 27.4763Z" fill="#D04561"/>
<path fill-rule="evenodd" clip-rule="evenodd" d="M27.5128 28.455C27.5643 28.455 27.6158 28.455 27.6673 28.455C27.6673 28.558 27.6673 28.661 27.6673 28.764C27.6158 28.764 27.5643 28.764 27.5128 28.764C27.5128 28.661 27.5128 28.558 27.5128 28.455Z" fill="#D84752"/>
<path fill-rule="evenodd" clip-rule="evenodd" d="M42.088 28.7639C42.088 28.9184 42.088 29.0729 42.088 29.2274C42.0365 29.2274 41.985 29.2274 41.9335 29.2274C41.9246 29.0481 41.9761 28.8935 42.088 28.7639Z" fill="#1D211F"/>
<path fill-rule="evenodd" clip-rule="evenodd" d="M27.6674 29.073C27.7189 29.073 27.7704 29.073 27.8219 29.073C27.8219 29.1932 27.8219 29.3134 27.8219 29.4335C27.7704 29.4335 27.7189 29.4335 27.6674 29.4335C27.6674 29.3134 27.6674 29.1932 27.6674 29.073Z" fill="#1D211F"/>
<path fill-rule="evenodd" clip-rule="evenodd" d="M38.0708 29.073C38.0708 29.1932 38.0708 29.3134 38.0708 29.4335C38.0193 29.4335 37.9678 29.4335 37.9163 29.4335C37.9163 29.3134 37.9163 29.1932 37.9163 29.073C37.9678 29.073 38.0193 29.073 38.0708 29.073Z" fill="#1D211F"/>
<path fill-rule="evenodd" clip-rule="evenodd" d="M34.5686 28.455C34.6407 28.4859 34.6922 28.5374 34.7231 28.6095C34.7231 28.9356 34.7231 29.2618 34.7231 29.588C34.6281 29.223 34.5766 28.8453 34.5686 28.455Z" fill="#1D211F"/>
<path fill-rule="evenodd" clip-rule="evenodd" d="M23.8047 28.7639C23.8218 28.7639 23.839 28.7639 23.8562 28.7639C23.8647 29.142 23.8562 29.5197 23.8304 29.897C23.8183 29.9803 23.7754 30.0318 23.7017 30.0515C23.7412 29.6228 23.7755 29.1936 23.8047 28.7639Z" fill="#1D211F"/>
<path fill-rule="evenodd" clip-rule="evenodd" d="M27.8219 29.4335C27.9031 29.6268 27.9546 29.8328 27.9764 30.0515C27.9249 30.0515 27.8734 30.0515 27.8219 30.0515C27.8219 29.8455 27.8219 29.6395 27.8219 29.4335Z" fill="#1D211F"/>
<path fill-rule="evenodd" clip-rule="evenodd" d="M34.7231 29.588C34.7746 29.588 34.8261 29.588 34.8777 29.588C34.8777 29.8455 34.8777 30.103 34.8777 30.3605C34.855 30.2398 34.8035 30.1368 34.7231 30.0515C34.7231 29.897 34.7231 29.7425 34.7231 29.588Z" fill="#D0447F"/>
<path fill-rule="evenodd" clip-rule="evenodd" d="M41.9334 29.4335C41.9334 29.6395 41.9334 29.8455 41.9334 30.0515C41.8819 30.0515 41.8304 30.0515 41.7789 30.0515C41.8422 29.8436 41.8937 29.6376 41.9334 29.4335Z" fill="#1D211F"/>
<path fill-rule="evenodd" clip-rule="evenodd" d="M37.9162 29.897C37.9162 30 37.9162 30.103 37.9162 30.206C37.8647 30.206 37.8132 30.206 37.7617 30.206C37.7617 30.103 37.7617 30 37.7617 29.897C37.8132 29.897 37.8647 29.897 37.9162 29.897Z" fill="#DD4867"/>
<path fill-rule="evenodd" clip-rule="evenodd" d="M15.2038 29.588C15.2038 29.8455 15.2038 30.103 15.2038 30.3605C15.1523 30.3605 15.1008 30.3605 15.0493 30.3605C15.0188 30.0788 15.0703 29.8213 15.2038 29.588Z" fill="#1D211F"/>
<path fill-rule="evenodd" clip-rule="evenodd" d="M6.39697 30.2061C6.44847 30.2061 6.49998 30.2061 6.55148 30.2061C6.55148 30.5322 6.55148 30.8584 6.55148 31.1846C6.49998 31.1846 6.44847 31.1846 6.39697 31.1846C6.39697 30.8584 6.39697 30.5322 6.39697 30.2061Z" fill="#1D211F"/>
<path fill-rule="evenodd" clip-rule="evenodd" d="M19.53 29.588C19.5385 29.8975 19.5299 30.2065 19.5042 30.5151C19.4921 30.5984 19.4492 30.6499 19.3755 30.6696C19.3755 30.309 19.3755 29.9485 19.3755 29.588C19.427 29.588 19.4785 29.588 19.53 29.588Z" fill="#1D211F"/>
<path fill-rule="evenodd" clip-rule="evenodd" d="M34.7232 30.0515C34.8035 30.1368 34.855 30.2398 34.8777 30.3605C34.8777 30.4635 34.8777 30.5665 34.8777 30.6695C34.7515 30.4887 34.7 30.2827 34.7232 30.0515Z" fill="#1D211F"/>
<path fill-rule="evenodd" clip-rule="evenodd" d="M37.7617 30.2061C37.8132 30.2061 37.8647 30.2061 37.9162 30.2061C37.9162 30.3091 37.9162 30.4121 37.9162 30.5151C37.8647 30.5151 37.8132 30.5151 37.7617 30.5151C37.7617 30.4121 37.7617 30.3091 37.7617 30.2061Z" fill="#1D211F"/>
<path fill-rule="evenodd" clip-rule="evenodd" d="M23.6502 30.3605C23.6066 30.5819 23.5723 30.8051 23.5472 31.03C23.5301 31.03 23.5129 31.03 23.4957 31.03C23.4872 30.8575 23.4958 30.6858 23.5215 30.515C23.5336 30.4316 23.5765 30.3801 23.6502 30.3605Z" fill="#1D211F"/>
<path fill-rule="evenodd" clip-rule="evenodd" d="M27.9763 30.0515C28.0462 30.1439 28.1063 30.2469 28.1566 30.3605C28.1703 30.5919 28.2132 30.8151 28.2853 31.0301C28.2338 31.0301 28.1823 31.0301 28.1308 31.0301C28.1186 30.6949 28.0671 30.3687 27.9763 30.0515Z" fill="#1D211F"/>
<path fill-rule="evenodd" clip-rule="evenodd" d="M41.7789 30.0515C41.7789 30.2575 41.7789 30.4635 41.7789 30.6695C41.7274 30.6695 41.6759 30.6695 41.6244 30.6695C41.6876 30.4617 41.7391 30.2557 41.7789 30.0515Z" fill="#DC4852"/>
<path fill-rule="evenodd" clip-rule="evenodd" d="M23.7017 30.0515C23.7017 30.3777 23.7017 30.7039 23.7017 31.0301C23.6502 31.0301 23.5987 31.0301 23.5472 31.0301C23.5723 30.8051 23.6066 30.5819 23.6502 30.3605C23.6351 30.2454 23.6523 30.1424 23.7017 30.0515Z" fill="#1D211F"/>
<path fill-rule="evenodd" clip-rule="evenodd" d="M41.573 30.8755C41.573 30.927 41.573 30.9785 41.573 31.03C41.5215 31.03 41.47 31.03 41.4185 31.03C41.4185 30.9785 41.4185 30.927 41.4185 30.8755C41.47 30.8755 41.5215 30.8755 41.573 30.8755Z" fill="#1D211F"/>
<path fill-rule="evenodd" clip-rule="evenodd" d="M15.0493 30.3605C15.1008 30.3605 15.1523 30.3605 15.2038 30.3605C15.2038 30.6351 15.2038 30.9098 15.2038 31.1845C15.1523 31.1845 15.1008 31.1845 15.0493 31.1845C15.0493 30.9098 15.0493 30.6351 15.0493 30.3605Z" fill="#1D211F"/>
<path fill-rule="evenodd" clip-rule="evenodd" d="M37.7618 30.8755C37.7618 30.9785 37.7618 31.0815 37.7618 31.1845C37.7103 31.1845 37.6588 31.1845 37.6073 31.1845C37.6073 31.0815 37.6073 30.9785 37.6073 30.8755C37.6588 30.8755 37.7103 30.8755 37.7618 30.8755Z" fill="#1D211F"/>
<path fill-rule="evenodd" clip-rule="evenodd" d="M19.324 30.8755C19.2896 31.0815 19.2553 31.2875 19.221 31.4935C19.2373 31.7099 19.2201 31.9159 19.1695 32.1115C19.1609 31.7506 19.1695 31.3901 19.1952 31.03C19.2074 30.9466 19.2503 30.8951 19.324 30.8755Z" fill="#DB4854"/>
<path fill-rule="evenodd" clip-rule="evenodd" d="M19.324 30.6696C19.3411 30.6696 19.3583 30.6696 19.3755 30.6696C19.3755 30.9442 19.3755 31.2189 19.3755 31.4936C19.324 31.4936 19.2724 31.4936 19.2209 31.4936C19.2553 31.2876 19.2896 31.0816 19.324 30.8756C19.324 30.8069 19.324 30.7382 19.324 30.6696Z" fill="#1D211F"/>
<path fill-rule="evenodd" clip-rule="evenodd" d="M23.4957 31.1846C23.4957 31.2876 23.4957 31.3906 23.4957 31.4936C23.4442 31.4936 23.3927 31.4936 23.3412 31.4936C23.3412 31.3906 23.3412 31.2876 23.3412 31.1846C23.3927 31.1846 23.4442 31.1846 23.4957 31.1846Z" fill="#1D211F"/>
<path fill-rule="evenodd" clip-rule="evenodd" d="M28.2854 31.03C28.332 31.0665 28.3491 31.118 28.3369 31.1845C28.3884 31.1845 28.4399 31.1845 28.4914 31.1845C28.4914 31.2875 28.4914 31.3905 28.4914 31.4935C28.4399 31.4935 28.3884 31.4935 28.3369 31.4935C28.303 31.3414 28.2858 31.1869 28.2854 31.03Z" fill="#1D211F"/>
<path fill-rule="evenodd" clip-rule="evenodd" d="M34.8777 31.03C34.9292 31.03 34.9807 31.03 35.0322 31.03C35.0322 31.133 35.0322 31.236 35.0322 31.339C34.9807 31.339 34.9292 31.339 34.8777 31.339C34.8777 31.236 34.8777 31.133 34.8777 31.03Z" fill="#1D211F"/>
<path fill-rule="evenodd" clip-rule="evenodd" d="M6.39697 31.1846C6.44847 31.1846 6.49998 31.1846 6.55148 31.1846C6.55148 31.2876 6.55148 31.3906 6.55148 31.4936C6.49998 31.4936 6.44847 31.4936 6.39697 31.4936C6.39697 31.3906 6.39697 31.2876 6.39697 31.1846Z" fill="#D64757"/>
<path fill-rule="evenodd" clip-rule="evenodd" d="M28.4915 31.6481C28.543 31.6481 28.5945 31.6481 28.646 31.6481C28.646 31.7511 28.646 31.8541 28.646 31.9571C28.5702 31.8687 28.5187 31.7657 28.4915 31.6481Z" fill="#1D211F"/>
<path fill-rule="evenodd" clip-rule="evenodd" d="M15.0493 31.1846C15.1008 31.1846 15.1523 31.1846 15.2038 31.1846C15.2038 31.4936 15.2038 31.8026 15.2038 32.1116C15.1523 32.1116 15.1008 32.1116 15.0493 32.1116C15.0493 31.8026 15.0493 31.4936 15.0493 31.1846Z" fill="#E1494B"/>
<path fill-rule="evenodd" clip-rule="evenodd" d="M35.0322 31.6481C35.0837 31.6481 35.1352 31.6481 35.1867 31.6481C35.1867 31.7511 35.1867 31.8541 35.1867 31.9571C35.1352 31.9571 35.0837 31.9571 35.0322 31.9571C35.0322 31.8541 35.0322 31.7511 35.0322 31.6481Z" fill="#DD4865"/>
<path fill-rule="evenodd" clip-rule="evenodd" d="M37.6073 31.6481C37.6073 31.7511 37.6073 31.8541 37.6073 31.9571C37.5558 31.9571 37.5043 31.9571 37.4528 31.9571C37.4528 31.8541 37.4528 31.7511 37.4528 31.6481C37.5043 31.6481 37.5558 31.6481 37.6073 31.6481Z" fill="#1D211F"/>
<path fill-rule="evenodd" clip-rule="evenodd" d="M41.2639 31.8026C41.2639 31.8541 41.2639 31.9056 41.2639 31.9571C41.2124 31.9571 41.1609 31.9571 41.1094 31.9571C41.1094 31.9056 41.1094 31.8541 41.1094 31.8026C41.1609 31.8026 41.2124 31.8026 41.2639 31.8026Z" fill="#1D211F"/>
<path fill-rule="evenodd" clip-rule="evenodd" d="M23.3412 31.957C23.3412 32.06 23.3412 32.163 23.3412 32.266C23.2896 32.266 23.2381 32.266 23.1866 32.266C23.1866 32.163 23.1866 32.06 23.1866 31.957C23.2381 31.957 23.2896 31.957 23.3412 31.957Z" fill="#1D211F"/>
<path fill-rule="evenodd" clip-rule="evenodd" d="M6.55151 32.1116C6.60302 32.1116 6.65452 32.1116 6.70602 32.1116C6.70602 32.2317 6.70602 32.3519 6.70602 32.4721C6.65452 32.4721 6.60302 32.4721 6.55151 32.4721C6.55151 32.3519 6.55151 32.2317 6.55151 32.1116Z" fill="#1D211F"/>
<path fill-rule="evenodd" clip-rule="evenodd" d="M19.1695 32.2661C19.1225 32.5994 19.071 32.9256 19.015 33.2447C19.0065 32.9866 19.0151 32.7291 19.0408 32.4721C19.0471 32.3724 19.09 32.3037 19.1695 32.2661Z" fill="#1D211F"/>
<path fill-rule="evenodd" clip-rule="evenodd" d="M37.4528 32.1116C37.4528 32.2146 37.4528 32.3176 37.4528 32.4206C37.4013 32.4206 37.3498 32.4206 37.2983 32.4206C37.3121 32.5029 37.2949 32.5716 37.2468 32.6266C37.2081 32.4035 37.2768 32.2319 37.4528 32.1116Z" fill="#1D211F"/>
<path fill-rule="evenodd" clip-rule="evenodd" d="M40.9549 32.472C40.9549 32.5235 40.9549 32.5751 40.9549 32.6266C40.9034 32.6266 40.8519 32.6266 40.8004 32.6266C40.8004 32.5751 40.8004 32.5235 40.8004 32.472C40.8519 32.472 40.9034 32.472 40.9549 32.472Z" fill="#1D211F"/>
<path fill-rule="evenodd" clip-rule="evenodd" d="M35.1866 32.3176C35.2381 32.3176 35.2896 32.3176 35.3412 32.3176C35.3412 32.4206 35.3412 32.5236 35.3412 32.6266C35.2896 32.6266 35.2381 32.6266 35.1866 32.6266C35.1866 32.5236 35.1866 32.4206 35.1866 32.3176Z" fill="#1D211F"/>
<path fill-rule="evenodd" clip-rule="evenodd" d="M6.55151 32.472C6.60302 32.472 6.65452 32.472 6.70602 32.472C6.70602 32.6266 6.70602 32.7811 6.70602 32.9356C6.65452 32.9356 6.60302 32.9356 6.55151 32.9356C6.55151 32.7811 6.55151 32.6266 6.55151 32.472Z" fill="#D14587"/>
<path fill-rule="evenodd" clip-rule="evenodd" d="M40.8004 32.7811C40.8004 32.8326 40.8004 32.8841 40.8004 32.9356C40.7489 32.9356 40.6974 32.9356 40.6459 32.9356C40.6459 32.8841 40.6459 32.8326 40.6459 32.7811C40.6974 32.7811 40.7489 32.7811 40.8004 32.7811Z" fill="#1D211F"/>
<path fill-rule="evenodd" clip-rule="evenodd" d="M23.1867 32.7811C23.1867 32.8841 23.1867 32.9871 23.1867 33.0901C23.1352 33.0901 23.0837 33.0901 23.0322 33.0901C23.0322 32.9871 23.0322 32.8841 23.0322 32.7811C23.0837 32.7811 23.1352 32.7811 23.1867 32.7811Z" fill="#DE4865"/>
<path fill-rule="evenodd" clip-rule="evenodd" d="M37.0923 32.9355C37.065 33.0532 37.0135 33.1562 36.9377 33.2446C36.9377 33.1416 36.9377 33.0386 36.9377 32.9355C36.9892 32.9355 37.0407 32.9355 37.0923 32.9355Z" fill="#1D211F"/>
<path fill-rule="evenodd" clip-rule="evenodd" d="M40.646 33.0901C40.646 33.1416 40.646 33.1931 40.646 33.2446C40.5945 33.2446 40.543 33.2446 40.4915 33.2446C40.4915 33.1931 40.4915 33.1416 40.4915 33.0901C40.543 33.0901 40.5945 33.0901 40.646 33.0901Z" fill="#1D211F"/>
<path fill-rule="evenodd" clip-rule="evenodd" d="M40.4913 33.2447C40.4913 33.2962 40.4913 33.3477 40.4913 33.3992C40.4398 33.3992 40.3883 33.3992 40.3368 33.3992C40.3359 33.4795 40.3187 33.5568 40.2853 33.6309C40.1739 33.7723 40.0709 33.9183 39.9763 34.0687C39.9763 33.9485 39.9763 33.8283 39.9763 33.7082C40.0278 33.7082 40.0793 33.7082 40.1308 33.7082C40.1224 33.5698 40.131 33.4324 40.1566 33.2962C40.2617 33.2486 40.3733 33.2315 40.4913 33.2447Z" fill="#1D211F"/>
<path fill-rule="evenodd" clip-rule="evenodd" d="M6.70593 32.9355C6.83211 33.1164 6.88362 33.3224 6.86044 33.5536C6.80894 33.5536 6.75743 33.5536 6.70593 33.5536C6.70593 33.3476 6.70593 33.1416 6.70593 32.9355Z" fill="#1D211F"/>
<path fill-rule="evenodd" clip-rule="evenodd" d="M29.2639 33.2446C29.3154 33.2446 29.3669 33.2446 29.4184 33.2446C29.4184 33.2961 29.4184 33.3476 29.4184 33.3991C29.3669 33.3991 29.3154 33.3991 29.2639 33.3991C29.2639 33.3476 29.2639 33.2961 29.2639 33.2446Z" fill="#1D211F"/>
<path fill-rule="evenodd" clip-rule="evenodd" d="M19.015 33.2446C18.9622 33.403 18.9107 33.5575 18.8605 33.7081C18.8605 33.5536 18.8605 33.3991 18.8605 33.2446C18.912 33.2446 18.9635 33.2446 19.015 33.2446Z" fill="#1D211F"/>
<path fill-rule="evenodd" clip-rule="evenodd" d="M36.0107 33.3992C36.2168 33.3992 36.4228 33.3992 36.6288 33.3992C36.6288 33.4507 36.6288 33.5022 36.6288 33.5537C36.4538 33.5702 36.2821 33.553 36.1137 33.5022C36.0755 33.467 36.0412 33.4327 36.0107 33.3992Z" fill="#1D211F"/>
<path fill-rule="evenodd" clip-rule="evenodd" d="M35.8562 33.3992C35.9077 33.3992 35.9592 33.3992 36.0107 33.3992C36.0411 33.4327 36.0754 33.467 36.1137 33.5022C36.282 33.553 36.4537 33.5702 36.6287 33.5537C36.4325 33.6126 36.2265 33.6212 36.0107 33.5794C35.9662 33.5094 35.9147 33.4493 35.8562 33.3992Z" fill="#1D211F"/>
<path fill-rule="evenodd" clip-rule="evenodd" d="M6.70593 33.5536C6.75743 33.5536 6.80894 33.5536 6.86044 33.5536C6.86044 33.6737 6.86044 33.7939 6.86044 33.9141C6.80894 33.9141 6.75743 33.9141 6.70593 33.9141C6.70593 33.7939 6.70593 33.6737 6.70593 33.5536Z" fill="#E14957"/>
<path fill-rule="evenodd" clip-rule="evenodd" d="M29.47 33.5536C29.5215 33.5536 29.573 33.5536 29.6245 33.5536C29.6349 33.6637 29.6864 33.7496 29.779 33.8111C29.8215 33.8567 29.873 33.8739 29.9335 33.8626C29.9335 33.9313 29.9335 34 29.9335 34.0686C29.8648 34.0686 29.7961 34.0686 29.7275 34.0686C29.6689 33.8828 29.5831 33.7112 29.47 33.5536Z" fill="#1D211F"/>
<path fill-rule="evenodd" clip-rule="evenodd" d="M18.8604 33.7596C18.8604 33.8626 18.8604 33.9657 18.8604 34.0687C18.8089 34.0687 18.7574 34.0687 18.7059 34.0687C18.7059 33.9657 18.7059 33.8626 18.7059 33.7596C18.7574 33.7596 18.8089 33.7596 18.8604 33.7596Z" fill="#DA4861"/>
<path fill-rule="evenodd" clip-rule="evenodd" d="M22.8777 33.7596C22.8777 33.8626 22.8777 33.9657 22.8777 34.0687C22.8261 34.0687 22.7746 34.0687 22.7231 34.0687C22.7231 33.9657 22.7231 33.8626 22.7231 33.7596C22.7746 33.7596 22.8261 33.7596 22.8777 33.7596Z" fill="#1D211F"/>
<path fill-rule="evenodd" clip-rule="evenodd" d="M39.9764 34.0686C39.9764 34.1201 39.9764 34.1716 39.9764 34.2231C39.9249 34.2231 39.8734 34.2231 39.8219 34.2231C39.8219 34.1716 39.8219 34.1201 39.8219 34.0686C39.8734 34.0686 39.9249 34.0686 39.9764 34.0686Z" fill="#1D211F"/>
<path fill-rule="evenodd" clip-rule="evenodd" d="M29.9335 34.2231C29.985 34.2231 30.0365 34.2231 30.088 34.2231C30.088 34.2746 30.088 34.3261 30.088 34.3777C30.0365 34.3777 29.985 34.3777 29.9335 34.3777C29.9335 34.3261 29.9335 34.2746 29.9335 34.2231Z" fill="#1D211F"/>
<path fill-rule="evenodd" clip-rule="evenodd" d="M6.86047 33.9142C6.91069 34.0648 6.96219 34.2193 7.01498 34.3777C6.96348 34.3777 6.91198 34.3777 6.86047 34.3777C6.86047 34.2232 6.86047 34.0687 6.86047 33.9142Z" fill="#1D211F"/>
<path fill-rule="evenodd" clip-rule="evenodd" d="M30.088 34.3777C30.1395 34.3777 30.191 34.3777 30.2425 34.3777C30.2425 34.4292 30.2425 34.4807 30.2425 34.5322C30.191 34.5322 30.1395 34.5322 30.088 34.5322C30.088 34.4807 30.088 34.4292 30.088 34.3777Z" fill="#1D211F"/>
<path fill-rule="evenodd" clip-rule="evenodd" d="M18.706 34.5322C18.706 34.6352 18.706 34.7382 18.706 34.8412C18.6545 34.8412 18.603 34.8412 18.5515 34.8412C18.5515 34.7382 18.5515 34.6352 18.5515 34.5322C18.603 34.5322 18.6545 34.5322 18.706 34.5322Z" fill="#1D211F"/>
<path fill-rule="evenodd" clip-rule="evenodd" d="M39.2038 34.9957C39.1673 35.0423 39.1158 35.0594 39.0493 35.0472C39.0493 35.0987 39.0493 35.1502 39.0493 35.2017C38.9978 35.2017 38.9463 35.2017 38.8948 35.2017C38.962 35.1519 38.9964 35.0832 38.9978 34.9957C39.0664 34.9957 39.1351 34.9957 39.2038 34.9957Z" fill="#1D211F"/>
<path fill-rule="evenodd" clip-rule="evenodd" d="M22.4141 34.9957C22.4225 35.1001 22.4139 35.2031 22.3884 35.3047C22.3538 35.3435 22.3109 35.3607 22.2596 35.3562C22.2986 35.2273 22.3501 35.1071 22.4141 34.9957Z" fill="#1D211F"/>
<path fill-rule="evenodd" clip-rule="evenodd" d="M38.8948 35.2017C38.8948 35.2532 38.8948 35.3047 38.8948 35.3562C38.7697 35.3759 38.6495 35.4103 38.5343 35.4592C38.5343 35.4077 38.5343 35.3562 38.5343 35.3047C38.6495 35.2558 38.7697 35.2214 38.8948 35.2017Z" fill="#1D211F"/>
<path fill-rule="evenodd" clip-rule="evenodd" d="M18.3969 35.5107C18.3969 35.5622 18.3969 35.6137 18.3969 35.6652C18.3454 35.6652 18.2939 35.6652 18.2424 35.6652C18.2424 35.6137 18.2424 35.5622 18.2424 35.5107C18.2939 35.5107 18.3454 35.5107 18.3969 35.5107Z" fill="#1D211F"/>
<path fill-rule="evenodd" clip-rule="evenodd" d="M22.2081 35.4592C22.1975 35.6002 22.146 35.7204 22.0536 35.8197C22.0536 35.6996 22.0536 35.5794 22.0536 35.4592C22.1051 35.4592 22.1566 35.4592 22.2081 35.4592Z" fill="#1D211F"/>
<path fill-rule="evenodd" clip-rule="evenodd" d="M38.5343 35.5107C38.5343 35.5622 38.5343 35.6137 38.5343 35.6652C38.4828 35.6652 38.4313 35.6652 38.3798 35.6652C38.3798 35.6137 38.3798 35.5622 38.3798 35.5107C38.4313 35.5107 38.4828 35.5107 38.5343 35.5107Z" fill="#D34666"/>
<path fill-rule="evenodd" clip-rule="evenodd" d="M31.1696 35.5107C31.2211 35.5107 31.2726 35.5107 31.3241 35.5107C31.3241 35.5622 31.3241 35.6137 31.3241 35.6652C31.2726 35.6652 31.2211 35.6652 31.1696 35.6652C31.1696 35.6137 31.1696 35.5622 31.1696 35.5107Z" fill="#D14563"/>
<path fill-rule="evenodd" clip-rule="evenodd" d="M7.01501 34.8412C7.0849 34.9336 7.14495 35.0366 7.19527 35.1502C7.28092 35.4199 7.34097 35.6946 7.37553 35.9742C7.32897 35.9377 7.31182 35.8862 7.32403 35.8197C7.27253 35.8197 7.22102 35.8197 7.16952 35.8197C7.16952 35.6652 7.16952 35.5107 7.16952 35.3562C7.11802 35.3562 7.06652 35.3562 7.01501 35.3562C7.01501 35.1846 7.01501 35.0128 7.01501 34.8412Z" fill="#1D211F"/>
<path fill-rule="evenodd" clip-rule="evenodd" d="M32.1481 36.1288C32.1996 36.1288 32.2511 36.1288 32.3026 36.1288C32.3026 36.1803 32.3026 36.2318 32.3026 36.2833C32.2511 36.2833 32.1996 36.2833 32.1481 36.2833C32.1481 36.2318 32.1481 36.1803 32.1481 36.1288Z" fill="#CF4571"/>
<path fill-rule="evenodd" clip-rule="evenodd" d="M18.088 36.2832C18.088 36.3347 18.088 36.3862 18.088 36.4377C18.0365 36.4377 17.985 36.4377 17.9335 36.4377C17.9335 36.3862 17.9335 36.3347 17.9335 36.2832C17.985 36.2832 18.0365 36.2832 18.088 36.2832Z" fill="#1D211F"/>
<path fill-rule="evenodd" clip-rule="evenodd" d="M36.9377 36.2832C36.9377 36.3347 36.9377 36.3862 36.9377 36.4377C36.8862 36.4377 36.8347 36.4377 36.7832 36.4377C36.7832 36.3862 36.7832 36.3347 36.7832 36.2832C36.8347 36.2832 36.8862 36.2832 36.9377 36.2832Z" fill="#1D211F"/>
<path fill-rule="evenodd" clip-rule="evenodd" d="M15.0494 36.1288C15.1009 36.1288 15.1524 36.1288 15.2039 36.1288C15.2039 36.3348 15.2039 36.5408 15.2039 36.7468C15.1704 36.7164 15.136 36.6821 15.1009 36.6438C15.0501 36.4755 15.0329 36.3038 15.0494 36.1288Z" fill="#1D211F"/>
<path fill-rule="evenodd" clip-rule="evenodd" d="M32.972 36.4893C33.1181 36.555 33.2726 36.5893 33.4356 36.5923C33.4356 36.6094 33.4356 36.6266 33.4356 36.6438C33.2811 36.6438 33.1266 36.6438 32.972 36.6438C32.972 36.5923 32.972 36.5408 32.972 36.4893Z" fill="#D44656"/>
<path fill-rule="evenodd" clip-rule="evenodd" d="M33.4355 36.6438C33.4355 36.6266 33.4355 36.6094 33.4355 36.5923C34.2939 36.5923 35.1523 36.5923 36.0107 36.5923C35.9741 36.6388 35.9226 36.656 35.8561 36.6438C35.0978 36.7734 34.3425 36.7734 33.5901 36.6438C33.5386 36.6438 33.487 36.6438 33.4355 36.6438Z" fill="#1D211F"/>
<path fill-rule="evenodd" clip-rule="evenodd" d="M33.5901 36.6438C34.3425 36.7734 35.0979 36.7734 35.8562 36.6438C35.8186 36.7234 35.7499 36.7663 35.6502 36.7726C34.9637 36.7983 34.277 36.8069 33.5901 36.7983C33.5901 36.7468 33.5901 36.6953 33.5901 36.6438Z" fill="#D0455B"/>
<path fill-rule="evenodd" clip-rule="evenodd" d="M17.9335 36.5923C17.9419 36.6967 17.9333 36.7997 17.9078 36.9013C17.8919 36.8597 17.8661 36.8253 17.8305 36.7983C17.7815 36.8779 17.7643 36.9637 17.779 37.0558C17.7039 37.0524 17.6352 37.0695 17.573 37.1073C17.5959 36.865 17.716 36.6934 17.9335 36.5923Z" fill="#1D211F"/>
<path fill-rule="evenodd" clip-rule="evenodd" d="M21.5901 36.7982C21.5901 36.8497 21.5901 36.9012 21.5901 36.9527C21.5386 36.9527 21.487 36.9527 21.4355 36.9527C21.4355 36.9012 21.4355 36.8497 21.4355 36.7982C21.487 36.7982 21.5386 36.7982 21.5901 36.7982Z" fill="#1D211F"/>
<path fill-rule="evenodd" clip-rule="evenodd" d="M8.14807 37.5708C8.19957 37.5708 8.25108 37.5708 8.30258 37.5708C8.30258 37.6223 8.30258 37.6738 8.30258 37.7253C8.25108 37.7253 8.19957 37.7253 8.14807 37.7253C8.14807 37.6738 8.14807 37.6223 8.14807 37.5708Z" fill="#1D211F"/>
<path fill-rule="evenodd" clip-rule="evenodd" d="M16.9549 37.5708C16.9549 37.6223 16.9549 37.6738 16.9549 37.7253C16.9034 37.7253 16.8519 37.7253 16.8004 37.7253C16.8004 37.6738 16.8004 37.6223 16.8004 37.5708C16.8519 37.5708 16.9034 37.5708 16.9549 37.5708Z" fill="#D0466F"/>
<path fill-rule="evenodd" clip-rule="evenodd" d="M21.1266 37.5708C21.1266 37.6223 21.1266 37.6738 21.1266 37.7253C21.0751 37.7253 21.0235 37.7253 20.972 37.7253C20.972 37.6738 20.972 37.6223 20.972 37.5708C21.0235 37.5708 21.0751 37.5708 21.1266 37.5708Z" fill="#D44665"/>
<path fill-rule="evenodd" clip-rule="evenodd" d="M15.9763 37.7253C16.1995 37.7253 16.4227 37.7253 16.6458 37.7253C16.6458 37.7768 16.6458 37.8283 16.6458 37.8798C16.437 37.8965 16.231 37.8794 16.0278 37.8283C16.0091 37.7932 15.992 37.7588 15.9763 37.7253Z" fill="#1D211F"/>
<path fill-rule="evenodd" clip-rule="evenodd" d="M20.9721 37.7253C20.9721 37.7768 20.9721 37.8283 20.9721 37.8798C20.9206 37.8798 20.8691 37.8798 20.8176 37.8798C20.8176 37.8283 20.8176 37.7768 20.8176 37.7253C20.8691 37.7253 20.9206 37.7253 20.9721 37.7253Z" fill="#1D211F"/>
<path fill-rule="evenodd" clip-rule="evenodd" d="M8.30249 37.8798C8.35399 37.8798 8.40549 37.8798 8.457 37.8798C8.457 37.9313 8.457 37.9828 8.457 38.0343C8.40549 38.0343 8.35399 38.0343 8.30249 38.0343C8.30249 37.9828 8.30249 37.9313 8.30249 37.8798Z" fill="#1D211F"/>
<path fill-rule="evenodd" clip-rule="evenodd" d="M20.663 38.0343C20.6714 38.1387 20.6628 38.2417 20.6373 38.3433C20.5852 38.3864 20.5251 38.4036 20.457 38.3948C20.457 38.3262 20.457 38.2575 20.457 38.1888C20.5085 38.1888 20.56 38.1888 20.6115 38.1888C20.5993 38.1223 20.6165 38.0708 20.663 38.0343Z" fill="#D14467"/>
<path fill-rule="evenodd" clip-rule="evenodd" d="M20.457 38.3948C20.457 38.4463 20.457 38.4978 20.457 38.5493C20.4055 38.5493 20.354 38.5493 20.3025 38.5493C20.3025 38.4978 20.3025 38.4463 20.3025 38.3948C20.354 38.3948 20.4055 38.3948 20.457 38.3948Z" fill="#D14574"/>
<path fill-rule="evenodd" clip-rule="evenodd" d="M8.76611 38.3948C8.81592 38.462 8.88462 38.4964 8.97212 38.4978C8.97212 38.5664 8.97212 38.6351 8.97212 38.7038C8.92062 38.7038 8.86912 38.7038 8.81762 38.7038C8.80047 38.6008 8.78326 38.4978 8.76611 38.3948Z" fill="#1D211F"/>
<path fill-rule="evenodd" clip-rule="evenodd" d="M20.3026 38.5493C20.3026 38.6008 20.3026 38.6523 20.3026 38.7038C20.2511 38.7038 20.1996 38.7038 20.1481 38.7038C20.1481 38.6523 20.1481 38.6008 20.1481 38.5493C20.1996 38.5493 20.2511 38.5493 20.3026 38.5493Z" fill="#1D211F"/>
<path fill-rule="evenodd" clip-rule="evenodd" d="M20.148 38.7039C20.148 38.7554 20.148 38.8069 20.148 38.8584C20.0965 38.8584 20.045 38.8584 19.9935 38.8584C19.9935 38.8069 19.9935 38.7554 19.9935 38.7039C20.045 38.7039 20.0965 38.7039 20.148 38.7039Z" fill="#1D211F"/>
<path fill-rule="evenodd" clip-rule="evenodd" d="M19.9935 38.8584C19.9935 38.9099 19.9935 38.9614 19.9935 39.0129C19.942 39.0129 19.8905 39.0129 19.839 39.0129C19.839 38.9614 19.839 38.9099 19.839 38.8584C19.8905 38.8584 19.942 38.8584 19.9935 38.8584Z" fill="#1D211F"/>
<path fill-rule="evenodd" clip-rule="evenodd" d="M19.8391 39.0128C19.8391 39.0643 19.8391 39.1158 19.8391 39.1673C19.7876 39.1673 19.7361 39.1673 19.6846 39.1673C19.6846 39.1158 19.6846 39.0643 19.6846 39.0128C19.7361 39.0128 19.7876 39.0128 19.8391 39.0128Z" fill="#D64674"/>
<path fill-rule="evenodd" clip-rule="evenodd" d="M9.89917 39.6309C10.0036 39.6225 10.1066 39.6311 10.2082 39.6566C10.1666 39.6725 10.1322 39.6983 10.1052 39.7339C10.1864 39.775 10.2723 39.8007 10.3627 39.8111C10.4058 39.8632 10.4229 39.9233 10.4142 39.9914C10.3455 39.9914 10.2768 39.9914 10.2082 39.9914C10.2082 39.9399 10.2082 39.8884 10.2082 39.8369C10.1052 39.8197 10.0022 39.8025 9.89917 39.7854C9.89917 39.7339 9.89917 39.6824 9.89917 39.6309Z" fill="#1D211F"/>
<path fill-rule="evenodd" clip-rule="evenodd" d="M19.1695 39.6309C19.0727 39.8116 18.9182 39.8802 18.7059 39.8369C18.8342 39.7177 18.9887 39.649 19.1695 39.6309Z" fill="#D7474F"/>
<path fill-rule="evenodd" clip-rule="evenodd" d="M18.706 39.8369C18.706 39.8884 18.706 39.9399 18.706 39.9914C18.6545 39.9914 18.603 39.9914 18.5515 39.9914C18.5515 39.9399 18.5515 39.8884 18.5515 39.8369C18.603 39.8369 18.6545 39.8369 18.706 39.8369Z" fill="#1D211F"/>
<path fill-rule="evenodd" clip-rule="evenodd" d="M10.4142 39.9915C10.4657 39.9915 10.5172 39.9915 10.5687 39.9915C10.5687 40.043 10.5687 40.0945 10.5687 40.146C10.5172 40.146 10.4657 40.146 10.4142 40.146C10.4142 40.0945 10.4142 40.043 10.4142 39.9915Z" fill="#1D211F"/>
<path fill-rule="evenodd" clip-rule="evenodd" d="M17.4184 40.455C17.4184 40.5065 17.4184 40.558 17.4184 40.6095C17.3669 40.6095 17.3154 40.6095 17.2639 40.6095C17.2639 40.558 17.2639 40.5065 17.2639 40.455C17.3154 40.455 17.3669 40.455 17.4184 40.455Z" fill="#1D211F"/>
<path fill-rule="evenodd" clip-rule="evenodd" d="M11.6501 40.6094C11.7703 40.6094 11.8905 40.6094 12.0107 40.6094C12.0107 40.6609 12.0107 40.7124 12.0107 40.7639C11.8905 40.7639 11.7703 40.7639 11.6501 40.7639C11.6501 40.7124 11.6501 40.6609 11.6501 40.6094Z" fill="#1D211F"/>
<path fill-rule="evenodd" clip-rule="evenodd" d="M17.1094 40.6094C17.1094 40.6609 17.1094 40.7124 17.1094 40.7639C17.0064 40.7639 16.9034 40.7639 16.8004 40.7639C16.8004 40.7124 16.8004 40.6609 16.8004 40.6094C16.9034 40.6094 17.0064 40.6094 17.1094 40.6094Z" fill="#DC4864"/>
<path fill-rule="evenodd" clip-rule="evenodd" d="M12.1652 40.7639C12.3197 40.7639 12.4742 40.7639 12.6287 40.7639C12.6287 40.8154 12.6287 40.8669 12.6287 40.9184C12.4742 40.9184 12.3197 40.9184 12.1652 40.9184C12.1652 40.8669 12.1652 40.8154 12.1652 40.7639Z" fill="#1D211F"/>
<path fill-rule="evenodd" clip-rule="evenodd" d="M16.4914 40.7639C16.2931 40.893 16.0699 40.9445 15.8219 40.9184C15.8219 40.8669 15.8219 40.8154 15.8219 40.7639C16.0451 40.7639 16.2683 40.7639 16.4914 40.7639Z" fill="#1D211F"/>
<path fill-rule="evenodd" clip-rule="evenodd" d="M12.9377 40.9185C13.7961 40.9185 14.6545 40.9185 15.5129 40.9185C15.5129 40.9356 15.5129 40.9528 15.5129 40.97C14.8307 41.0606 14.144 41.0949 13.4528 41.073C13.2558 41.0879 13.0841 41.0364 12.9377 40.9185Z" fill="#1D211F"/>
<path fill-rule="evenodd" clip-rule="evenodd" d="M15.5128 40.97C15.5128 41.0215 15.5128 41.073 15.5128 41.1245C14.8171 41.1414 14.1303 41.1243 13.4528 41.073C14.144 41.0949 14.8306 41.0606 15.5128 40.97Z" fill="#1D211F"/>
</g>
<defs>
<clipPath id="clip0_5_1168">
<rect x="0.5" width="48" height="48" rx="16" fill="white"/>
</clipPath>
</defs>
</svg>
