<svg width="49" height="48" viewBox="0 0 49 48" fill="none" xmlns="http://www.w3.org/2000/svg">
<path d="M39.04 10.66C36.38 9.42 33.5 8.52 30.5 8C30.4472 8.00075 30.3969 8.02232 30.36 8.06C30 8.72 29.58 9.58 29.3 10.24C26.118 9.7603 22.882 9.7603 19.7 10.24C19.42 9.56 19 8.72 18.62 8.06C18.6 8.02 18.54 8 18.48 8C15.48 8.52 12.62 9.42 9.93999 10.66C9.91999 10.66 9.89999 10.68 9.87999 10.7C4.43999 18.84 2.93999 26.76 3.67999 34.6C3.67999 34.64 3.69999 34.68 3.73999 34.7C7.33999 37.34 10.8 38.94 14.22 40C14.28 40.02 14.34 40 14.36 39.96C15.16 38.86 15.88 37.7 16.5 36.48C16.54 36.4 16.5 36.32 16.42 36.3C15.28 35.86 14.2 35.34 13.14 34.74C13.06 34.7 13.06 34.58 13.12 34.52C13.34 34.36 13.56 34.18 13.78 34.02C13.82 33.98 13.88 33.98 13.92 34C20.8 37.14 28.22 37.14 35.02 34C35.06 33.98 35.12 33.98 35.16 34.02C35.38 34.2 35.6 34.36 35.82 34.54C35.9 34.6 35.9 34.72 35.8 34.76C34.76 35.38 33.66 35.88 32.52 36.32C32.44 36.34 32.42 36.44 32.44 36.5C33.08 37.72 33.8 38.88 34.58 39.98C34.64 40 34.7 40.02 34.76 40C38.2 38.94 41.66 37.34 45.26 34.7C45.3 34.68 45.32 34.64 45.32 34.6C46.2 25.54 43.86 17.68 39.12 10.7C39.1 10.68 39.08 10.66 39.04 10.66ZM17.54 29.82C15.48 29.82 13.76 27.92 13.76 25.58C13.76 23.24 15.44 21.34 17.54 21.34C19.66 21.34 21.34 23.26 21.32 25.58C21.32 27.92 19.64 29.82 17.54 29.82ZM31.48 29.82C29.42 29.82 27.7 27.92 27.7 25.58C27.7 23.24 29.38 21.34 31.48 21.34C33.6 21.34 35.28 23.26 35.26 25.58C35.26 27.92 33.6 29.82 31.48 29.82Z" fill="#23F0A2"/>
</svg>
