<svg width="49" height="28" viewBox="0 0 49 28" fill="none" xmlns="http://www.w3.org/2000/svg">
<path fill-rule="evenodd" clip-rule="evenodd" d="M47.399 1.8962C47.731 0.804227 47.399 0.000244141 45.8091 0.000244141H40.5592C39.2232 0.000244141 38.6072 0.69423 38.2732 1.46021C38.2732 1.46021 35.6033 7.85208 31.8213 12.004C30.5974 13.208 30.0414 13.59 29.3734 13.59C29.0394 13.59 28.5374 13.208 28.5374 12.114V1.8962C28.5374 0.584232 28.1694 0.000244141 27.0574 0.000244141H18.8016C17.9676 0.000244141 17.4656 0.608231 17.4656 1.18622C17.4656 2.42819 19.3576 2.71619 19.5516 6.21211V13.808C19.5516 15.4739 19.2456 15.7759 18.5776 15.7759C16.7977 15.7759 12.4677 9.35405 9.8978 2.0062C9.39981 0.576232 8.89582 0.000244141 7.55385 0.000244141H2.29996C0.799994 0.000244141 0.5 0.69423 0.5 1.46021C0.5 2.82418 2.27996 9.60004 8.78983 18.5619C13.1297 24.6817 19.2396 27.9997 24.8055 27.9997C28.1434 27.9997 28.5554 27.2637 28.5554 25.9937V21.3678C28.5554 19.8938 28.8714 19.5998 29.9294 19.5998C30.7094 19.5998 32.0433 19.9838 35.1593 22.9338C38.7192 26.4317 39.3052 27.9997 41.3091 27.9997H46.559C48.059 27.9997 48.811 27.2637 48.379 25.8077C47.903 24.3597 46.203 22.2578 43.9491 19.7638C42.7251 18.3439 40.8892 16.8139 40.3312 16.0479C39.5532 15.0659 39.7752 14.6279 40.3312 13.754C40.3312 13.754 46.731 4.90214 47.397 1.8962" fill="#23F0A2"/>
</svg>
